{"glyphs":{"0":{"ha":739,"x_min":0,"x_max":0,"o":"m 193 -218 b 403 -129 262 -218 332 -188 b 584 89 469 -74 529 -2 b 713 371 638 179 681 273 b 762 652 745 473 762 567 b 715 835 762 728 746 789 b 562 909 682 884 630 909 b 160 233 295 909 160 448 b 172 168 160 197 164 175 b 188 160 177 163 182 160 b 212 189 199 160 211 171 l 211 194 b 209 233 210 205 209 218 b 226 392 209 275 214 328 b 276 578 237 455 254 517 b 363 746 300 642 328 698 b 562 867 420 827 486 867 b 689 804 618 867 661 846 b 728 644 715 766 728 712 b 683 387 728 567 713 481 b 563 121 651 290 611 201 b 391 -87 509 33 452 -37 b 193 -172 324 -144 258 -172 b 69 -113 142 -172 100 -153 b 4 138 26 -59 4 25 b 37 400 4 220 15 308 b 128 658 60 495 91 581 b 264 854 169 741 214 806 b 430 932 317 906 373 932 b 473 919 448 932 463 928 b 496 908 481 911 490 908 b 517 926 510 908 517 916 b 505 950 517 934 513 942 b 432 972 486 965 463 972 b 252 891 370 972 310 945 b 104 686 197 840 147 772 b 6 414 63 602 30 511 b -30 135 -18 316 -30 223 b 193 -218 -30 -63 36 -218 z "},"1":{"ha":739,"x_min":0,"x_max":0,"o":"m 262 -218 b 286 -172 275 -218 286 -210 b 330 73 286 -98 301 -16 b 432 328 355 148 389 233 b 490 453 452 371 471 412 b 597 692 540 557 576 636 b 644 884 628 771 644 836 b 564 972 644 943 617 972 b 410 927 526 972 474 958 b 186 790 336 891 261 846 b 168 761 174 780 168 770 b 192 734 168 744 178 734 b 220 763 205 734 215 743 b 385 871 271 801 326 837 b 557 939 461 916 519 939 b 606 882 590 939 606 920 b 557 686 606 833 590 767 b 446 443 538 636 501 555 b 330 193 398 347 359 264 b 250 -57 291 101 264 18 b 237 -186 241 -97 237 -140 b 262 -218 239 -208 250 -218 z "},"2":{"ha":739,"x_min":0,"x_max":0,"o":"m -146 -218 b -57 -180 -127 -218 -97 -205 b 109 -58 -11 -152 44 -111 b 254 -41 157 -46 205 -41 b 461 -73 321 -41 391 -52 b 642 -148 524 -92 584 -117 b 670 -157 652 -154 662 -157 b 692 -138 685 -157 692 -151 b 662 -103 692 -125 682 -113 b 271 -7 533 -41 403 -9 l 260 -7 b 163 -13 228 -7 195 -9 b 336 145 217 31 275 84 b 528 354 405 212 469 281 b 684 581 593 433 646 509 b 748 794 727 661 748 732 b 705 911 748 842 734 881 b 524 972 664 952 604 972 b 114 675 340 972 116 854 b 123 616 114 656 117 636 b 153 589 130 597 140 589 b 174 616 167 589 174 598 b 170 637 174 623 172 629 b 164 682 166 652 164 667 b 285 870 166 760 214 824 b 522 941 355 916 443 941 b 650 905 574 941 616 929 b 703 794 685 880 703 842 b 471 343 703 678 625 528 b 271 130 412 273 346 201 b 93 -27 210 71 151 19 b -37 -74 52 -37 9 -53 b -157 -161 -97 -101 -137 -130 b -170 -197 -166 -176 -170 -188 b -146 -218 -170 -211 -162 -218 z "},"3":{"ha":739,"x_min":0,"x_max":0,"o":"m 67 -218 b 293 -179 134 -218 210 -205 b 515 -82 376 -153 451 -121 b 663 45 586 -40 635 2 b 684 110 677 67 684 89 b 631 208 684 149 667 181 b 503 270 600 232 557 252 b 351 309 464 282 413 295 b 226 342 294 321 252 332 b 174 384 191 355 174 368 b 229 454 174 404 192 427 b 444 578 262 479 334 520 b 684 714 551 633 631 678 b 797 852 758 764 795 810 b 561 972 795 936 693 972 b 22 738 333 972 22 869 b 136 640 22 693 68 656 b 146 638 139 639 142 638 b 176 662 165 638 176 649 b 148 690 176 673 167 686 b 84 710 121 696 100 703 b 55 743 64 718 55 729 b 120 827 55 772 77 800 b 278 895 160 852 213 875 b 473 934 343 913 408 926 b 568 939 507 937 538 939 b 707 918 626 939 672 932 b 763 851 744 903 763 880 b 700 766 763 826 742 798 b 547 675 664 740 613 709 b 456 627 517 659 487 643 b 229 502 351 574 275 532 b 125 380 161 456 125 416 b 196 314 125 354 149 332 b 357 270 229 301 283 286 b 496 235 415 256 461 245 b 606 186 545 220 581 203 b 650 111 635 164 650 139 b 576 -1 650 76 625 39 b 397 -102 528 -38 469 -72 b 184 -165 325 -132 254 -153 b 81 -175 149 -172 115 -175 b -52 -127 15 -175 -29 -159 b -82 -107 -62 -114 -72 -107 b -105 -132 -96 -107 -105 -117 b -96 -159 -105 -140 -102 -149 b 67 -218 -69 -201 -7 -218 z "},"4":{"ha":739,"x_min":0,"x_max":0,"o":"m 536 -218 b 558 -189 548 -218 558 -208 l 558 -178 b 585 232 558 -30 567 106 l 646 235 b 702 239 671 237 690 238 b 739 261 726 240 739 251 b 706 279 739 272 726 279 b 591 273 699 279 661 277 b 656 598 608 382 629 491 b 749 935 684 705 715 817 b 752 952 751 941 752 947 b 736 972 752 966 747 972 b 709 945 724 972 714 963 l 696 898 b 549 270 637 681 585 478 b 314 261 477 265 399 262 b 127 269 237 261 175 264 b -12 330 34 279 -12 299 b 62 465 -12 357 12 402 b 227 653 100 514 155 576 b 318 747 258 686 288 717 b 481 911 409 838 463 892 b 503 904 490 907 496 904 b 530 934 519 904 530 918 b 496 963 530 954 512 963 b 452 942 479 963 465 956 b 366 852 432 920 403 890 b 155 631 281 766 211 692 b -17 409 75 543 18 469 b -45 329 -35 377 -45 350 b 79 244 -45 289 -3 261 b 333 224 144 231 229 224 b 543 229 403 224 473 226 b 513 -173 524 97 513 -37 l 513 -190 b 536 -218 513 -208 525 -218 z "},"5":{"ha":739,"x_min":0,"x_max":0,"o":"m 92 -218 b 270 -134 136 -218 195 -190 b 484 65 338 -83 409 -17 b 665 302 555 143 615 222 b 743 503 717 387 743 454 b 624 607 743 572 697 606 b 422 552 562 607 494 589 b 238 440 372 527 311 490 b 125 370 191 408 153 385 b 85 359 109 363 96 359 b 66 384 73 359 66 367 b 126 562 66 416 86 475 b 242 789 157 630 196 705 b 318 920 283 863 309 907 b 334 914 324 916 330 914 b 350 927 343 915 348 919 b 571 940 425 935 498 939 b 752 913 665 940 726 931 b 747 902 749 909 747 905 b 769 884 748 890 755 884 b 792 909 783 884 792 895 b 541 972 792 951 709 972 b 238 949 431 972 330 965 b 82 863 134 932 82 903 b 109 834 82 847 92 834 b 137 858 123 834 137 844 b 135 868 137 861 136 865 b 134 870 134 869 134 869 b 159 889 135 876 143 882 b 271 916 183 899 220 908 b 162 729 237 862 201 800 b 30 380 74 567 30 451 b 78 321 30 352 41 321 b 266 418 127 321 193 366 b 618 572 371 493 491 572 b 708 499 676 572 708 547 b 687 416 708 476 701 448 b 553 210 661 358 616 290 b 355 -2 489 131 423 60 b 167 -144 282 -69 219 -117 b 98 -165 140 -158 117 -165 b 63 -144 82 -165 71 -158 b 37 -122 56 -130 47 -122 b 14 -149 25 -122 14 -130 b 18 -165 14 -154 16 -159 b 92 -218 33 -200 57 -218 z "},"6":{"ha":739,"x_min":0,"x_max":0,"o":"m 104 -184 b 35 -161 75 -183 52 -176 b 66 -129 51 -161 66 -149 b 51 -104 66 -118 61 -110 b 38 -83 43 -101 39 -94 b 40 -70 38 -80 39 -75 b 220 220 61 15 129 120 b 366 357 266 269 315 315 b 644 493 468 439 568 492 b 711 431 684 492 711 474 b 534 113 711 353 637 229 b 104 -184 397 -43 218 -182 z m 104 -218 b 298 -143 157 -218 222 -193 b 510 35 370 -98 440 -38 b 681 252 580 107 637 180 b 751 443 727 329 751 392 b 654 534 751 505 713 534 b 405 427 591 534 507 498 b 138 181 306 357 217 275 b -4 -82 54 81 7 -7 b -7 -39 -6 -69 -7 -54 b 664 924 -7 262 376 924 b 702 914 678 924 691 920 b 725 906 711 909 718 906 b 745 923 738 906 745 911 b 725 954 745 933 739 944 b 664 972 707 967 686 972 b 458 883 602 972 533 943 b 251 659 388 828 319 753 b 77 370 185 569 127 473 b -26 81 28 266 -7 170 b -41 -40 -36 37 -41 -3 b -7 -169 -41 -96 -29 -138 b 104 -218 17 -201 54 -218 z "},"7":{"ha":739,"x_min":0,"x_max":0,"o":"m 205 -218 b 234 -191 223 -218 234 -204 b 217 -167 234 -180 229 -172 b 199 -121 203 -158 199 -137 b 222 16 199 -77 206 -31 b 376 306 250 102 302 199 b 587 581 427 378 497 471 b 726 760 653 662 699 721 b 783 879 764 814 783 854 b 730 952 783 912 766 937 b 599 972 699 966 655 972 b 303 941 514 972 416 962 b 126 899 210 923 151 909 b 88 848 101 888 88 871 b 136 808 88 827 103 808 b 191 846 174 808 191 827 b 182 871 191 857 189 865 b 597 940 357 917 495 940 b 749 879 699 940 749 920 b 696 775 749 859 732 825 b 566 611 671 741 628 686 b 340 319 471 495 395 397 b 172 9 259 204 203 100 b 146 -136 155 -42 146 -90 b 191 -215 146 -169 158 -202 b 205 -218 195 -217 200 -218 z "},"8":{"ha":739,"x_min":0,"x_max":0,"o":"m 402 378 b 239 410 334 389 279 399 b 322 463 279 446 307 463 b 332 454 328 463 331 460 b 356 435 335 441 345 435 b 391 469 373 435 391 447 b 349 513 391 491 376 513 b 294 495 332 513 313 507 b 201 421 267 478 235 454 b 65 545 111 450 65 492 b 137 676 65 584 89 628 b 306 804 180 720 236 762 b 503 901 371 843 437 876 b 655 939 568 926 619 939 b 726 884 697 939 726 930 b 679 758 726 854 710 812 b 575 595 658 720 623 666 b 437 373 509 498 463 425 z m 73 -218 b 291 -181 138 -218 210 -205 b 520 -82 372 -156 448 -123 b 700 56 595 -39 655 6 b 772 212 748 109 772 161 b 483 366 772 307 639 340 b 613 588 505 416 549 491 b 714 751 660 659 693 713 b 760 884 745 808 760 852 b 655 972 760 943 725 972 b 487 932 614 972 558 959 b 275 830 416 906 345 871 b 94 692 200 785 140 739 b 16 545 42 639 16 590 b 172 393 16 477 68 427 b -18 151 100 319 36 238 b -109 -92 -78 54 -109 -27 b 73 -218 -108 -181 -34 -218 z m 82 -172 b -30 -150 34 -172 -3 -165 b -73 -75 -59 -134 -73 -109 b 210 381 -73 50 90 266 b 424 341 256 368 328 355 b 406 263 412 311 406 286 b 407 243 406 256 406 250 b 437 210 412 221 422 210 b 460 239 448 210 460 218 l 459 250 b 458 269 458 256 458 262 b 470 334 458 289 462 310 b 627 301 532 323 585 313 b 739 212 701 279 739 250 b 669 72 739 166 715 120 b 499 -51 628 29 571 -12 b 283 -139 432 -87 360 -117 b 82 -172 207 -161 140 -172 z "},"9":{"ha":739,"x_min":0,"x_max":0,"o":"m 633 532 b 473 281 593 457 541 374 b 263 13 414 199 344 109 l 121 -157 b 103 -197 109 -172 103 -185 b 123 -218 103 -210 111 -218 b 163 -191 136 -218 150 -209 l 212 -131 b 493 235 334 21 428 143 b 686 556 578 355 642 462 b 802 627 742 583 781 606 b 819 660 813 640 819 650 b 803 675 819 678 805 675 b 773 661 795 675 785 671 b 714 623 762 651 742 639 b 754 804 740 691 753 751 b 578 972 754 923 682 972 b 330 911 496 972 413 952 b 123 764 252 872 184 823 b -1 591 63 705 22 647 b -19 513 -13 563 -19 537 b 145 403 -19 439 36 403 b 229 410 172 403 199 405 b 575 507 334 424 450 456 b 633 532 596 516 615 524 z m 229 444 b 134 435 196 438 164 435 b 14 520 55 435 15 463 b 136 728 15 578 61 654 b 578 933 248 838 418 932 b 681 902 622 932 656 922 b 720 802 707 880 720 846 b 666 597 720 745 702 677 b 559 549 634 582 599 566 b 229 444 453 503 333 463 z "},"\u0000":{"ha":0,"x_min":0,"x_max":0,"o":""},"\r":{"ha":347,"x_min":0,"x_max":0,"o":""}," ":{"ha":345,"x_min":0,"x_max":0,"o":""}," ":{"ha":345,"x_min":0,"x_max":0,"o":""},"!":{"ha":159,"x_min":0,"x_max":0,"o":"m 88 210 b 104 228 98 210 104 219 b 87 243 104 235 99 241 b 163 584 92 319 117 432 b 279 936 193 685 233 802 b 282 952 281 942 282 947 b 267 972 282 965 275 972 b 240 947 255 972 246 964 b 155 686 211 865 182 777 b 59 262 91 477 59 336 b 64 229 59 249 60 238 b 88 210 68 216 77 210 z m 34 0 b 73 26 50 0 63 9 b 88 81 83 43 88 61 b 53 131 88 107 77 131 b 14 106 37 131 24 123 b -1 50 3 89 -1 70 b 34 0 -1 22 9 0 z "},"\"":{"ha":256,"x_min":0,"x_max":0,"o":"m 60 840 b 97 878 68 840 81 852 b 121 943 113 903 121 924 b 86 972 121 962 109 972 b 39 942 63 972 47 962 b 34 909 36 933 34 922 b 60 840 34 876 46 842 z m 161 840 b 199 878 170 840 183 852 b 222 943 214 903 222 924 b 188 972 222 962 211 972 b 141 942 165 972 149 962 b 136 909 138 933 136 922 b 161 840 136 876 148 842 z "},"#":{"ha":827,"x_min":0,"x_max":0,"o":"m 146 252 b -62 235 71 249 1 243 b -95 212 -84 232 -95 221 b -70 197 -95 202 -87 197 l -60 197 b 132 216 1 205 64 211 b 41 -151 73 60 42 -62 b 51 -195 41 -174 45 -189 b 66 -201 56 -199 60 -201 b 90 -176 78 -201 89 -193 l 89 -172 b 88 -147 88 -165 88 -156 b 119 50 89 -90 100 -24 b 172 218 134 104 151 160 b 412 225 249 222 329 224 b 526 223 453 225 491 224 b 426 -188 470 68 437 -69 b 425 -193 425 -189 425 -191 b 445 -218 426 -209 435 -218 b 467 -191 455 -218 465 -209 b 564 221 478 -66 510 71 b 710 203 621 218 670 212 b 745 194 732 199 744 195 b 756 184 753 192 756 189 l 755 179 b 753 169 754 175 753 172 b 771 151 754 157 760 151 b 793 176 783 151 793 159 b 717 233 793 203 768 222 b 574 250 678 240 631 246 b 629 388 591 295 609 341 b 707 560 654 447 680 505 b 733 557 716 559 725 557 b 865 526 796 549 840 538 b 857 505 860 518 857 511 b 880 484 857 491 869 484 b 911 518 895 484 910 496 b 765 583 910 547 861 569 b 722 589 751 585 736 587 b 919 918 783 709 848 818 b 926 937 924 925 926 931 b 908 953 926 947 919 953 b 884 937 899 953 891 947 b 684 593 814 833 747 719 b 389 604 600 600 501 604 l 345 604 b 427 749 372 655 399 703 b 539 916 467 816 505 871 b 562 895 542 902 549 895 b 587 923 575 895 587 904 b 568 964 587 933 581 947 b 552 972 563 970 557 972 b 417 795 535 972 490 913 b 309 604 379 733 343 670 b 69 600 214 604 134 602 b 39 578 50 597 39 589 b 70 562 39 570 50 562 b 255 568 85 563 147 565 l 290 570 b 165 300 246 483 204 393 b 146 252 159 283 152 268 z m 328 570 b 446 572 368 571 408 572 b 670 564 532 572 606 569 b 595 397 644 510 619 455 b 536 253 574 348 554 300 b 359 257 484 256 425 257 b 186 254 298 257 241 256 b 198 286 190 264 194 275 b 307 528 231 368 267 449 b 328 570 313 543 320 556 z "},"$":{"ha":741,"x_min":0,"x_max":0,"o":"m 209 -381 b 230 -351 218 -381 225 -371 b 266 -166 241 -290 253 -228 b 406 -73 318 -141 365 -111 b 498 48 450 -35 481 5 b 511 125 507 70 511 96 b 490 195 509 151 501 174 b 576 232 519 208 549 220 b 609 267 598 241 609 256 b 589 283 609 277 602 282 b 463 234 577 283 535 267 b 374 302 438 260 408 283 b 559 924 427 512 489 719 b 684 937 604 932 646 937 b 806 910 740 937 781 928 b 839 840 828 893 839 870 b 804 714 839 807 827 765 b 767 637 787 675 774 650 b 763 619 764 631 763 625 b 786 596 763 605 773 596 b 813 615 798 596 807 602 b 869 764 839 668 857 718 b 878 832 875 787 878 810 b 684 972 878 926 813 972 b 572 962 650 972 612 969 b 620 1097 587 1008 604 1053 b 624 1117 623 1105 624 1111 b 611 1137 623 1130 619 1136 b 584 1107 600 1137 591 1127 b 530 954 566 1057 547 1005 b 296 877 452 937 374 911 b 90 759 218 842 149 803 b -40 621 27 712 -16 666 b -58 551 -52 597 -58 574 b -7 452 -58 515 -41 481 b 190 347 27 422 93 387 b 332 281 254 319 302 298 l 300 153 b 17 -87 149 68 54 -12 b 1 -150 7 -108 1 -129 b 79 -218 1 -194 39 -218 b 228 -183 122 -218 172 -206 b 195 -359 206 -292 195 -351 b 209 -381 195 -372 201 -381 z m 342 321 b 205 383 309 338 263 359 b 77 442 148 407 104 427 b -17 551 14 476 -17 512 b 67 694 -17 595 11 643 b 269 824 119 741 186 784 b 516 914 351 864 433 894 b 342 321 450 718 393 521 z m 363 262 b 421 215 386 248 405 232 b 342 175 395 202 368 189 z m 275 -120 b 328 119 292 -40 310 40 b 448 177 368 140 408 159 b 465 109 460 157 465 134 b 408 -18 465 67 446 25 b 275 -120 373 -56 329 -90 z m 79 -184 b 35 -150 58 -184 35 -175 b 109 -24 35 -111 60 -69 b 288 97 153 15 212 56 b 237 -140 269 18 252 -61 b 79 -184 174 -170 122 -184 z "},"%":{"ha":656,"x_min":0,"x_max":0,"o":"m 304 -218 b 440 -153 340 -218 385 -196 b 576 -9 492 -112 538 -64 b 639 146 618 51 639 102 b 557 238 639 193 612 224 b 581 253 566 245 574 250 b 608 288 599 262 608 273 b 589 304 608 298 602 304 b 499 245 568 304 538 284 l 484 245 b 368 232 443 245 404 241 b 340 203 349 227 340 218 b 364 182 340 193 349 182 b 379 184 369 182 374 183 b 458 201 399 190 425 195 b 250 -157 389 123 250 -63 b 304 -218 250 -195 271 -218 z m 62 -218 b 88 -192 76 -218 88 -208 b 86 -181 88 -189 87 -185 b 81 -147 83 -171 81 -159 b 421 464 81 -16 262 239 b 538 631 463 523 502 578 b 659 861 609 735 656 818 b 461 972 659 942 574 972 b 263 946 399 972 334 964 b 93 878 195 928 138 906 b 20 789 44 848 20 818 b 60 741 20 767 33 751 b 150 723 79 734 109 728 b -11 492 63 637 -11 541 b 37 450 -11 464 9 450 b 155 491 64 450 102 464 b 288 581 206 517 251 547 b 352 677 331 618 352 650 b 263 745 352 711 322 734 l 235 750 b 373 837 302 808 349 837 b 383 833 376 837 380 836 b 410 820 392 824 401 820 b 432 844 423 820 432 831 b 389 882 432 857 418 882 b 300 846 367 882 337 870 b 184 755 263 823 224 792 b 62 776 119 760 78 767 b 54 789 56 779 54 783 b 124 859 54 812 77 836 b 288 913 167 880 222 899 b 470 935 353 927 414 935 b 618 862 559 935 618 913 b 494 629 616 821 574 743 b 375 462 458 576 418 521 b 213 233 303 362 249 286 b 82 15 157 149 113 76 b 28 -156 46 -56 28 -113 b 46 -212 28 -184 34 -203 b 62 -218 51 -216 56 -218 z m 43 484 b 25 499 31 484 25 489 b 199 718 26 539 110 636 l 205 718 b 252 711 223 716 239 714 b 303 677 286 705 303 693 b 248 600 303 657 285 631 b 134 520 214 570 177 544 b 43 484 92 496 61 484 z m 307 -181 b 284 -155 293 -181 284 -174 b 375 33 286 -113 316 -50 b 520 206 426 104 475 162 b 606 144 578 205 606 184 b 548 12 606 110 587 65 b 423 -121 512 -38 470 -82 b 307 -181 374 -161 335 -181 z "},"&":{"ha":793,"x_min":0,"x_max":0,"o":"m 199 -218 b 714 39 425 -218 709 -117 b 619 144 714 97 669 128 b 790 308 674 201 731 256 b 804 334 800 317 804 326 b 791 348 804 343 800 348 b 569 133 777 348 703 276 b 412 -52 514 75 462 13 b 403 -74 406 -60 403 -68 b 412 -84 403 -80 406 -83 b 438 -66 420 -84 429 -78 b 593 117 486 -2 538 59 b 680 39 632 107 680 86 b 566 -96 678 -14 634 -60 b 187 -181 463 -149 310 -181 b 37 -160 125 -181 75 -174 b -24 -92 -3 -144 -24 -122 b 34 22 -24 -52 -5 -14 b 174 117 66 54 113 85 b 348 197 215 138 273 165 b 502 269 417 228 469 252 b 614 379 577 309 614 345 b 566 435 614 401 598 420 b 448 475 539 449 500 462 l 376 492 b 181 548 288 512 222 531 b 89 642 121 573 90 604 b 233 808 90 700 146 758 b 689 939 362 884 549 939 b 872 830 819 939 872 890 b 636 601 871 746 774 643 b 606 573 616 595 606 586 b 631 555 606 563 614 555 b 649 557 636 555 642 555 b 780 625 698 572 741 594 b 904 832 856 684 904 764 b 854 932 904 873 887 907 b 685 972 817 959 760 972 b 452 937 614 972 536 960 b 224 841 367 912 291 880 b 77 712 154 800 104 758 b 55 642 62 688 55 665 b 115 543 55 604 75 571 b 254 481 148 519 194 499 b 415 441 294 469 348 456 b 532 412 471 429 510 420 b 581 379 564 402 581 391 b 519 319 581 361 560 341 b 371 251 490 303 441 280 b 203 176 301 221 245 196 b 52 84 142 145 92 115 b -58 -92 -21 28 -58 -30 b -8 -174 -58 -126 -41 -153 b 199 -218 37 -203 106 -218 z "},"'":{"ha":155,"x_min":0,"x_max":0,"o":"m 60 840 b 97 878 68 840 81 852 b 121 943 113 903 121 924 b 86 972 121 962 109 972 b 39 942 63 972 47 962 b 34 909 36 933 34 922 b 60 840 34 876 46 842 z "},"(":{"ha":407,"x_min":0,"x_max":0,"o":"m 289 -499 b 314 -479 304 -499 314 -490 b 286 -445 314 -468 304 -456 b 98 -149 192 -390 129 -291 b 76 68 83 -82 76 -9 b 169 588 76 238 107 412 b 422 1029 232 769 316 916 b 789 1210 534 1149 656 1210 b 867 1186 821 1210 846 1202 b 888 1178 874 1181 881 1178 b 913 1202 902 1178 913 1188 b 898 1226 913 1210 908 1218 b 798 1255 873 1245 840 1255 b 399 1059 652 1253 519 1187 b 132 595 288 939 198 784 b 34 50 66 410 34 229 b 258 -490 34 -193 103 -399 b 289 -499 269 -496 280 -499 z "},")":{"ha":407,"x_min":0,"x_max":0,"o":"m 118 1255 b 93 1235 102 1255 93 1246 b 121 1200 93 1223 102 1212 b 309 905 215 1145 278 1046 b 331 688 323 838 331 765 b 239 168 331 517 300 344 b -14 -273 176 -14 91 -160 b -382 -454 -126 -394 -249 -454 b -460 -431 -414 -454 -439 -446 b -481 -422 -467 -425 -474 -422 b -506 -446 -495 -422 -506 -433 b -491 -471 -506 -454 -501 -463 b -391 -499 -467 -490 -433 -499 b 8 -302 -245 -497 -113 -432 b 275 161 120 -182 209 -28 b 373 705 340 346 373 527 b 149 1245 373 948 304 1154 b 118 1255 138 1251 127 1255 z "},"*":{"ha":307,"x_min":0,"x_max":0,"o":"m 213 748 b 229 763 223 748 229 753 b 218 785 229 769 225 777 l 168 836 l 250 869 b 273 895 265 876 273 884 b 255 909 273 903 266 909 b 237 905 250 909 244 908 l 167 869 l 187 942 b 189 953 189 946 189 949 b 173 972 189 966 181 972 b 150 948 161 972 153 964 l 135 869 l 74 912 b 54 920 66 917 60 920 b 34 903 41 920 34 912 b 52 880 34 895 40 888 l 119 844 l 56 794 b 41 768 46 785 41 777 b 55 754 41 759 45 754 b 79 766 61 754 69 758 l 142 821 l 189 762 b 213 748 197 753 205 748 z "},"+":{"ha":809,"x_min":0,"x_max":0,"o":"m 420 395 b 505 696 447 496 475 597 b 507 711 507 701 507 705 b 488 728 507 723 501 728 b 469 707 479 728 473 722 b 382 396 438 604 409 500 l 310 396 b 60 388 151 396 67 393 b 54 376 56 385 54 380 b 74 359 54 368 61 359 l 77 359 b 307 363 166 362 243 363 b 374 363 329 363 351 363 b 302 58 348 262 324 160 b 301 47 302 54 301 51 b 316 27 301 34 306 27 b 338 50 328 27 334 35 b 412 362 360 155 385 259 b 498 361 441 362 469 362 b 730 359 562 360 640 359 b 755 377 747 359 755 369 b 732 393 755 387 747 393 b 502 395 642 393 566 394 b 420 395 475 395 448 395 z "},",":{"ha":162,"x_min":0,"x_max":0,"o":"m 46 -75 b 62 -69 51 -75 56 -73 b 110 -14 83 -55 98 -37 b 128 65 122 11 128 37 b 121 107 128 81 126 94 b 89 131 115 123 104 131 b 50 104 73 131 60 122 b 35 50 39 88 35 70 b 70 0 35 22 45 0 b 87 4 76 0 82 1 b 48 -45 79 -16 65 -33 b 34 -65 39 -52 34 -59 b 46 -75 35 -72 39 -75 z "},"-":{"ha":734,"x_min":0,"x_max":0,"o":"m 647 136 b 680 152 669 136 680 142 b 648 170 680 160 669 170 l 463 171 b 283 172 403 172 343 172 b 63 164 146 172 72 170 b 54 152 58 161 55 157 b 87 136 54 141 65 136 b 283 138 158 138 223 138 b 462 137 342 138 401 138 z "},"­":{"ha":734,"x_min":0,"x_max":0,"o":"m 647 136 b 680 152 669 136 680 142 b 648 170 680 160 669 170 l 463 171 b 283 172 403 172 343 172 b 63 164 146 172 72 170 b 54 152 58 161 55 157 b 87 136 54 141 65 136 b 283 138 158 138 223 138 b 462 137 342 138 401 138 z "},".":{"ha":157,"x_min":0,"x_max":0,"o":"m 69 0 b 109 26 85 0 98 9 b 123 81 119 43 123 61 b 88 131 123 107 113 131 b 50 106 73 131 60 123 b 34 50 39 89 34 70 b 69 0 34 22 45 0 z "},"/":{"ha":775,"x_min":0,"x_max":0,"o":"m 43 -218 b 73 -186 52 -218 62 -208 b 731 932 269 210 488 583 b 741 959 738 942 741 951 b 727 972 741 968 736 972 b 699 951 718 972 709 966 b 43 -172 462 610 243 236 b 34 -203 37 -184 34 -195 b 43 -218 34 -212 37 -217 z "},":":{"ha":220,"x_min":0,"x_max":0,"o":"m 69 0 b 109 26 85 0 98 9 b 123 81 119 43 123 61 b 88 131 123 107 113 131 b 49 106 72 131 59 123 b 34 50 39 89 34 70 b 69 0 34 22 45 0 z m 132 361 b 171 387 148 361 161 370 b 186 442 181 404 186 422 b 151 492 186 469 175 492 b 112 467 135 492 122 484 b 96 412 102 450 96 431 b 132 361 96 385 107 361 z "},";":{"ha":220,"x_min":0,"x_max":0,"o":"m 46 -75 b 62 -69 51 -75 56 -73 b 110 -14 83 -55 98 -37 b 128 65 122 11 128 37 b 121 107 128 81 126 94 b 89 131 115 123 104 131 b 50 104 73 131 60 122 b 35 50 39 88 35 70 b 70 0 35 22 45 0 b 87 4 76 0 82 1 b 48 -45 79 -16 65 -33 b 34 -65 39 -52 34 -59 b 46 -75 35 -72 39 -75 z m 133 361 b 173 388 149 361 163 370 b 186 446 182 404 186 423 b 151 492 186 469 176 492 b 112 466 136 492 122 484 b 97 412 103 452 98 433 b 133 361 97 385 107 361 z "},"<":{"ha":768,"x_min":0,"x_max":0,"o":"m 670 104 b 696 124 686 104 696 113 b 668 150 696 137 686 145 b 583 165 652 153 624 158 b 217 241 418 195 296 220 b 68 313 118 268 68 292 b 352 466 68 340 163 391 b 567 548 408 488 479 515 b 711 604 638 574 686 593 b 734 632 727 612 734 622 b 711 651 733 643 725 651 b 688 646 705 651 697 649 b 566 596 664 635 623 618 b 375 519 490 567 427 541 b 182 431 298 488 234 458 b 34 311 83 380 34 340 b 245 195 34 273 104 235 b 587 119 326 173 440 147 b 660 105 621 113 644 109 z "},"=":{"ha":809,"x_min":0,"x_max":0,"o":"m 722 227 b 755 243 744 227 755 233 b 723 260 755 254 744 260 b 299 263 582 260 440 263 b 62 255 151 263 71 260 b 54 243 57 252 54 248 b 86 227 54 232 65 227 b 271 229 148 229 210 229 z m 722 492 b 755 508 743 492 755 500 b 723 526 755 519 744 526 b 299 528 582 526 440 528 b 87 526 229 528 158 528 b 54 508 65 526 54 519 b 83 492 54 500 64 492 l 86 492 b 309 495 160 494 235 495 l 530 494 b 722 492 594 493 658 492 z "},">":{"ha":768,"x_min":0,"x_max":0,"o":"m 57 104 b 80 110 63 104 71 106 b 201 159 104 121 144 137 b 587 323 369 224 498 279 b 734 444 685 374 734 414 b 523 560 734 481 664 520 b 180 635 442 583 328 608 l 108 650 l 98 651 b 72 631 81 651 72 642 b 100 606 72 618 81 610 b 185 590 116 602 144 597 b 551 514 349 561 471 535 b 699 442 650 488 699 464 b 416 290 699 416 605 365 b 201 208 359 267 288 240 b 57 151 130 181 82 163 b 35 125 42 144 35 135 b 57 104 35 112 43 104 z "},"?":{"ha":475,"x_min":0,"x_max":0,"o":"m 212 213 b 237 243 225 213 234 223 b 367 489 254 336 297 418 b 460 577 397 521 429 550 b 570 688 511 623 548 660 b 617 816 602 729 617 772 b 553 935 617 867 595 907 b 399 972 513 960 461 972 b 173 922 321 972 246 956 b 7 779 95 886 39 838 b -18 673 -9 747 -18 712 b -9 618 -18 655 -15 636 b 20 590 -2 600 7 590 b 41 618 34 590 41 600 b 38 638 41 624 40 631 b 32 683 34 654 32 669 b 154 873 33 764 81 829 b 389 941 227 918 313 941 b 557 872 474 941 530 918 b 571 818 566 857 571 839 b 522 692 571 775 555 733 b 410 578 503 665 465 627 b 317 489 378 550 347 521 b 185 249 246 416 202 336 l 184 241 b 212 213 184 224 196 213 z m 177 41 b 216 66 193 41 206 50 b 231 121 227 83 231 102 b 196 172 231 148 220 172 b 157 146 180 172 168 163 b 142 90 147 130 142 111 b 177 41 142 63 153 41 z "},"@":{"ha":629,"x_min":0,"x_max":0,"o":"m 277 -212 b 484 -110 361 -212 431 -173 b 489 -97 487 -105 489 -101 b 469 -77 489 -86 480 -77 b 454 -85 464 -77 459 -80 b 277 -184 402 -151 343 -184 b 82 60 143 -184 82 -70 b 355 412 82 226 183 410 b 546 201 491 410 546 309 b 404 -24 544 56 460 -24 b 367 26 379 -24 367 -7 b 378 103 367 49 371 74 b 429 249 391 151 408 199 b 439 279 435 267 439 277 b 416 297 439 290 427 297 b 400 288 409 297 404 294 l 375 250 b 320 309 368 289 350 309 b 233 262 293 309 264 293 b 163 158 207 235 183 200 b 135 53 144 118 135 83 b 176 0 135 18 149 0 b 263 54 199 0 227 18 b 357 165 289 79 320 117 b 332 37 341 119 333 76 b 403 -53 332 -23 356 -53 b 574 197 474 -53 572 37 b 523 365 574 264 557 320 b 355 439 484 414 429 439 b 133 317 259 439 184 390 b 54 59 81 243 54 149 b 277 -212 54 -83 125 -212 z m 184 41 b 172 59 176 41 172 47 b 186 119 172 75 177 94 b 267 249 208 175 235 218 b 317 274 284 264 300 273 b 342 236 334 273 342 260 b 338 195 342 222 340 208 b 268 106 308 155 285 125 b 184 41 231 63 203 41 z "},"A":{"ha":1096,"x_min":0,"x_max":0,"o":"m 842 -218 b 930 -195 873 -218 902 -210 b 977 -146 962 -178 977 -161 b 955 -121 977 -132 968 -121 b 935 -130 949 -121 942 -124 b 832 -174 901 -159 867 -174 b 748 -50 776 -173 748 -132 b 862 372 748 57 786 198 b 902 419 876 388 889 404 b 927 378 902 386 913 378 b 955 408 941 378 954 389 l 955 431 l 956 484 b 1197 823 1064 617 1145 730 l 1199 827 b 1220 886 1213 850 1220 870 b 1193 913 1220 903 1211 912 b 1117 871 1171 913 1145 899 b 1000 713 1081 834 1042 781 b 955 637 983 684 968 659 b 937 787 953 693 947 743 b 876 917 924 842 904 885 b 740 972 842 954 796 972 b 484 885 656 972 571 943 b 252 665 402 830 325 757 b 71 378 181 575 121 479 b -31 92 22 277 -13 182 b -45 -30 -41 48 -45 7 b 98 -216 -45 -141 -1 -214 b 418 -60 179 -215 286 -163 b 795 297 535 31 661 150 b 715 -52 741 159 715 42 b 783 -205 715 -130 737 -181 b 842 -218 798 -214 819 -218 z m 956 569 b 1017 673 972 598 992 633 b 1098 789 1042 713 1069 752 b 1177 869 1126 825 1152 852 b 956 548 1139 792 1065 686 z m 104 -182 b 3 -36 33 -180 3 -124 b 53 208 3 31 20 112 b 188 492 86 303 132 397 b 383 747 247 591 312 676 b 616 908 460 825 538 879 b 740 931 658 924 699 931 b 844 890 783 931 818 918 b 907 671 883 848 904 774 l 908 615 b 907 547 908 592 907 569 b 840 408 884 504 863 458 b 104 -182 589 115 273 -182 z "},"B":{"ha":991,"x_min":0,"x_max":0,"o":"m 217 122 b 106 39 172 95 134 67 b 39 -100 61 -7 39 -54 b 194 -218 39 -181 102 -218 b 425 -172 259 -218 336 -203 b 678 -56 511 -143 596 -104 b 880 101 760 -8 827 45 b 962 270 935 161 962 217 b 893 376 962 315 939 350 b 709 414 846 401 785 414 b 402 354 621 414 518 394 b 625 498 499 414 573 463 b 844 661 715 560 788 614 b 1007 869 953 751 1007 821 b 960 948 1007 904 991 930 b 838 972 931 964 890 972 b 487 892 736 972 619 946 b 141 681 347 836 232 766 b -9 388 41 587 -9 490 b 3 318 -9 364 -5 340 b 101 220 20 271 53 238 b 113 218 105 218 109 218 b 138 242 128 218 138 229 b 116 267 138 254 130 262 b 23 393 54 290 23 332 l 23 395 b 263 734 23 522 123 638 b 838 940 448 860 695 940 b 966 875 908 939 966 920 b 833 698 963 830 919 771 b 549 493 764 640 669 571 b 357 374 507 465 444 426 b 419 486 376 410 397 448 b 577 715 473 578 526 654 b 703 811 631 779 673 811 b 737 793 718 811 730 805 b 756 781 742 785 749 781 b 782 807 769 781 781 791 b 777 825 782 812 780 819 b 720 859 763 848 744 859 b 355 449 626 859 473 665 b 300 339 336 412 317 376 b 279 326 294 334 287 330 b 201 262 234 299 201 286 b 224 244 201 250 209 244 b 245 250 231 244 237 246 b 265 258 252 252 259 255 b 238 187 255 235 246 211 b 217 122 230 165 223 143 z m 244 96 b 300 123 261 104 280 114 b 500 197 360 151 427 176 b 751 253 598 227 682 245 b 781 278 770 256 781 267 b 753 298 781 291 772 298 b 672 286 741 298 713 294 b 479 235 606 273 542 256 b 272 152 404 211 334 183 l 260 146 b 284 212 267 167 275 189 b 312 278 293 234 302 256 b 473 338 371 302 425 322 b 709 380 564 366 642 380 b 899 330 798 380 861 363 b 928 266 918 311 928 290 b 791 66 928 203 883 137 b 486 -106 706 -1 604 -58 b 191 -177 368 -153 269 -177 b 73 -100 112 -177 73 -151 b 139 23 73 -58 95 -17 b 204 71 157 39 179 56 b 203 68 203 71 203 69 b 191 -33 195 31 191 -3 b 205 -105 191 -62 195 -85 b 267 -140 217 -129 238 -140 b 315 -128 283 -140 298 -136 b 331 -105 326 -121 331 -114 b 311 -83 331 -92 322 -83 b 297 -87 307 -83 302 -84 b 266 -96 286 -93 276 -96 b 233 -68 250 -96 239 -87 b 226 -21 228 -56 226 -40 b 244 96 226 12 232 50 z "},"C":{"ha":801,"x_min":0,"x_max":0,"o":"m 140 -218 b 735 139 279 -218 478 -99 b 745 159 742 146 745 153 b 720 183 745 170 732 183 b 702 174 714 183 708 180 b 558 43 652 125 604 81 b 140 -184 382 -109 242 -184 b 25 -137 88 -184 50 -168 b -11 -16 1 -108 -11 -68 b 46 231 -11 52 8 134 b 192 511 81 321 130 415 b 393 761 254 606 321 690 b 615 917 469 836 543 888 b 722 939 652 932 688 939 b 808 853 779 939 808 911 b 764 675 808 812 793 752 b 748 619 753 646 748 627 b 772 594 748 603 761 594 b 804 640 791 594 796 612 b 844 842 821 693 844 775 b 722 973 844 928 803 971 b 281 690 579 970 420 854 b -47 -18 96 471 -47 175 b -2 -162 -47 -80 -32 -128 b 140 -218 30 -199 77 -218 z "},"D":{"ha":1045,"x_min":0,"x_max":0,"o":"m 142 -218 b 1113 724 540 -218 1113 376 b 1035 903 1113 800 1087 860 b 771 972 978 949 890 972 b 36 628 455 972 36 787 b 68 572 36 603 47 585 b 148 550 86 562 113 555 l 198 545 b 334 521 258 540 303 532 b 420 437 378 505 408 477 l 376 347 b 117 149 271 284 185 218 b -6 -99 35 64 -6 -18 b 39 -193 -5 -143 10 -175 b 142 -218 64 -210 98 -218 z m 143 -184 b 98 -180 125 -184 111 -182 b 37 -140 68 -176 47 -162 b 27 -96 31 -128 27 -114 b 94 73 27 -41 50 16 b 342 279 149 144 232 212 b 214 -56 277 142 234 31 b 208 -102 210 -75 208 -90 b 229 -130 208 -121 215 -130 b 288 -79 243 -130 263 -113 b 422 197 340 -5 385 87 b 460 345 441 250 454 300 b 553 392 494 363 526 379 b 570 416 564 398 570 406 b 550 438 570 427 563 438 b 463 397 543 438 513 425 b 459 428 462 408 461 418 b 661 803 514 534 582 659 b 698 873 686 847 698 871 b 674 895 698 885 688 895 b 654 880 667 895 660 890 b 441 479 580 747 509 614 b 380 538 426 505 406 524 b 207 580 338 559 281 573 b 96 606 150 586 113 595 b 80 636 85 612 80 623 b 125 717 81 663 96 689 b 403 866 182 772 275 822 b 772 933 534 911 657 933 b 1008 873 878 933 956 913 b 1080 718 1056 836 1080 785 b 986 442 1080 640 1048 548 b 752 149 926 340 848 243 b 448 -85 655 52 553 -26 b 143 -184 336 -149 235 -182 z m 248 -64 b 401 313 273 50 342 196 l 420 324 b 260 -67 395 197 313 23 b 241 -94 250 -85 243 -94 z "},"E":{"ha":970,"x_min":0,"x_max":0,"o":"m 249 -224 b 552 -123 325 -223 426 -189 b 894 81 634 -81 748 -13 b 913 109 907 90 913 99 b 890 130 913 123 905 130 b 866 121 884 130 876 127 b 786 70 842 106 815 90 b 510 -100 675 -4 583 -60 b 249 -190 401 -159 313 -189 b 136 -121 190 -189 153 -166 b 123 -43 127 -100 123 -73 b 198 238 123 41 149 134 b 332 265 241 246 286 255 b 583 305 452 292 536 305 b 628 301 600 305 614 304 l 635 300 b 660 323 652 300 660 311 b 634 350 660 337 651 347 b 590 353 621 352 606 353 b 465 338 555 353 513 348 b 333 306 422 328 378 317 b 218 278 294 296 256 287 b 505 688 286 404 380 541 b 654 862 587 787 637 845 b 663 881 660 868 663 875 b 640 901 663 892 653 901 b 467 711 629 901 571 838 b 173 269 336 551 237 404 b 66 258 134 262 98 258 b -5 297 20 258 -4 271 b 92 457 -3 341 29 394 b 176 537 119 484 147 511 b 264 623 216 574 245 604 b 302 690 289 651 302 673 b 279 737 302 707 294 723 b 237 767 268 747 254 757 b 212 787 220 777 212 783 b 313 859 212 810 245 833 b 546 917 376 882 453 901 b 808 940 638 932 726 940 b 1009 908 901 940 968 929 b 1046 863 1031 897 1044 882 b 1069 838 1048 846 1055 838 b 1099 872 1084 838 1099 850 b 953 962 1095 918 1046 948 b 808 972 909 969 861 972 b 565 954 730 972 648 966 b 340 903 481 941 406 924 b 199 829 274 881 227 857 b 178 787 185 816 178 802 b 227 734 178 764 203 748 b 268 690 248 720 268 708 b 219 624 268 677 252 656 l 170 576 b 35 441 113 526 68 481 b -35 297 -11 387 -34 338 b 66 224 -34 249 0 224 b 156 231 95 224 125 227 b 90 -48 112 132 90 38 b 123 -170 90 -99 101 -140 b 249 -224 149 -205 191 -223 z "},"F":{"ha":1071,"x_min":0,"x_max":0,"o":"m 252 -218 b 271 -195 262 -218 269 -210 b 355 236 288 -45 316 98 b 482 273 399 249 441 261 b 685 308 569 296 637 308 b 753 297 710 308 733 304 b 767 294 758 295 763 294 b 788 314 781 294 788 304 b 765 340 788 326 781 334 b 681 352 743 348 714 352 b 368 278 589 352 477 316 b 626 858 428 476 514 669 b 630 871 629 863 630 867 b 608 894 630 884 621 894 b 586 879 600 894 592 889 b 323 264 470 683 382 478 b 152 215 254 240 196 224 b 78 207 125 210 100 207 b 22 243 45 207 22 219 b 66 322 22 262 37 288 b 161 420 87 347 119 379 b 287 555 222 477 264 522 b 309 610 301 575 308 593 b 211 696 307 663 257 682 b 144 743 174 707 145 719 b 290 864 147 791 202 831 b 789 939 420 911 617 939 b 1146 824 983 939 1146 903 b 1133 798 1146 817 1142 808 b 1125 780 1128 792 1125 786 b 1126 772 1125 778 1126 775 b 1152 755 1131 761 1140 755 b 1189 790 1166 755 1179 766 b 1195 821 1193 800 1195 810 b 785 972 1195 924 1005 972 b 517 951 698 972 608 966 b 279 892 425 937 347 918 b 132 798 208 865 159 834 b 111 741 117 780 111 761 b 170 675 111 707 138 689 b 275 610 212 658 275 647 b 213 517 274 591 253 559 b 153 458 195 498 174 479 b 44 344 104 410 68 372 b -8 243 9 302 -8 269 b 78 177 -8 199 20 177 b 313 224 142 177 225 198 b 237 -193 279 90 254 -48 l 237 -197 b 252 -218 237 -211 241 -218 z "},"G":{"ha":870,"x_min":0,"x_max":0,"o":"m 349 -294 b 408 -263 366 -294 386 -283 b 633 12 484 -193 559 -102 b 720 161 667 64 696 114 b 813 193 757 182 788 193 b 825 193 817 193 821 193 l 829 192 b 854 216 844 192 854 203 b 817 239 854 231 842 239 b 750 222 797 239 774 233 b 789 366 776 280 789 328 b 741 437 789 404 773 427 l 742 441 b 777 592 742 480 758 532 b 822 809 799 663 821 741 b 652 972 822 922 753 972 b -9 223 258 972 -9 486 b 113 58 -9 123 31 58 b 399 200 200 58 302 125 b 708 402 519 294 635 402 b 751 355 736 402 751 387 b 698 195 751 317 733 263 b 494 16 632 153 564 93 b 347 -189 427 -60 378 -127 b 325 -262 332 -220 325 -244 b 349 -294 325 -286 336 -294 z m 361 -263 b 358 -258 359 -263 358 -262 b 453 -90 358 -225 390 -169 b 654 115 516 -10 583 58 b 570 -16 636 84 608 41 b 450 -182 526 -81 486 -136 b 361 -263 406 -236 376 -263 z m 125 92 b 36 227 63 92 36 146 b 116 522 36 311 62 409 b 332 814 171 639 243 736 b 644 943 428 900 532 943 b 723 926 674 943 701 937 b 789 800 767 903 789 861 b 759 652 789 759 779 709 b 732 577 750 626 741 601 b 699 477 715 533 705 500 b 693 438 695 463 693 450 b 533 350 652 430 599 401 b 441 277 503 327 473 302 b 309 173 380 226 336 191 b 125 92 234 119 172 92 z "},"H":{"ha":1194,"x_min":0,"x_max":0,"o":"m 54 283 b 187 339 91 317 138 339 b 245 327 210 339 229 335 b 54 283 181 313 117 298 z m 979 -218 b 1004 -195 992 -218 1004 -209 l 1004 -193 b 998 -13 1000 -135 998 -75 b 1036 398 998 125 1010 262 b 1124 399 1065 399 1095 399 l 1183 399 b 1213 422 1203 399 1213 406 b 1184 444 1213 433 1203 443 l 1138 444 b 1046 442 1107 444 1077 444 b 1179 800 1076 582 1121 701 b 1282 935 1208 851 1243 896 b 1289 951 1286 940 1289 945 b 1267 972 1289 963 1280 972 b 1245 961 1259 972 1252 968 b 1011 441 1143 844 1065 671 b 546 386 867 433 712 415 b 593 751 578 531 593 652 b 468 972 593 886 561 972 b 305 913 417 972 363 953 b 153 768 252 876 201 827 b 39 594 106 711 68 653 b -5 444 10 534 -5 484 b 59 375 -5 406 17 375 b 130 413 111 375 130 397 b 109 433 130 424 122 433 b 60 424 100 433 82 424 b 33 459 42 425 33 437 b 74 583 33 488 47 530 b 178 742 99 633 134 686 b 319 880 222 798 269 844 b 468 939 372 919 422 939 b 558 762 528 939 558 880 b 503 378 558 667 540 539 b 294 337 433 366 363 352 b 187 376 264 363 229 376 b -8 264 115 376 42 332 b -11 254 -10 260 -11 258 b -4 240 -11 248 -9 243 b 6 237 -1 238 3 237 l 11 237 b 281 300 100 260 191 280 b 324 220 300 279 314 252 b 347 35 344 155 347 88 b 338 -104 347 -5 345 -52 b 327 -185 335 -137 331 -164 l 326 -193 b 352 -218 326 -210 339 -218 b 382 -196 366 -218 376 -210 b 478 115 408 -123 441 -20 b 538 349 499 189 519 267 b 1002 397 695 376 850 392 b 951 -77 968 238 951 80 b 955 -195 951 -119 953 -158 b 979 -218 957 -210 965 -218 z m 383 -56 b 385 29 385 -31 385 -3 b 319 308 384 124 370 236 b 495 342 378 321 437 332 b 383 -56 458 191 421 59 z "},"I":{"ha":791,"x_min":0,"x_max":0,"o":"m 577 -218 b 602 -189 590 -218 602 -208 b 510 -129 598 -162 568 -142 b 305 -111 454 -117 385 -111 b 235 -113 282 -111 259 -111 b 233 -56 234 -96 233 -77 b 255 158 233 10 241 81 b 316 397 269 237 290 317 b 360 464 319 399 334 422 b 415 614 397 522 415 572 b 413 640 415 623 414 632 b 566 873 463 741 513 819 b 579 867 569 869 574 867 b 604 897 597 867 604 882 b 574 928 604 912 593 928 b 551 918 566 928 558 924 b 397 691 497 866 446 791 b 275 783 370 737 323 765 b 132 840 200 809 134 817 b 244 899 133 865 170 884 b 484 928 310 913 390 922 b 767 936 581 933 675 936 b 901 934 827 936 871 935 b 932 952 922 934 932 942 b 903 971 932 961 922 970 b 766 972 871 972 826 972 b 439 961 641 972 532 968 b 117 877 269 946 161 918 b 98 836 104 865 98 851 b 130 795 98 819 109 806 b 204 768 146 787 171 778 b 275 745 228 762 252 753 b 376 650 330 724 363 692 b 194 -69 278 441 197 155 b 195 -115 194 -85 195 -100 b -77 -164 82 -125 -8 -141 b -104 -195 -96 -170 -104 -184 b -87 -213 -104 -207 -99 -213 b -70 -197 -77 -213 -71 -208 b 198 -149 -4 -174 85 -158 b 214 -209 203 -184 208 -205 b 224 -213 217 -212 220 -213 b 248 -191 238 -213 248 -204 l 247 -184 b 239 -146 243 -172 241 -159 b 305 -144 262 -145 283 -144 b 406 -150 337 -144 370 -146 b 553 -200 494 -159 543 -176 b 577 -218 559 -212 567 -218 z "},"J":{"ha":920,"x_min":0,"x_max":0,"o":"m 87 -218 b 283 -134 143 -218 208 -190 b 496 70 350 -85 421 -16 b 692 326 564 148 629 233 b 838 568 751 414 800 494 b 880 663 856 604 870 635 b 1014 707 930 682 975 696 b 1034 731 1027 711 1034 719 b 1012 752 1034 745 1027 751 b 1000 751 1008 752 1004 751 b 899 718 969 743 936 732 b 915 817 909 753 915 787 b 867 929 915 865 899 903 b 708 972 833 958 781 972 b 20 566 444 972 20 739 b 44 496 20 541 28 518 b 67 483 51 487 58 483 b 90 503 79 483 90 491 b 83 520 90 507 88 513 b 68 566 73 535 68 550 b 179 732 69 616 106 672 b 432 878 249 789 333 838 b 705 941 534 920 625 940 b 842 901 768 940 814 927 b 882 798 869 877 882 843 b 865 705 882 770 876 739 b 585 564 776 669 682 622 b 301 367 481 503 386 437 b 81 135 208 290 134 212 b -7 -109 22 50 -7 -32 b 87 -218 -7 -180 29 -218 z m 86 -184 b 26 -109 46 -184 26 -159 b 107 121 26 -35 53 41 b 310 334 156 192 224 263 b 576 515 389 398 477 458 b 845 648 667 568 756 612 b 86 -184 760 439 306 -184 z "},"K":{"ha":1315,"x_min":0,"x_max":0,"o":"m 281 -218 b 311 -189 297 -217 311 -205 b 304 -168 311 -182 309 -176 b 288 -100 293 -150 288 -127 b 316 45 288 -58 297 -10 b 481 408 348 138 403 259 b 527 412 498 411 513 412 b 687 197 638 412 663 305 b 896 -57 714 72 744 -57 b 1044 -19 940 -57 989 -44 b 1252 108 1112 12 1181 54 b 1270 139 1264 118 1270 128 b 1250 160 1270 153 1263 160 b 1206 136 1241 160 1226 152 b 1088 52 1164 103 1124 75 b 896 -23 1012 2 948 -23 b 787 24 849 -23 813 -7 b 734 136 766 49 748 87 b 718 203 728 158 722 180 b 665 363 702 275 684 328 b 536 446 637 412 595 439 l 576 469 b 1163 782 823 620 1018 724 b 1337 826 1238 811 1296 826 b 1383 816 1356 826 1372 823 b 1403 810 1391 812 1397 810 b 1430 838 1419 810 1430 821 b 1419 858 1430 845 1426 852 b 1372 870 1407 866 1392 870 b 927 703 1293 870 1144 814 b 513 471 785 629 647 552 b 636 719 572 584 612 667 b 690 895 672 799 690 858 b 601 972 690 947 660 972 b 410 918 551 972 488 954 b 202 804 351 890 281 852 l 72 722 b 47 688 55 711 47 699 b 65 671 47 676 53 671 b 96 682 75 671 85 674 b 163 726 116 694 138 709 b 340 838 239 775 298 812 b 600 939 456 905 542 939 b 655 892 633 939 655 928 b 601 721 655 857 637 800 b 476 474 578 673 537 591 b 456 437 469 462 463 450 b 212 311 378 416 297 374 b 115 224 174 282 141 254 b 107 208 110 218 107 213 b 123 193 107 198 113 193 b 139 199 127 193 133 195 b 426 379 185 231 281 290 b 294 102 367 267 323 174 b 235 -125 254 6 235 -70 b 239 -168 235 -140 236 -155 b 279 -218 245 -193 260 -218 z "},"L":{"ha":796,"x_min":0,"x_max":0,"o":"m 88 -218 b 500 -37 173 -218 310 -157 b 711 104 544 -9 614 38 b 791 159 740 125 767 143 b 818 194 809 171 818 182 b 798 212 818 205 811 212 b 766 199 789 212 779 208 b 663 127 735 178 701 154 b 464 -11 589 74 523 28 b 88 -184 291 -126 165 -184 b -20 -60 7 -184 -20 -136 b 79 287 -19 24 14 140 b 283 671 133 410 201 537 b 453 912 356 791 413 871 b 463 910 456 911 459 910 b 489 945 477 910 489 929 b 463 972 488 963 477 972 b 440 964 454 972 447 970 b 321 806 412 936 372 884 b 157 529 266 722 211 629 b 11 214 97 418 48 313 b -52 -60 -31 102 -52 10 b 88 -218 -52 -165 -5 -218 z "},"M":{"ha":1163,"x_min":0,"x_max":0,"o":"m 945 -218 b 970 -186 958 -218 970 -207 b 968 -169 970 -181 969 -175 b 962 -114 964 -153 962 -134 b 1005 113 962 -58 976 18 b 1100 385 1023 174 1055 264 b 1206 703 1154 530 1189 635 b 1224 827 1218 750 1224 791 b 1145 922 1224 890 1198 922 b 810 526 1055 921 943 789 b 669 222 769 445 722 344 b 694 338 675 246 683 285 b 732 639 718 448 730 549 b 711 787 732 703 726 752 b 630 848 695 827 668 848 b 394 665 553 848 469 774 b 410 826 404 726 410 781 b 328 972 410 924 382 972 b 55 477 174 972 55 656 b 73 396 55 433 61 406 b 87 391 77 393 82 391 b 111 419 100 391 111 400 b 109 432 111 423 110 427 b 102 498 104 450 102 473 b 142 724 102 563 116 645 b 327 941 180 840 244 939 b 379 839 361 941 379 907 b 342 584 379 774 367 689 b 211 312 293 499 250 409 b 119 38 172 215 141 124 b 83 -171 96 -49 84 -118 b 92 -211 83 -192 86 -205 b 106 -218 96 -216 100 -218 b 134 -193 119 -218 128 -210 b 236 90 159 -132 193 -38 l 241 104 b 378 582 302 281 347 441 b 625 814 466 737 548 814 b 682 770 651 814 671 800 b 697 666 692 744 697 709 b 678 465 697 607 691 540 b 600 109 659 351 633 233 b 586 49 591 73 586 53 b 610 27 586 35 597 27 b 635 45 621 27 630 33 l 678 143 b 814 450 730 267 775 369 b 1144 888 951 741 1062 887 b 1190 825 1175 888 1190 867 b 1152 650 1190 785 1177 727 b 1064 410 1137 606 1108 526 b 957 113 1015 280 979 182 b 907 -134 924 9 907 -73 b 926 -210 907 -175 913 -200 b 945 -218 932 -215 938 -218 z m 133 -101 b 306 438 144 -6 213 230 b 201 96 271 311 236 197 b 133 -101 178 28 155 -38 z "},"N":{"ha":1040,"x_min":0,"x_max":0,"o":"m 807 -218 b 835 -193 818 -218 830 -209 b 896 39 852 -121 873 -44 b 999 452 943 212 978 349 b 1033 709 1021 562 1033 647 b 915 896 1033 830 994 892 l 913 896 b 774 854 870 896 824 882 b 460 562 673 797 563 692 b 518 865 498 694 517 795 b 455 972 518 937 497 972 b 317 907 418 972 372 951 b 161 751 267 867 215 815 b 35 567 111 690 69 629 b -18 422 -1 505 -18 456 b 43 358 -18 388 -2 358 b 130 380 66 358 96 366 b 151 408 144 386 151 395 b 132 427 151 420 144 427 b 111 421 125 427 118 425 b 47 402 83 408 62 402 b 21 432 30 402 21 412 b 449 939 24 555 323 939 b 487 871 474 939 487 916 b 393 473 487 791 456 659 b 159 28 284 319 206 171 b 123 -176 136 -46 123 -114 b 147 -218 123 -208 136 -218 b 180 -188 161 -218 172 -208 b 429 459 283 49 366 264 b 669 744 508 577 589 672 b 904 861 758 822 836 861 b 999 712 967 861 999 811 b 965 471 999 653 987 572 b 863 93 945 379 911 253 b 785 -193 811 -84 785 -180 b 807 -218 785 -210 793 -218 z m 173 -108 b 336 309 191 8 245 146 b 173 -108 295 197 241 58 z "},"O":{"ha":877,"x_min":0,"x_max":0,"o":"m 265 -218 b 496 -132 340 -218 418 -189 b 699 82 569 -79 637 -8 b 844 361 760 169 808 262 b 899 646 880 463 899 557 b 730 933 899 778 849 888 b 770 937 743 935 757 937 b 846 884 806 937 838 917 b 870 865 849 871 857 865 b 899 892 884 865 898 875 l 898 899 b 774 972 886 949 830 972 b 655 950 734 972 695 965 b 610 953 641 952 626 953 b 264 808 490 953 375 905 b 37 478 161 718 81 601 b 2 290 14 414 2 352 b 60 92 2 215 22 149 b 56 23 58 68 56 45 b 265 -218 56 -111 114 -218 z m 265 -184 b 90 24 133 -184 90 -90 l 91 55 b 149 14 117 28 136 14 b 172 37 162 14 172 24 b 159 60 172 46 168 54 b 100 123 136 79 115 100 b 662 915 151 415 406 818 b 817 823 732 904 783 873 b 865 642 849 777 865 716 b 812 376 865 562 847 473 b 674 108 778 281 732 192 b 481 -100 615 21 551 -48 b 265 -184 408 -156 335 -184 z m 74 168 b 45 305 55 210 45 255 b 155 631 45 412 87 528 b 586 918 258 787 418 907 b 264 597 469 853 362 746 b 74 168 169 454 106 311 z "},"P":{"ha":956,"x_min":0,"x_max":0,"o":"m 233 -218 b 263 -187 245 -218 255 -208 b 404 237 329 -2 376 140 b 590 159 463 185 525 159 b 732 194 641 159 688 171 b 937 414 814 237 883 311 b 1015 705 988 512 1015 609 b 836 934 1015 836 962 931 b 497 677 713 932 595 829 b 500 751 499 701 500 725 b 359 972 500 899 453 972 b 239 924 320 972 280 956 b 51 675 176 874 114 791 b 16 597 27 631 16 605 b 37 572 16 581 26 572 b 66 595 49 572 59 579 b 155 762 98 662 128 718 b 285 913 198 833 241 883 b 359 939 309 930 334 938 b 464 760 429 939 464 879 b 450 600 464 712 459 659 b 324 326 401 513 359 422 b 241 47 288 229 260 136 b 211 -180 221 -42 211 -118 b 233 -218 211 -205 218 -218 z m 594 191 b 418 285 530 191 471 222 b 487 595 451 404 474 507 b 707 861 555 722 629 811 b 833 900 748 887 790 900 b 920 873 869 900 898 891 b 983 703 962 838 983 782 b 594 191 983 494 822 191 z m 262 -73 b 318 176 271 -3 290 79 b 425 468 346 272 381 370 b 387 317 413 417 400 367 l 381 319 b 359 296 370 318 359 309 b 373 269 359 287 363 278 b 262 -73 340 154 302 40 z "},"Q":{"ha":946,"x_min":0,"x_max":0,"o":"m 870 -294 b 895 -271 883 -294 895 -284 b 863 -229 895 -258 884 -243 b 545 -134 789 -181 683 -150 b 918 433 712 -13 857 214 b 950 646 939 508 950 579 b 782 933 950 779 901 888 b 822 937 795 935 809 937 b 898 884 858 937 890 917 b 922 865 901 871 909 865 b 951 892 936 865 950 875 b 949 899 951 894 950 897 b 826 972 939 949 882 972 b 707 950 786 972 747 965 b 662 953 692 952 677 953 b 316 808 538 953 418 897 b 54 295 163 674 56 474 b 113 92 54 218 73 150 b 109 31 110 71 109 51 b 153 -142 109 -43 122 -99 b -77 -225 55 -159 -22 -186 b -94 -252 -88 -234 -94 -243 b -65 -278 -94 -269 -79 -278 b -43 -259 -54 -278 -43 -272 b -47 -250 -43 -256 -45 -253 b 180 -173 12 -212 87 -187 b 317 -218 214 -203 260 -218 b 496 -165 375 -218 435 -200 b 846 -274 647 -182 764 -218 b 870 -294 849 -287 857 -294 z m 191 -136 b 142 24 156 -98 142 -41 b 143 55 142 35 142 45 b 200 14 169 28 188 14 b 224 37 214 14 224 24 b 211 60 224 46 220 54 b 151 123 187 79 167 100 b 298 500 172 240 224 373 b 713 915 407 689 560 857 b 869 823 783 904 835 873 b 917 642 901 777 917 716 b 491 -129 917 382 718 10 b 372 -125 451 -126 412 -125 b 191 -136 310 -125 250 -129 z m 317 -184 b 231 -166 283 -183 254 -178 b 363 -159 275 -161 319 -159 b 429 -161 385 -159 406 -159 b 317 -184 391 -176 354 -184 z m 125 168 b 97 305 106 210 97 255 b 207 631 97 412 138 528 b 637 918 310 787 470 907 b 315 597 522 853 414 746 b 125 168 221 454 157 311 z "},"R":{"ha":1128,"x_min":0,"x_max":0,"o":"m 285 -218 b 308 -197 296 -218 304 -211 b 420 122 360 -50 397 56 b 526 -12 458 67 494 22 b 655 -124 571 -61 614 -98 b 803 -170 704 -155 753 -170 b 956 -123 854 -170 905 -155 b 1086 -9 1001 -95 1044 -57 b 1098 19 1094 0 1098 9 b 1078 39 1098 32 1091 39 b 1051 24 1069 39 1061 34 b 799 -134 960 -81 876 -134 b 530 32 713 -134 624 -79 b 433 161 504 63 471 106 l 439 179 b 867 332 607 188 752 246 b 1140 763 1038 458 1140 635 b 1103 875 1140 810 1128 848 b 983 918 1076 903 1036 918 b 791 854 918 918 854 897 b 547 600 708 800 627 714 b 565 796 559 669 565 734 b 541 926 565 851 557 895 b 453 978 522 960 493 978 b 286 924 402 978 347 960 b 77 741 212 880 142 819 b 62 707 67 728 62 716 b 87 680 62 688 74 680 b 111 703 100 680 111 686 l 111 708 b 205 810 138 743 170 777 b 326 903 245 848 286 880 b 453 944 372 930 414 944 b 532 797 506 944 532 895 b 490 509 532 723 517 627 b 300 48 404 364 340 210 b 265 -194 279 -34 268 -115 b 285 -218 265 -211 275 -218 z m 314 -68 b 376 185 327 18 348 102 l 392 162 b 321 -50 360 64 336 -7 z m 389 220 b 456 375 408 273 431 324 b 410 220 441 321 426 269 z m 452 222 b 530 511 484 319 509 415 b 659 690 571 578 614 637 b 812 828 710 749 761 795 b 983 884 870 865 927 884 b 1105 765 1066 884 1105 836 b 989 503 1105 692 1064 595 b 452 222 876 363 688 239 z "},"S":{"ha":828,"x_min":0,"x_max":0,"o":"m 136 -218 b 567 114 289 -218 567 -57 b 546 195 567 143 560 170 b 633 232 575 208 604 220 b 665 267 654 241 665 256 b 643 282 665 277 658 282 b 518 233 631 282 589 266 b 261 382 458 298 357 343 b 39 551 144 432 39 477 b 114 684 39 593 64 637 b 296 809 159 728 220 769 b 525 901 368 848 445 878 b 741 937 607 925 679 937 b 895 839 844 937 895 905 b 861 714 895 807 884 765 b 823 637 850 692 838 666 b 819 621 821 631 819 626 b 842 596 819 604 829 596 b 869 615 853 596 862 602 b 934 832 912 704 934 777 b 891 932 934 875 920 909 b 741 972 859 959 809 972 b 509 934 673 972 597 960 b 267 834 426 909 345 876 b 75 699 187 792 123 747 b -3 551 23 646 -3 597 b 245 347 -3 454 120 399 b 477 214 335 309 425 270 b 120 -20 309 135 190 56 b 58 -150 79 -66 58 -109 b 136 -218 58 -195 94 -218 z m 136 -184 b 92 -150 114 -184 92 -176 b 153 -36 92 -114 112 -76 b 505 177 220 31 338 102 b 522 109 516 156 522 133 b 136 -184 522 -39 262 -184 z "},"T":{"ha":1073,"x_min":0,"x_max":0,"o":"m 261 -218 b 289 -193 273 -218 281 -210 l 364 5 b 453 375 414 145 444 269 b 603 691 500 478 549 583 l 635 756 b 646 749 638 751 642 749 b 664 771 656 749 664 758 b 640 814 664 799 653 814 b 599 775 625 814 612 801 l 566 708 b 453 473 530 637 493 558 b 144 806 441 623 357 748 b 433 874 230 833 326 856 b 762 915 540 892 650 906 b 1076 928 873 924 979 928 b 1180 926 1112 928 1147 928 b 1213 949 1202 926 1213 937 b 1181 972 1213 960 1203 971 b 1112 972 1159 972 1136 972 b 574 934 945 972 766 960 b 77 821 370 906 204 868 b 60 801 66 816 60 809 b 80 784 60 793 66 787 b 349 646 203 758 293 712 b 423 420 398 586 423 511 l 423 408 b 241 -186 311 165 251 -33 b 261 -218 241 -207 248 -218 z m 294 -63 b 404 260 317 31 353 139 b 294 -63 383 172 347 64 z "},"U":{"ha":957,"x_min":0,"x_max":0,"o":"m 820 496 b 969 888 868 679 918 809 b 1015 930 989 916 1004 929 b 1026 909 1023 930 1026 923 b 945 703 1025 867 998 798 b 820 496 906 631 864 562 z m 136 -218 b 311 -141 183 -218 241 -192 b 522 52 376 -94 447 -29 b 735 311 596 132 667 218 b 704 18 725 263 704 133 b 802 -195 704 -94 726 -195 b 868 -168 825 -195 848 -186 b 884 -136 879 -159 884 -148 b 860 -111 884 -121 873 -111 b 838 -120 852 -111 844 -114 b 800 -138 824 -132 811 -138 b 757 -97 780 -138 766 -124 b 744 4 748 -72 744 -39 b 779 309 745 87 756 189 b 796 396 787 353 793 382 b 924 596 837 454 880 521 b 1048 838 981 690 1023 771 b 1069 931 1063 876 1069 906 b 1032 972 1069 959 1057 972 b 945 907 1006 972 977 951 b 841 692 909 854 874 783 b 753 401 807 602 778 505 b 425 10 646 250 536 119 b 140 -168 304 -107 210 -166 b 23 20 56 -168 23 -88 b 42 198 23 73 29 132 b 157 580 66 323 104 450 b 313 860 211 709 262 802 b 383 903 338 888 362 903 b 405 884 392 903 399 897 b 427 869 408 874 416 869 b 458 898 441 869 457 880 b 455 911 458 902 457 907 b 397 960 441 943 418 960 b 263 862 357 960 313 927 b 130 621 218 802 173 722 b 28 315 89 526 54 423 b -12 24 1 208 -12 111 b 22 -149 -12 -51 -1 -109 b 136 -218 47 -195 85 -218 z "},"V":{"ha":930,"x_min":0,"x_max":0,"o":"m 353 -218 b 638 84 425 -218 519 -117 b 788 366 683 161 733 254 b 977 772 843 478 905 613 b 1050 932 1008 843 1033 896 b 1054 947 1053 938 1054 943 b 1029 972 1054 963 1042 972 b 1003 955 1018 972 1009 966 b 918 766 984 916 956 854 b 741 370 840 587 781 454 b 536 -13 664 208 595 81 b 359 -184 463 -126 404 -183 b 305 -150 335 -183 317 -172 b 283 -73 292 -127 285 -102 b 279 8 280 -43 279 -16 b 295 237 279 68 284 144 b 317 412 302 294 309 353 b 349 686 332 532 343 623 b 354 802 352 728 354 767 b 283 972 354 906 337 972 b 197 926 258 972 229 957 b 119 826 172 901 145 867 b 71 734 96 791 80 760 b 68 719 68 728 68 724 b 90 695 68 705 77 695 b 121 725 103 695 114 705 b 158 802 129 745 141 770 b 218 895 178 840 198 871 b 283 939 243 924 264 939 b 323 835 310 939 323 904 b 288 494 323 774 312 661 b 257 245 273 378 262 295 b 243 31 248 163 243 92 b 250 -78 243 -9 245 -45 b 302 -200 258 -137 275 -178 b 353 -218 316 -212 333 -218 z "},"W":{"ha":1125,"x_min":0,"x_max":0,"o":"m 745 -218 b 1173 939 979 -218 1173 750 b 1148 972 1173 961 1160 972 b 1124 958 1138 972 1130 968 b 1120 939 1122 953 1120 947 b 1104 780 1120 905 1115 852 b 1059 527 1091 696 1076 612 b 903 -6 1011 301 959 123 b 804 -162 871 -81 838 -133 b 750 -184 786 -177 768 -184 b 626 57 686 -184 645 -104 b 614 340 618 128 614 223 b 615 508 614 408 614 464 b 616 627 616 552 616 591 b 572 749 616 740 597 749 b 496 673 552 749 526 724 b 401 489 471 633 439 572 l 349 378 b 252 172 315 302 283 234 b 159 11 216 100 185 45 b 78 -55 127 -33 100 -55 b 45 71 56 -55 45 -13 b 78 361 45 155 56 252 b 174 677 100 479 133 585 b 334 881 220 779 273 848 b 353 907 347 888 353 897 b 330 929 353 918 344 928 b 307 922 323 929 315 927 b 125 667 235 882 174 788 b 9 97 53 487 9 254 b 77 -89 9 -19 31 -89 b 182 -10 107 -89 142 -62 b 292 176 214 33 251 96 b 399 400 323 236 359 311 b 492 595 444 498 475 564 b 557 677 522 650 543 677 b 571 659 564 677 568 671 b 580 532 576 637 579 595 b 581 386 581 503 581 454 b 583 223 581 327 581 273 b 602 11 585 143 591 73 b 745 -218 625 -142 673 -218 z "},"X":{"ha":1025,"x_min":0,"x_max":0,"o":"m 551 -218 b 859 -52 652 -218 755 -162 b 1023 161 907 1 962 72 b 1036 193 1031 173 1036 184 b 1015 218 1036 208 1027 218 b 979 192 1003 218 991 209 b 890 64 940 136 911 93 b 739 -106 840 -7 789 -64 b 549 -184 677 -158 614 -184 b 334 -31 462 -182 390 -131 b 227 315 288 55 252 170 b 849 916 414 573 654 810 b 823 841 832 889 823 865 b 855 786 823 804 834 786 b 889 823 871 786 887 800 b 886 849 889 831 886 840 b 905 911 886 867 892 888 b 925 947 916 932 922 945 b 926 953 926 949 926 951 b 922 962 926 956 925 959 b 897 973 916 969 907 973 b 887 971 893 973 890 972 b 669 838 819 943 746 898 b 439 623 593 777 515 705 b 219 363 361 541 288 455 b 186 738 202 484 191 608 b 182 897 183 816 182 869 b 201 918 193 897 201 907 b 168 949 201 937 183 949 b 138 931 155 949 144 943 b 132 905 134 924 132 915 b 184 317 137 682 155 486 b -91 -177 50 130 -42 -34 b -94 -194 -93 -183 -94 -189 b -76 -218 -94 -210 -86 -218 b -47 -187 -64 -218 -55 -208 b 194 269 -3 -50 77 102 b 382 -149 237 68 299 -72 b 551 -218 431 -195 488 -218 z "},"Y":{"ha":847,"x_min":0,"x_max":0,"o":"m 395 -218 b 498 -118 417 -218 452 -184 b 645 125 541 -58 590 23 b 794 433 696 222 746 325 b 814 427 800 431 807 427 b 844 456 830 427 842 440 b 827 482 844 467 838 475 l 817 486 b 903 717 852 568 882 648 b 929 811 914 751 923 783 b 939 893 941 868 939 888 b 903 951 939 932 926 951 b 805 869 884 951 851 924 b 653 673 772 831 722 766 b 476 446 584 581 525 505 b 298 254 408 362 349 298 b 142 175 236 201 184 175 b 58 298 82 175 58 225 b 110 562 58 375 75 463 b 222 800 142 654 179 733 b 337 903 268 868 306 903 b 359 884 347 903 354 897 b 380 869 362 874 370 869 b 412 898 395 869 411 880 b 409 911 412 902 411 907 b 351 960 395 943 372 960 b 225 871 313 960 271 930 b 108 661 184 819 144 749 b 33 412 73 578 48 495 b 22 292 26 370 22 330 b 49 176 22 244 31 205 b 134 129 68 144 96 129 b 299 211 180 129 235 156 b 486 407 354 258 416 323 b 672 644 534 465 595 543 b 895 915 760 760 837 860 b 899 901 897 912 899 907 b 836 654 899 854 878 771 b 769 482 816 600 794 543 b 598 328 721 465 664 413 b 435 64 536 249 481 161 b 361 -168 386 -36 361 -113 b 395 -218 361 -193 370 -218 z m 412 -168 b 401 -148 405 -168 401 -161 b 464 47 401 -104 422 -39 b 602 278 503 128 549 205 b 744 422 657 354 705 402 b 635 186 709 342 673 263 b 530 -16 598 110 563 43 b 446 -141 496 -73 469 -115 b 412 -168 431 -159 419 -168 z "},"Z":{"ha":984,"x_min":0,"x_max":0,"o":"m 73 -218 b 504 -167 211 -218 359 -193 b 899 -119 642 -142 777 -121 b 942 -91 929 -119 942 -104 b 900 -63 942 -77 927 -63 b 504 -122 777 -65 642 -92 b 73 -184 359 -153 212 -184 b 27 -178 54 -184 39 -182 b 3 -152 11 -174 3 -165 b 96 -18 3 -121 34 -76 b 461 262 161 42 283 136 l 585 351 b 785 364 653 360 720 364 b 972 351 846 364 909 360 b 1001 374 994 351 1001 362 b 976 397 1001 387 993 395 b 827 402 937 400 888 402 b 640 392 768 402 705 399 b 914 618 759 479 850 555 b 1031 804 991 693 1031 755 b 936 935 1031 863 999 906 b 707 972 879 960 802 972 b 375 933 599 972 488 960 b 132 844 263 907 182 878 b 94 792 106 827 94 809 b 146 724 94 768 111 737 b 165 720 153 722 159 720 b 177 722 170 720 174 721 b 192 743 187 727 192 734 b 166 774 192 758 183 768 b 140 798 149 780 140 787 b 730 938 140 840 477 938 b 920 908 810 938 873 928 b 998 804 972 886 998 851 b 868 617 997 757 954 695 b 570 383 806 561 707 483 b 106 279 410 362 255 327 b 94 261 98 275 94 270 b 98 243 94 256 96 250 b 104 214 102 234 104 224 b 102 203 104 211 103 207 b 101 188 102 197 101 192 b 132 158 102 168 112 158 b 162 208 160 158 162 191 b 149 257 162 223 158 240 b 511 341 267 294 387 321 b 289 181 472 315 398 262 b 12 -60 153 80 60 -1 b -32 -154 -16 -96 -31 -127 b 73 -218 -32 -203 21 -218 z "},"[":{"ha":439,"x_min":0,"x_max":0,"o":"m 302 -499 b 509 -463 363 -499 433 -487 b 696 -385 575 -442 637 -416 b 782 -325 746 -357 774 -338 b 787 -305 785 -318 787 -311 b 761 -277 787 -290 777 -277 b 734 -288 753 -277 744 -281 b 585 -375 691 -318 641 -347 b 288 -461 467 -433 368 -461 b 142 -402 226 -461 178 -441 b 69 -138 94 -349 69 -260 b 161 377 70 3 100 174 b 350 898 213 555 276 728 b 515 1220 418 1053 473 1160 l 994 1192 b 1032 1218 1017 1192 1032 1204 b 991 1246 1032 1234 1019 1246 l 494 1254 l 486 1253 b 479 1247 483 1252 481 1250 b 386 1089 454 1215 423 1162 b 156 513 303 926 227 734 b 34 -125 77 264 36 52 b 199 -481 34 -318 89 -437 b 302 -499 229 -493 263 -499 z "},"\\":{"ha":775,"x_min":0,"x_max":0,"o":"m 732 -218 b 741 -203 738 -217 741 -212 b 732 -172 741 -195 739 -184 b 76 951 532 236 313 610 b 48 972 66 966 57 972 b 34 959 39 972 34 968 b 44 932 34 951 37 942 b 702 -186 288 583 507 210 b 732 -218 713 -208 723 -218 z "},"]":{"ha":439,"x_min":0,"x_max":0,"o":"m 137 1254 b -70 1218 75 1254 6 1242 b -257 1139 -136 1197 -199 1171 b -342 1080 -307 1112 -336 1093 b -349 1060 -347 1073 -349 1066 b -322 1032 -349 1044 -338 1032 b -295 1042 -315 1032 -305 1036 b -145 1131 -252 1073 -202 1103 b 151 1216 -28 1187 71 1216 b 297 1157 213 1216 261 1196 b 370 892 345 1103 370 1015 b 279 378 369 752 338 581 b 89 -142 227 200 163 26 b -77 -465 21 -298 -34 -406 l -555 -437 b -593 -463 -578 -437 -593 -449 b -552 -492 -593 -479 -580 -491 l -55 -499 l -46 -498 b -40 -492 -44 -497 -42 -495 b 53 -334 -15 -460 16 -407 b 283 241 136 -172 212 20 b 405 880 362 490 403 703 b 240 1236 405 1073 350 1192 b 137 1254 210 1248 176 1254 z "},"^":{"ha":455,"x_min":0,"x_max":0,"o":"m 399 546 b 421 571 410 546 420 554 b 409 668 421 577 417 610 b 300 972 381 871 345 972 b 96 691 262 972 194 879 b 34 564 54 613 34 570 b 51 546 34 552 42 546 b 75 563 61 546 68 551 b 301 937 181 783 256 907 b 374 570 327 908 351 785 b 399 546 376 554 385 546 z "},"_":{"ha":860,"x_min":0,"x_max":0,"o":"m 777 -499 b 806 -485 795 -499 806 -492 b 799 -474 806 -481 804 -477 b 328 -467 791 -469 634 -467 b 62 -474 159 -467 71 -469 b 54 -485 57 -477 54 -481 b 83 -499 54 -494 64 -499 b 273 -497 140 -498 203 -497 b 600 -498 393 -497 502 -498 z "},"`":{"ha":190,"x_min":0,"x_max":0,"o":"m 144 359 b 156 372 152 359 156 364 b 153 382 156 376 155 379 l 93 493 b 75 504 88 500 82 504 b 45 489 64 504 54 499 b 34 463 37 481 34 472 b 41 446 34 456 37 451 l 129 364 b 141 359 133 361 137 359 z "},"a":{"ha":456,"x_min":0,"x_max":0,"o":"m 218 -99 b 314 -54 245 -99 277 -84 b 449 94 357 -18 402 31 b 483 138 470 122 481 137 b 486 149 485 142 486 145 b 467 165 486 157 478 165 b 456 159 463 165 459 163 b 345 20 409 97 372 51 b 258 -54 313 -14 284 -39 b 218 -65 243 -61 231 -65 b 193 -20 201 -65 193 -50 b 241 184 193 26 210 94 b 269 262 253 218 262 243 b 275 279 273 271 275 276 b 252 297 275 290 263 297 b 236 288 244 297 239 294 l 211 250 b 156 308 204 289 186 308 b 69 262 128 308 99 292 b 0 159 43 234 20 200 b -29 52 -20 119 -29 83 b 12 -1 -29 17 -16 -1 b 98 53 35 -1 64 17 b 193 165 126 81 158 119 b 157 -11 170 95 158 36 b 218 -99 157 -70 178 -99 z m 20 41 b 8 59 12 41 8 47 b 22 119 8 74 13 94 b 103 249 42 174 69 217 b 153 273 120 264 136 273 b 178 235 170 273 178 260 b 174 195 178 221 176 208 b 104 106 152 164 129 134 b 20 41 67 63 39 41 z "},"b":{"ha":373,"x_min":0,"x_max":0,"o":"m -2 -218 b 121 -127 29 -218 71 -187 b 250 70 170 -70 213 -4 b 310 254 290 148 310 210 b 258 313 310 293 293 313 b 171 275 233 313 204 300 b 26 113 124 238 76 184 b 81 286 43 171 62 229 b 120 353 86 294 99 317 b 194 486 141 389 165 434 b 278 648 222 538 250 592 b 347 803 306 704 329 755 b 376 913 366 850 376 887 b 353 945 376 933 370 945 b 199 696 321 945 270 862 b 62 337 159 603 114 483 b 24 277 58 329 46 309 b 9 242 12 257 9 251 b 22 225 9 233 14 228 b -33 31 -1 162 -19 97 l -33 26 b -13 4 -33 12 -24 4 b 12 20 -2 4 6 9 b 73 115 26 45 46 77 b 166 227 105 160 136 197 b 253 282 202 264 231 282 b 274 254 267 282 274 272 b 219 97 273 220 255 168 b 106 -90 185 28 147 -33 b 8 -180 62 -150 29 -180 b -1 -164 2 -180 -1 -174 b 62 -14 -1 -134 20 -84 b 186 159 100 50 142 107 b 239 214 206 183 224 201 b 253 238 248 222 253 229 b 236 256 253 248 246 256 b 214 246 229 256 221 252 b 90 94 179 216 138 165 b -18 -101 41 22 5 -43 b -36 -174 -30 -131 -36 -155 b -2 -218 -36 -196 -28 -218 z m 149 477 b 209 631 165 522 185 572 b 282 797 233 690 257 745 b 348 907 307 848 329 884 b 149 477 316 797 220 601 z "},"c":{"ha":384,"x_min":0,"x_max":0,"o":"m 83 -97 b 270 -10 138 -96 201 -67 b 411 138 326 37 373 86 b 414 149 413 142 414 145 b 395 165 414 157 406 165 b 384 159 391 165 387 163 b 281 44 354 119 320 80 b 85 -63 205 -27 140 -63 b 9 33 31 -63 9 -22 b 55 196 9 84 28 145 b 151 282 82 247 117 281 b 180 250 171 281 180 271 b 148 149 179 225 168 191 b 140 127 143 140 140 133 b 163 106 140 114 151 106 b 192 128 176 106 186 113 b 219 242 209 170 218 208 b 150 315 219 290 196 315 b 28 219 105 313 64 281 b -24 35 -6 159 -24 98 b 83 -97 -24 -39 7 -96 z "},"d":{"ha":331,"x_min":0,"x_max":0,"o":"m 170 -258 b 199 -237 183 -258 193 -251 b 203 -215 201 -231 203 -224 b 180 -189 203 -199 195 -190 b 168 -159 172 -189 168 -179 b 202 18 168 -124 180 -65 b 285 286 227 109 254 199 b 397 486 307 323 345 390 b 580 913 517 705 578 848 b 557 945 580 935 572 945 b 488 871 540 945 517 920 b 323 494 443 794 388 669 b 262 328 291 410 271 354 b 221 265 248 307 235 286 l 211 250 b 157 308 204 289 186 308 b 70 262 129 308 100 292 b -1 157 42 233 18 198 b -29 52 -20 116 -29 81 b 12 -1 -29 17 -16 -1 b 90 45 33 -1 59 14 b 215 196 127 81 169 131 b 162 24 193 128 175 71 b 128 -175 140 -60 128 -127 b 132 -215 128 -191 130 -204 b 170 -258 139 -244 152 -258 z m 352 477 b 412 631 368 522 389 572 b 486 797 436 690 460 745 b 552 907 511 848 532 884 b 352 477 520 798 424 601 z m 20 41 b 8 61 12 41 8 47 b 31 141 8 79 16 106 b 87 231 47 176 65 206 b 153 273 111 259 133 273 b 178 233 170 273 178 260 b 174 195 178 223 176 210 b 104 106 152 164 129 134 b 20 41 67 63 39 41 z "},"e":{"ha":383,"x_min":0,"x_max":0,"o":"m 86 -97 b 229 -41 128 -97 176 -79 b 360 78 274 -9 318 31 b 414 149 396 118 414 142 b 395 165 414 157 406 165 b 383 159 390 165 387 163 b 86 -63 321 74 186 -63 b 9 36 31 -63 9 -20 b 28 138 9 65 16 99 b 212 265 150 142 212 211 b 154 317 212 294 193 317 b -24 35 61 317 -24 156 b 1 -58 -24 -3 -16 -35 b 86 -97 20 -84 48 -97 z m 43 173 b 151 281 70 233 111 281 b 176 263 168 281 176 275 b 43 173 176 233 118 180 z "},"f":{"ha":243,"x_min":0,"x_max":0,"o":"m -62 -349 b 17 -181 -22 -349 5 -293 b 24 -43 21 -144 24 -98 b 21 90 24 18 23 63 l 28 112 b 140 95 62 102 99 96 b 267 135 195 95 238 109 b 273 146 271 138 273 142 b 255 164 273 155 265 164 b 244 159 252 164 248 163 b 126 129 220 139 181 129 b 37 142 92 129 62 133 b 81 286 58 213 73 261 l 120 353 b 278 648 178 454 231 552 b 376 917 343 780 376 869 b 353 945 376 935 368 945 b 284 871 336 945 313 920 b 199 696 257 824 229 766 b 61 337 157 597 111 477 b 24 277 59 331 47 311 b 9 242 14 262 9 251 b 22 225 9 233 14 227 b 0 160 18 214 10 192 b -20 143 -13 160 -20 153 l -19 139 b -14 114 -17 132 -16 124 b -98 -274 -52 -3 -97 -176 b -62 -349 -98 -324 -86 -349 z m -60 -314 b -64 -291 -62 -309 -64 -301 b -9 -24 -64 -248 -45 -159 b -20 -179 -10 -74 -14 -125 b -60 -314 -29 -252 -42 -297 z m 149 477 b 208 631 164 522 184 572 b 282 797 232 690 257 745 b 348 907 307 848 329 884 b 149 477 316 797 220 601 z "},"g":{"ha":339,"x_min":0,"x_max":0,"o":"m -115 -639 b 40 -390 -83 -639 -31 -556 b 153 -99 76 -304 114 -208 l 181 -21 b 221 39 194 -1 207 20 b 229 64 227 48 229 56 b 217 81 229 73 225 79 b 246 166 219 85 229 114 b 282 289 258 202 270 243 l 283 292 b 260 309 283 302 273 309 b 233 282 245 309 241 295 b 212 250 224 269 216 258 b 157 308 203 289 185 308 b 70 262 129 308 100 292 b 0 159 42 233 18 199 b -29 52 -18 119 -28 83 b 12 -1 -29 21 -16 -1 b 89 43 33 -1 58 14 b 213 193 125 78 167 128 b 158 20 189 113 170 55 b 119 -47 153 12 140 -11 b 45 -180 98 -83 73 -127 b -39 -342 16 -232 -12 -286 b -109 -496 -67 -397 -90 -449 b -137 -607 -127 -544 -136 -581 b -115 -639 -137 -628 -130 -639 z m 21 41 b 8 61 12 41 8 47 b 32 142 9 81 16 108 b 87 231 47 177 66 206 b 153 273 111 259 133 273 b 178 233 172 273 178 254 b 174 195 178 220 176 208 b 104 105 152 164 129 134 b 21 41 68 63 40 41 z m -109 -601 b 90 -171 -77 -490 20 -294 b 31 -326 75 -215 54 -267 b -43 -490 7 -384 -18 -439 b -109 -601 -68 -541 -90 -578 z "},"h":{"ha":508,"x_min":0,"x_max":0,"o":"m 271 -99 b 366 -55 299 -99 330 -84 b 535 138 415 -14 472 51 b 539 149 538 142 539 145 b 520 165 538 157 531 165 b 508 159 515 165 511 163 b 440 70 482 123 460 94 b 271 -65 368 -20 311 -65 b 245 -31 254 -65 245 -54 b 260 50 245 -12 250 15 l 274 98 b 309 252 296 170 308 221 b 258 313 309 292 292 313 b 171 275 233 313 204 300 b 26 113 125 239 77 185 b 81 286 43 171 61 229 b 120 353 85 294 99 317 b 194 486 141 389 165 434 b 278 648 222 538 250 592 b 347 803 306 704 329 755 b 376 913 366 850 375 887 b 353 945 376 935 368 945 b 283 871 336 945 313 920 b 199 696 258 828 230 770 b 61 337 157 597 111 477 l 58 328 b 24 277 47 311 36 294 b 9 242 14 262 9 251 b 22 225 9 233 14 227 b -33 31 -1 162 -19 97 l -33 26 b -13 4 -33 12 -24 4 b 12 20 -3 4 6 9 b 73 115 24 43 44 74 b 166 227 105 159 136 197 b 253 282 202 264 231 282 b 270 256 264 282 270 273 b 244 145 269 238 261 201 b 208 -28 220 68 208 10 b 271 -99 208 -75 229 -99 z m 149 477 b 208 631 164 522 184 572 b 282 797 232 690 257 745 b 348 907 307 848 329 884 b 149 477 316 798 219 601 z "},"i":{"ha":265,"x_min":0,"x_max":0,"o":"m 28 -99 b 123 -54 55 -99 87 -84 b 218 43 151 -31 183 1 b 258 94 233 60 246 77 b 292 138 279 122 291 137 b 296 149 294 142 296 145 b 277 165 295 157 288 165 b 265 159 272 165 269 163 b 154 20 218 97 182 51 b 67 -54 122 -14 94 -39 b 28 -65 53 -61 40 -65 b 2 -24 11 -65 2 -52 b 18 77 2 4 7 38 b 79 262 32 129 52 191 b 84 279 82 273 84 276 b 61 297 84 290 73 297 b 44 286 52 297 47 293 b 11 193 38 273 27 241 b -33 -11 -17 110 -32 42 b 28 -99 -33 -70 -13 -99 z m 90 347 b 133 405 116 347 133 380 b 107 437 133 426 124 436 b 64 378 81 437 64 404 b 90 347 64 361 71 347 z "},"j":{"ha":143,"x_min":0,"x_max":0,"o":"m -317 -639 b -248 -564 -300 -639 -277 -614 b -163 -390 -221 -518 -193 -460 b -50 -99 -127 -304 -89 -208 l -25 -31 b 12 30 -23 -24 -11 -3 b 26 64 22 44 26 56 b 14 81 26 73 22 79 b 44 167 16 86 26 115 b 79 289 56 203 68 243 l 80 292 b 58 309 80 302 68 309 b 39 297 48 309 42 305 b -45 20 9 186 -19 94 l -83 -47 b -242 -341 -140 -144 -193 -243 b -340 -610 -307 -473 -340 -563 b -317 -639 -340 -629 -332 -639 z m -312 -601 b -113 -171 -280 -490 -184 -294 b -172 -326 -128 -215 -149 -267 b -246 -490 -196 -384 -221 -439 b -312 -601 -271 -541 -293 -578 z m 77 347 b 120 405 103 347 120 380 b 94 437 120 426 111 436 b 51 378 68 437 51 404 b 77 347 51 361 58 347 z "},"k":{"ha":475,"x_min":0,"x_max":0,"o":"m 237 -100 b 332 -56 264 -100 296 -85 b 465 90 371 -24 416 24 l 503 138 b 506 149 505 142 506 145 b 487 165 505 157 498 165 b 471 153 481 165 475 161 b 403 64 441 113 419 83 b 237 -66 332 -22 277 -66 b 178 -25 216 -66 196 -52 b 138 61 163 -4 149 24 b 110 159 129 87 120 119 b 265 212 177 169 229 186 b 302 273 290 230 302 250 b 258 313 302 295 287 313 b 182 283 235 313 210 302 b 86 191 152 261 120 231 b 71 172 78 190 71 183 b 26 113 53 149 38 130 b 81 286 43 171 62 229 b 120 353 86 294 99 317 b 194 486 141 389 165 434 b 278 648 222 538 250 592 b 347 803 306 704 329 755 b 376 913 366 850 376 887 b 353 945 376 935 369 945 b 284 871 336 945 313 920 b 199 696 257 824 229 766 b 119 494 175 639 148 572 b 62 337 94 430 75 378 b 24 277 59 330 47 309 l 18 267 b 9 242 12 258 9 250 b 22 225 9 233 14 227 b -33 31 -1 162 -19 97 l -33 26 b -13 4 -33 12 -24 4 b 12 20 -3 4 6 9 b 83 128 26 45 50 81 b 113 29 94 88 104 55 b 237 -100 145 -57 186 -100 z m 140 199 b 193 252 157 219 174 237 b 253 282 217 272 237 282 b 269 269 263 282 269 278 b 225 227 269 254 254 240 b 140 199 201 216 174 207 z m 149 477 b 209 631 165 522 185 572 b 282 797 233 690 257 745 b 348 907 307 848 329 884 b 149 477 316 797 220 601 z "},"l":{"ha":142,"x_min":0,"x_max":0,"o":"m -33 -258 b 0 -218 -13 -258 0 -237 b -22 -189 0 -199 -7 -190 b -35 -159 -31 -189 -35 -179 b -1 18 -35 -124 -23 -65 b 60 222 20 92 40 160 b 82 286 69 250 77 272 l 121 353 b 279 648 178 454 231 552 b 376 917 344 780 376 869 b 354 945 376 935 369 945 b 285 871 336 945 313 920 b 200 696 258 824 229 766 b 62 337 158 597 112 477 b 25 277 60 331 47 311 b 10 242 15 262 10 251 b 22 225 10 233 14 227 l 3 170 b -47 3 -16 115 -33 59 b -75 -175 -65 -70 -75 -130 b -52 -252 -75 -214 -67 -239 b -33 -258 -47 -256 -41 -258 z m 149 477 b 209 631 165 522 185 572 b 283 797 233 690 258 745 b 349 907 308 848 330 884 b 149 477 317 797 221 601 z "},"m":{"ha":704,"x_min":0,"x_max":0,"o":"m 467 -99 b 562 -55 494 -99 526 -84 b 656 42 589 -33 620 0 b 731 138 670 59 695 91 b 734 149 733 142 734 145 b 715 165 734 157 726 165 b 704 159 711 165 707 163 b 635 70 682 130 659 100 b 467 -65 563 -20 507 -65 b 443 -31 451 -65 443 -54 b 471 92 444 -9 452 32 b 500 203 486 145 495 182 b 505 251 503 220 505 237 b 452 314 505 293 487 314 b 378 277 431 314 407 302 b 306 200 353 256 329 230 l 276 161 l 252 127 b 258 197 254 132 256 156 l 258 204 b 207 284 258 258 241 284 b 136 246 186 284 162 271 b 25 86 102 213 65 159 b 80 242 37 133 55 185 b 89 270 83 253 89 262 b 65 296 89 286 79 296 b 37 273 52 296 43 288 b -31 -12 -3 167 -26 72 b -12 -36 -31 -28 -24 -36 b 11 -21 -3 -35 5 -31 l 59 67 b 160 220 96 134 130 186 b 202 249 176 239 191 248 b 224 201 217 249 224 233 b 208 79 224 166 218 125 b 204 59 205 68 204 62 b 226 43 204 50 215 44 b 239 50 232 43 236 45 b 311 150 264 87 288 120 b 448 279 375 236 421 279 b 464 256 458 278 464 271 b 439 145 464 230 452 191 b 410 31 423 90 413 52 b 404 -22 406 12 404 -6 b 467 -99 404 -67 418 -99 z "},"n":{"ha":526,"x_min":0,"x_max":0,"o":"m 290 -99 b 384 -55 317 -99 349 -84 b 553 138 433 -14 490 51 b 557 149 556 142 557 145 b 538 165 557 157 549 165 b 526 159 534 165 530 163 b 458 70 500 123 478 94 b 290 -65 386 -20 330 -65 b 266 -35 274 -65 266 -55 b 294 92 266 -4 279 43 b 323 203 309 145 318 182 b 328 251 326 220 328 237 b 275 314 328 293 310 314 b 184 265 252 314 221 298 b 90 162 153 238 121 203 b 22 67 59 123 36 91 b 87 258 34 121 56 184 b 89 270 88 262 89 267 b 66 296 89 286 79 296 b 38 273 53 296 44 288 b -31 -12 -3 169 -26 74 b -12 -36 -31 -28 -24 -36 b 11 -21 -3 -35 5 -31 b 90 102 28 9 54 51 b 271 279 172 219 232 278 b 287 255 281 279 287 271 b 262 144 287 238 279 201 b 227 -24 238 68 227 12 b 290 -99 227 -74 248 -99 z "},"o":{"ha":456,"x_min":0,"x_max":0,"o":"m 75 -45 b 183 18 113 -44 149 -23 b 247 140 213 55 234 96 b 374 101 282 114 325 101 b 477 132 417 101 452 111 b 481 142 480 135 481 138 b 464 161 481 151 473 161 b 455 158 460 161 458 160 b 375 134 435 142 407 134 b 250 182 326 135 275 153 b 237 189 247 187 242 189 b 220 174 227 189 222 184 b 172 60 215 140 199 102 b 75 -11 141 14 109 -10 b 21 66 39 -11 21 15 b 61 208 21 112 35 159 b 146 282 87 256 116 281 b 172 248 163 281 172 271 b 153 168 172 224 162 193 b 139 127 144 144 139 138 b 161 106 139 115 149 106 b 190 128 174 106 184 113 b 212 235 204 163 211 199 b 208 265 212 245 210 256 b 147 315 201 298 180 315 b -14 71 55 315 -14 177 b 75 -45 -14 7 13 -45 z "},"p":{"ha":382,"x_min":0,"x_max":0,"o":"m -128 -601 b -102 -580 -117 -601 -104 -593 b 56 -17 -75 -404 -22 -216 b 254 81 133 -11 199 22 b 330 239 302 132 330 192 b 267 307 330 277 311 304 b 150 231 229 307 189 281 b 36 24 113 183 75 115 l 34 24 b 5 0 15 24 5 13 b 19 -16 5 -9 9 -14 b -66 -259 -13 -96 -41 -177 b 101 350 -25 -67 31 136 l 102 357 b 83 374 102 368 94 374 b 62 359 73 374 65 369 b -154 -576 -54 7 -126 -305 b -128 -601 -154 -593 -145 -601 z m 73 24 b 128 142 94 75 113 114 b 265 273 176 229 221 273 b 294 243 284 273 294 262 b 277 181 294 224 288 203 b 159 54 251 129 212 86 b 73 24 133 38 104 28 z "},"q":{"ha":446,"x_min":0,"x_max":0,"o":"m 26 -699 b 58 -674 37 -699 48 -691 b 139 -413 91 -620 118 -533 b 160 -203 153 -335 160 -264 b 157 -141 160 -180 159 -159 l 161 -127 b 473 138 263 -64 380 15 b 476 149 475 142 476 145 b 457 165 476 157 469 165 b 446 159 453 165 449 163 b 172 -85 372 60 260 -29 b 286 306 248 174 286 304 b 266 319 286 315 279 319 b 250 310 258 319 253 316 b 220 264 242 298 231 279 l 211 250 b 156 308 203 289 184 308 b 69 262 128 308 99 292 b -1 158 41 233 18 198 b -30 52 -20 116 -30 81 b 12 -1 -30 20 -17 -1 b 90 46 31 -1 58 15 b 219 203 125 81 169 134 l 130 -105 b 121 -122 123 -109 121 -115 b 123 -129 121 -124 121 -127 b 33 -494 86 -258 56 -380 b 4 -669 19 -559 9 -618 b 26 -699 4 -689 12 -699 z m 20 41 b 7 60 12 41 7 47 b 31 140 7 79 16 106 b 85 231 47 175 64 205 b 153 273 109 259 132 273 b 176 231 168 273 176 259 b 174 199 176 222 176 212 l 173 195 b 121 126 157 172 139 149 b 20 41 75 69 41 41 z m 47 -629 b 102 -361 56 -564 75 -474 b 128 -242 111 -320 120 -281 b 102 -443 125 -304 116 -370 b 47 -629 87 -515 68 -577 z "},"r":{"ha":528,"x_min":0,"x_max":0,"o":"m -15 -76 b 11 -63 -3 -76 6 -72 b 57 47 20 -39 35 -2 b 123 176 79 97 101 140 b 197 269 148 219 172 250 b 234 283 210 278 222 283 b 273 244 248 283 261 270 l 288 205 b 321 132 300 175 311 151 b 418 69 345 90 378 69 b 512 109 450 69 481 82 b 555 155 541 132 555 148 b 543 168 555 161 551 168 b 532 162 539 168 535 165 b 418 100 501 130 460 100 b 359 135 393 100 374 112 b 326 211 348 153 336 178 b 293 287 313 248 302 273 b 234 321 277 309 258 321 b 82 178 189 321 138 273 b 13 40 58 137 35 91 b 106 345 30 123 61 225 b 108 355 107 348 108 352 b 82 378 107 370 96 378 b 56 359 70 378 61 372 b -20 71 26 271 1 174 b -39 -60 -31 18 -37 -25 l -39 -60 b -15 -76 -38 -71 -30 -76 z "},"s":{"ha":395,"x_min":0,"x_max":0,"o":"m -24 -121 b 91 -54 8 -121 46 -99 b 157 54 129 -15 151 20 b 302 103 208 73 256 90 b 404 125 348 116 382 123 b 416 142 412 127 416 132 b 402 159 416 153 412 159 l 401 159 b 294 137 375 157 340 149 b 153 89 249 125 202 109 b 62 156 137 119 100 140 b -3 210 28 172 -3 188 b 155 302 -3 258 99 302 b 193 279 178 302 193 295 b 218 254 193 262 205 254 b 244 286 235 254 244 264 b 174 340 244 327 212 340 b 64 313 140 340 104 331 b -21 246 25 294 -3 272 b -35 206 -30 233 -35 220 b -11 166 -35 192 -26 178 b 43 135 1 157 18 147 b 120 75 79 118 110 99 b -24 -20 55 45 7 14 b -60 -88 -48 -45 -60 -68 b -24 -121 -60 -109 -46 -121 z m -10 -87 b -21 -77 -18 -87 -21 -83 b -2 -40 -21 -66 -15 -54 b 115 35 20 -15 59 10 b 26 -68 99 -1 69 -36 b -10 -87 11 -81 -1 -87 z "},"t":{"ha":304,"x_min":0,"x_max":0,"o":"m 32 -142 b 138 -83 58 -142 94 -122 b 252 37 174 -52 212 -12 b 335 149 307 104 335 141 b 316 165 334 157 327 165 b 304 159 311 165 307 163 l 302 155 b 40 -111 257 97 105 -111 b 7 -37 18 -111 7 -86 b 61 252 7 29 25 125 b 176 591 96 376 134 488 l 237 591 b 492 563 369 591 454 582 b 489 553 490 559 489 556 b 509 535 489 542 498 535 b 532 564 520 535 532 544 b 500 599 532 581 522 592 b 239 621 449 614 362 621 l 189 621 b 268 772 218 690 245 740 b 278 768 271 770 275 768 b 300 793 292 768 300 780 b 273 821 300 807 291 821 b 232 794 256 821 243 811 b 144 619 206 755 177 697 b -60 600 72 616 3 610 b -286 486 -210 577 -286 539 b -255 448 -286 467 -275 448 b -228 473 -241 448 -228 460 b -233 486 -228 477 -230 482 b -236 492 -235 488 -236 490 b 132 589 -236 547 -53 581 b 24 262 90 482 54 373 b -25 -30 -9 138 -25 40 b 32 -142 -25 -104 -6 -142 z "},"u":{"ha":539,"x_min":0,"x_max":0,"o":"m 302 -99 b 398 -54 330 -99 362 -84 b 532 94 441 -18 486 31 b 566 138 553 122 565 137 b 570 149 568 142 570 145 b 551 165 570 157 562 165 b 539 159 546 165 543 163 b 428 20 492 97 456 51 b 341 -54 396 -14 368 -39 b 302 -65 327 -61 314 -65 b 276 -19 285 -65 276 -50 b 302 117 276 13 285 58 b 345 250 314 157 328 201 b 356 283 353 271 356 281 b 326 304 356 295 338 304 b 311 299 319 304 315 302 b 256 239 296 283 277 264 b 178 154 223 201 197 172 b 63 81 130 106 92 81 b 33 116 40 81 33 99 b 41 169 33 133 35 151 b 77 263 48 195 60 227 b 84 285 81 274 84 281 b 60 307 84 298 74 307 b 35 288 49 307 41 300 b 5 186 23 257 13 224 b -2 128 0 166 -2 146 b 63 51 -2 77 20 51 b 159 96 90 51 121 66 b 290 231 192 123 236 168 b 241 -2 258 133 241 56 b 302 -99 241 -66 262 -99 z "},"v":{"ha":530,"x_min":0,"x_max":0,"o":"m 81 -60 b 237 82 127 -60 179 -13 b 294 187 257 115 276 150 l 313 227 b 310 191 311 215 310 203 b 341 92 310 147 320 114 b 405 66 355 75 377 66 b 510 106 441 66 477 79 b 557 155 541 130 557 146 b 544 168 557 162 552 168 b 533 162 541 168 537 165 b 410 92 489 115 448 92 b 353 123 382 92 363 102 b 338 195 343 140 338 164 b 352 290 340 222 345 254 l 353 295 b 333 314 353 308 346 314 b 311 299 322 314 315 309 b 198 82 273 212 236 140 b 81 -26 151 10 113 -26 b 37 58 52 -26 37 2 b 54 177 38 97 44 136 b 85 269 64 218 75 248 b 89 283 87 274 89 279 b 63 306 89 297 77 306 b 1 165 37 306 16 259 b -6 85 -4 138 -6 111 b 13 -17 -6 42 0 8 b 81 -60 27 -46 50 -60 z "},"w":{"ha":690,"x_min":0,"x_max":0,"o":"m 269 -87 b 425 76 337 -87 396 22 b 500 20 435 39 460 20 b 644 82 544 20 592 41 b 705 138 666 100 687 119 b 710 149 709 142 710 145 b 699 162 710 157 705 162 b 688 157 695 162 692 161 b 505 52 639 108 566 52 b 467 67 487 52 474 57 b 454 109 452 87 454 106 b 458 146 454 122 456 134 b 515 292 479 195 498 243 b 516 300 515 294 516 297 b 496 317 516 311 507 317 b 441 227 479 317 461 287 b 422 142 431 197 425 169 b 385 68 412 120 399 95 b 269 -53 341 -12 302 -53 b 218 63 235 -53 218 -14 b 241 251 219 125 227 187 l 242 257 b 220 278 242 269 233 278 b 197 260 212 278 204 272 b 161 189 192 248 180 224 b 88 80 136 140 112 104 b 51 60 75 67 62 60 b 30 92 37 60 30 71 b 60 211 31 127 45 174 b 80 263 74 248 80 254 b 57 284 80 277 71 284 b 35 268 48 284 41 279 b 2 170 21 243 10 211 b -5 111 -3 150 -5 130 b 51 33 -5 59 14 33 b 189 176 109 33 163 131 b 182 90 184 151 182 123 b 193 -7 182 53 185 20 b 269 -87 205 -61 231 -87 z "},"x":{"ha":412,"x_min":0,"x_max":0,"o":"m 123 -141 b 332 11 174 -141 243 -90 b 435 138 358 41 393 83 b 439 147 437 141 439 144 b 422 163 439 156 431 163 b 406 151 417 163 412 159 b 304 28 370 104 336 64 b 180 -90 256 -27 215 -66 b 129 -110 160 -103 143 -110 b 64 -37 101 -109 79 -85 b 45 70 53 1 46 37 b 265 265 102 126 175 191 b 273 281 270 269 273 275 b 254 301 273 291 264 301 b 241 296 249 301 245 300 b 43 116 172 239 106 179 l 43 144 b 48 287 43 180 45 228 b 24 310 48 301 37 310 b 2 287 12 310 4 302 b -1 181 0 252 -1 217 b 4 76 -1 146 1 111 b -108 -52 -35 35 -72 -7 b -111 -62 -110 -55 -111 -58 b -96 -77 -111 -70 -104 -77 b -84 -71 -92 -77 -87 -75 b 9 34 -54 -35 -23 0 b 27 -37 13 12 18 -12 b 64 -109 37 -66 49 -90 b 123 -141 81 -130 101 -141 z "},"y":{"ha":435,"x_min":0,"x_max":0,"o":"m -43 -639 b 112 -390 -10 -639 41 -556 b 250 -31 152 -296 197 -177 b 286 30 253 -22 265 -2 b 301 64 300 50 301 56 b 290 81 301 73 297 79 l 292 90 b 355 289 315 152 336 218 l 355 292 b 332 309 355 302 343 309 b 315 300 326 309 320 307 l 300 283 b 212 184 268 245 238 212 b 63 81 144 116 95 81 b 33 120 43 81 33 94 b 77 262 33 150 47 197 b 84 285 81 274 84 281 b 60 307 84 298 73 307 b 35 288 50 307 41 301 b -2 130 11 225 -1 172 b 63 51 -2 85 14 51 b 299 240 111 51 185 110 b 230 20 275 159 252 85 b 117 -180 204 -23 167 -90 b -36 -496 47 -307 -3 -413 b -65 -607 -54 -544 -64 -581 b -43 -639 -65 -627 -58 -639 z m -37 -601 b 163 -171 -4 -490 91 -295 b 102 -326 146 -215 126 -267 b 29 -490 79 -384 54 -439 b -37 -601 4 -541 -18 -578 z "},"z":{"ha":450,"x_min":0,"x_max":0,"o":"m -161 -674 b -140 -666 -155 -674 -148 -671 b -28 -562 -108 -644 -71 -609 b 100 -402 15 -514 58 -461 b 212 -228 143 -343 180 -285 b 273 -79 243 -170 263 -121 b 470 138 336 -5 402 66 b 473 146 472 140 473 142 b 457 163 473 155 466 163 b 276 -30 448 163 388 98 b 184 43 271 25 229 43 b 124 35 163 43 144 41 b 194 113 153 64 176 91 b 264 256 241 172 264 220 b 190 319 264 300 232 319 b 66 275 148 319 106 304 b -1 162 24 243 1 205 b 68 98 0 124 31 98 b 90 123 83 98 90 106 b 69 146 90 138 83 146 b 39 156 56 147 45 150 b 33 170 35 159 33 163 b 92 253 35 199 54 227 b 192 290 126 277 160 290 b 233 256 220 290 233 279 b 194 167 233 232 220 203 b 71 34 170 134 129 90 b 39 2 58 21 47 11 b 32 -14 35 -3 32 -9 b 54 -37 32 -27 43 -37 b 66 -33 58 -37 62 -35 b 191 12 97 -12 151 12 b 246 -41 233 12 246 -15 b 243 -68 246 -49 245 -58 b 116 -216 182 -139 140 -189 b -176 -637 -53 -415 -150 -555 b -179 -653 -178 -643 -179 -648 b -161 -674 -179 -667 -173 -674 z m -122 -606 b 163 -211 -52 -479 65 -332 l 220 -140 b -122 -606 144 -289 -7 -500 z "},"{":{"ha":542,"x_min":0,"x_max":0,"o":"m 381 -499 b 589 -463 444 -499 513 -487 b 775 -385 655 -442 718 -416 b 861 -325 826 -357 854 -338 b 867 -305 865 -318 867 -311 b 841 -277 867 -290 857 -277 b 814 -288 833 -277 824 -281 b 367 -461 726 -350 524 -461 b 199 -353 274 -461 218 -425 b 191 -280 194 -331 191 -307 b 275 251 193 -132 272 87 b 139 455 275 351 243 429 b 568 899 444 514 511 715 b 669 1124 595 985 623 1065 b 902 1221 715 1184 788 1221 b 1065 1183 973 1220 1027 1208 b 1097 1141 1084 1172 1095 1158 b 1120 1117 1099 1125 1106 1117 b 1149 1149 1134 1117 1148 1128 l 1149 1152 b 907 1254 1143 1212 1032 1254 b 686 1185 812 1253 739 1231 b 577 1018 642 1148 606 1092 b 541 915 564 985 553 950 b 499 798 528 876 515 836 b 360 590 465 709 418 640 b 57 481 288 528 187 492 b 34 456 41 479 34 471 b 54 432 34 444 41 433 b 203 372 123 428 173 408 b 242 236 229 340 242 295 b 157 -297 242 81 157 -139 b 204 -442 157 -360 172 -409 b 381 -499 240 -480 299 -499 z "},"|":{"ha":485,"x_min":0,"x_max":0,"o":"m 91 -499 b 108 -484 100 -499 108 -493 l 107 -477 b 67 -216 81 -409 67 -322 b 92 93 67 -120 75 -17 b 246 736 123 300 174 515 b 447 1217 315 949 382 1109 b 451 1231 450 1222 451 1227 b 427 1254 451 1244 441 1254 b 321 1076 409 1254 374 1194 b 159 597 262 941 208 781 b 50 49 106 403 71 220 b 34 -203 39 -41 34 -125 b 77 -490 34 -319 48 -415 b 91 -499 80 -496 85 -499 z "},"}":{"ha":542,"x_min":0,"x_max":0,"o":"m 161 1254 b -47 1218 98 1254 29 1242 b -233 1139 -113 1197 -176 1171 b -319 1080 -284 1112 -313 1093 b -325 1060 -323 1073 -325 1066 b -299 1033 -325 1044 -315 1033 b -272 1043 -291 1033 -282 1036 b 175 1216 -184 1104 16 1216 b 342 1108 268 1216 324 1180 b 351 1035 348 1086 351 1061 b 309 776 349 960 331 870 b 267 505 288 682 269 586 b 403 300 267 403 298 327 b -26 -144 98 241 31 40 b -127 -370 -53 -231 -81 -309 b -360 -466 -174 -429 -246 -466 b -524 -429 -431 -465 -486 -453 b -555 -387 -542 -417 -553 -403 b -578 -362 -557 -370 -564 -362 b -607 -394 -592 -362 -607 -374 l -607 -397 b -365 -499 -602 -456 -490 -499 b -144 -431 -271 -498 -197 -476 b -35 -263 -100 -393 -64 -337 b 1 -160 -22 -230 -11 -195 b 43 -43 14 -121 27 -81 b 182 165 77 45 123 115 b 485 274 254 227 355 263 b 508 300 500 276 508 284 b 488 323 508 311 501 322 b 339 382 418 327 369 347 b 300 519 313 414 300 460 b 385 1052 300 674 385 894 b 338 1197 385 1116 370 1164 b 161 1254 302 1235 243 1254 z "},"~":{"ha":768,"x_min":0,"x_max":0,"o":"m 532 243 b 672 334 587 244 633 274 b 734 492 703 384 724 436 l 734 494 b 705 511 734 505 720 511 b 681 498 691 511 683 507 b 637 361 671 448 657 402 b 532 277 610 306 575 277 b 393 391 471 278 432 332 b 237 512 353 450 308 511 b 97 420 182 511 136 481 b 35 263 66 371 45 319 l 34 260 b 64 243 35 250 50 243 b 88 257 78 243 86 248 b 132 393 97 307 112 353 b 237 478 159 449 194 477 b 376 364 299 477 337 424 b 532 243 416 304 460 245 z "},"¡":{"ha":351,"x_min":0,"x_max":0,"o":"m 228 439 b 212 422 218 439 212 430 b 229 406 212 414 217 408 b 153 66 224 331 199 217 b 37 -287 123 -35 83 -153 b 34 -302 35 -293 34 -298 b 50 -323 34 -316 41 -323 b 76 -298 61 -323 70 -315 b 161 -37 105 -215 134 -128 b 257 387 225 172 257 313 b 252 420 257 400 256 412 b 228 439 248 433 239 439 z m 282 650 b 243 625 267 650 254 642 b 228 569 233 608 228 589 b 263 519 228 542 239 519 b 302 545 279 519 292 528 b 317 600 313 562 317 580 b 282 650 317 627 307 650 z "},"¢":{"ha":576,"x_min":0,"x_max":0,"o":"m 54 -233 b 62 -229 58 -233 60 -232 l 140 -71 b 211 -97 157 -87 180 -96 b 398 -10 267 -96 330 -67 b 539 138 454 37 502 86 b 543 149 541 142 543 145 b 524 165 543 157 535 165 b 512 159 519 165 515 163 b 214 -63 450 74 317 -63 b 156 -37 189 -63 169 -54 l 305 268 b 309 250 307 263 309 257 b 276 149 307 225 296 191 l 272 141 b 269 127 270 136 269 132 b 292 106 269 114 279 106 b 320 128 304 106 314 113 b 347 246 338 171 347 210 b 323 303 347 273 339 292 b 387 436 366 391 387 435 b 368 451 387 444 377 450 b 359 446 364 451 361 450 l 294 314 b 278 315 290 315 284 315 b 104 35 185 311 106 157 b 120 -43 104 5 110 -20 l 34 -219 b 54 -233 34 -227 45 -233 z m 141 0 b 138 33 139 10 138 21 b 184 197 138 85 153 140 b 279 282 214 253 246 281 z "},"£":{"ha":844,"x_min":0,"x_max":0,"o":"m 352 284 b 407 283 370 283 389 283 b 585 281 456 282 515 281 b 603 299 597 281 603 288 b 586 315 603 309 597 315 b 410 317 517 315 458 316 b 360 317 393 317 376 317 l 360 318 b 327 380 360 340 349 360 b 252 429 311 393 287 410 b 166 488 213 452 184 471 b 126 569 140 512 126 539 b 197 715 126 615 150 664 b 365 845 241 763 297 806 b 564 926 433 884 499 910 b 651 937 595 933 625 937 b 771 838 722 937 771 908 b 736 713 771 806 760 765 b 699 637 724 688 712 662 b 695 619 696 631 695 625 b 718 596 695 605 705 596 b 745 615 728 596 738 602 b 810 827 787 699 808 769 b 652 972 810 930 743 972 b 361 884 568 972 461 938 b 224 791 311 857 265 826 b 84 570 140 722 86 644 b 159 445 85 522 110 480 b 225 402 181 429 203 415 b 290 359 256 385 277 370 b 317 318 306 346 315 332 l 263 318 b 72 310 141 318 77 315 b 67 298 68 307 67 302 b 85 281 67 290 73 281 b 260 285 153 283 212 285 l 311 285 b 279 231 304 270 294 252 b 191 123 261 207 232 171 b 84 -11 142 66 106 22 b 34 -124 51 -58 34 -96 b 218 -218 34 -186 96 -218 b 515 -186 303 -218 401 -207 b 692 -143 608 -168 667 -154 b 730 -92 717 -132 729 -115 b 681 -53 728 -73 715 -53 b 626 -92 644 -53 626 -71 b 635 -117 626 -101 629 -109 b 220 -184 461 -162 323 -184 b 68 -124 119 -184 68 -164 b 113 -26 68 -101 83 -68 b 214 96 134 2 168 43 b 314 220 260 150 293 191 b 352 284 332 245 345 266 z "},"¤":{"ha":530,"x_min":0,"x_max":0,"o":"m 227 187 b 155 304 177 190 155 238 b 176 422 155 343 162 382 b 232 524 191 465 210 499 b 316 568 257 553 286 568 b 372 534 340 568 359 556 b 388 456 382 514 388 488 b 376 361 388 425 384 393 b 292 212 358 294 330 243 b 227 187 272 195 251 187 z m 385 105 b 402 122 395 105 402 112 b 349 239 402 124 385 163 b 417 450 391 300 415 378 b 408 521 417 475 414 499 l 493 623 b 496 633 495 626 496 629 b 480 650 496 642 489 650 b 467 644 475 650 471 648 l 391 554 b 311 595 373 582 347 595 b 204 549 271 595 235 580 l 161 640 b 146 650 157 646 153 650 b 128 633 136 650 129 644 b 130 626 128 631 129 629 l 180 520 b 114 311 137 461 114 382 b 125 236 114 284 117 259 l 38 132 b 34 122 35 129 34 125 b 51 105 34 112 42 105 b 64 111 56 105 60 107 l 140 202 b 218 159 159 174 184 160 b 325 211 257 159 293 176 l 370 115 b 385 105 374 109 378 105 z "},"¥":{"ha":1060,"x_min":0,"x_max":0,"o":"m 245 356 b 54 347 123 356 59 353 b 50 336 51 344 50 340 b 66 319 50 324 55 319 b 242 323 135 321 194 323 l 283 323 b 284 317 283 321 283 319 b 260 265 276 300 268 283 l 205 265 b 39 257 100 265 44 262 b 34 245 35 254 34 250 b 52 229 34 237 40 229 b 228 233 120 231 179 233 l 248 233 b 212 122 235 199 223 162 b 179 -82 190 44 179 -24 b 206 -201 179 -134 188 -174 b 232 -218 214 -212 222 -218 l 233 -218 b 263 -186 250 -217 263 -205 b 257 -168 263 -181 261 -175 b 235 -106 244 -148 237 -127 b 232 -55 233 -84 232 -67 b 256 120 232 -5 240 54 b 289 232 267 161 277 199 l 374 231 b 551 229 422 230 481 229 b 570 247 564 229 570 235 b 553 262 570 256 564 262 b 377 264 484 262 425 263 b 302 264 353 264 328 264 b 319 304 307 279 313 292 b 332 322 323 310 328 316 b 389 321 351 321 370 321 b 566 319 437 320 496 319 b 585 337 578 319 585 325 b 568 353 585 345 578 353 b 392 355 499 353 441 354 b 357 355 380 355 368 355 b 605 644 435 458 517 553 b 949 916 721 763 836 854 b 923 841 932 889 923 865 b 955 786 923 804 934 786 b 989 823 972 786 988 800 b 986 848 989 831 986 840 b 1005 911 986 865 992 886 b 1025 947 1015 932 1022 945 b 1026 953 1025 949 1026 951 b 1022 962 1026 956 1025 959 b 996 973 1015 969 1006 973 b 987 971 993 973 990 972 b 769 838 918 943 846 898 b 538 623 692 777 615 705 b 319 363 461 541 388 455 b 286 738 302 481 291 606 b 281 897 283 816 281 869 b 300 918 294 897 300 904 b 267 949 300 937 284 949 b 238 931 254 949 244 943 b 233 905 235 925 233 916 b 277 356 237 696 252 513 z "},"¦":{"ha":431,"x_min":0,"x_max":0,"o":"m 395 1003 b 397 1018 397 1007 397 1012 b 378 1035 397 1029 391 1035 b 359 1014 370 1035 363 1028 l 231 514 b 230 504 231 511 230 507 b 245 484 230 490 235 484 b 267 507 256 484 263 491 z m 199 235 b 201 250 201 239 201 244 b 182 267 201 262 195 267 b 163 246 174 267 167 260 l 35 -254 b 34 -264 35 -257 34 -260 b 49 -284 34 -277 39 -284 b 71 -261 60 -284 67 -277 z "},"§":{"ha":1230,"x_min":0,"x_max":0,"o":"m 593 -121 b 477 3 575 -75 536 -34 b 298 89 436 28 376 56 b 169 148 240 113 197 133 b 75 257 106 182 75 218 b 134 374 75 294 95 333 b 280 486 170 413 218 450 b 416 388 304 452 349 419 b 509 347 445 374 476 360 b 664 273 577 318 629 294 b 784 109 744 226 784 172 b 726 -18 784 67 765 24 b 593 -121 692 -57 647 -91 z m 172 -511 b 325 -475 216 -511 267 -499 b 481 -382 382 -452 435 -420 b 587 -252 532 -341 568 -298 b 604 -180 598 -229 604 -204 b 602 -158 604 -172 603 -165 b 829 114 720 -95 829 7 b 782 232 829 158 814 197 b 667 317 755 262 717 290 b 524 382 633 335 585 357 b 395 441 466 407 423 427 b 302 551 333 476 302 512 b 376 684 302 592 326 637 b 558 809 421 728 482 770 b 787 901 631 847 708 878 b 1003 937 869 925 941 937 b 1124 909 1059 937 1099 928 b 1158 839 1147 893 1158 869 b 1122 713 1158 807 1146 766 b 1086 637 1111 687 1099 662 b 1081 619 1082 631 1081 625 b 1104 596 1082 605 1091 596 b 1119 601 1109 596 1114 597 b 1165 691 1128 607 1144 637 b 1196 832 1186 745 1196 792 b 1003 972 1196 926 1132 972 b 771 934 936 972 859 960 b 529 834 686 909 606 876 b 338 699 450 791 386 747 b 260 551 286 646 260 597 b 264 519 260 539 261 529 b 100 392 195 479 140 436 b 34 257 56 345 34 300 b 85 158 34 220 51 187 b 208 85 113 134 154 110 b 282 53 232 75 257 64 b 438 -21 351 24 403 -1 b 558 -185 518 -68 558 -123 b 172 -477 558 -333 299 -477 b 128 -444 149 -477 128 -469 b 330 -226 128 -379 195 -307 b 336 -212 334 -223 336 -218 b 317 -189 336 -201 328 -189 b 309 -191 315 -189 312 -189 b 155 -315 243 -233 193 -275 b 94 -444 115 -361 94 -404 b 172 -511 94 -489 131 -511 z "},"¨":{"ha":273,"x_min":0,"x_max":0,"o":"m 69 366 b 109 391 85 366 98 374 b 123 447 119 408 123 427 b 88 497 123 473 113 497 b 50 471 73 497 60 488 b 34 416 39 454 34 435 b 69 366 34 389 45 366 z m 184 366 b 224 391 201 366 214 374 b 239 447 234 408 239 427 b 203 497 239 473 228 497 b 165 471 188 497 175 488 b 149 416 155 454 149 435 b 184 366 149 389 160 366 z "},"©":{"ha":1049,"x_min":0,"x_max":0,"o":"m 428 -218 b 995 515 781 -218 995 180 b 956 743 995 600 982 675 b 833 909 928 813 887 869 b 621 972 775 951 705 972 b 54 241 269 972 54 576 b 94 13 54 157 67 80 b 216 -153 121 -58 162 -113 b 428 -218 273 -196 345 -218 z m 351 22 b 510 80 395 22 448 41 b 674 206 562 113 617 155 b 812 349 765 288 811 336 b 798 364 812 358 807 363 b 777 354 790 364 783 361 l 705 281 b 566 156 654 231 607 189 b 417 63 511 112 461 81 b 351 48 393 53 371 48 b 264 146 293 48 264 81 b 307 311 264 191 279 247 b 412 495 334 376 370 437 b 551 645 457 557 503 608 b 695 707 603 686 651 707 b 743 656 727 707 743 690 b 713 543 742 631 732 593 b 707 520 709 533 707 526 b 725 503 707 510 715 503 b 743 517 734 503 739 507 b 770 655 761 577 770 623 b 695 732 770 696 753 732 b 489 625 631 732 563 696 b 313 387 420 559 361 480 b 237 140 262 292 237 210 b 351 22 237 72 269 22 z m 428 -190 b 82 241 187 -190 82 11 b 621 945 82 562 287 945 b 818 884 699 945 764 924 b 931 728 868 847 906 795 b 967 513 955 665 967 593 b 428 -190 967 193 762 -190 z "},"ª":{"ha":316,"x_min":0,"x_max":0,"o":"m 153 791 b 216 818 170 791 191 800 b 304 906 243 839 273 869 b 327 933 319 923 326 932 b 329 939 328 935 329 937 b 317 949 329 945 324 949 b 309 945 313 949 311 948 b 235 863 279 908 254 881 b 178 818 214 842 195 827 b 153 811 169 813 160 811 b 135 838 141 811 135 820 b 168 960 136 866 146 907 b 186 1007 175 981 181 996 b 189 1018 188 1013 189 1016 b 175 1028 189 1024 181 1028 b 164 1023 169 1028 165 1027 l 147 1000 b 111 1035 143 1023 131 1035 b 54 1007 93 1035 73 1025 b 8 946 36 991 21 970 b -11 882 -5 922 -11 900 b 16 850 -11 861 -2 850 b 73 882 31 850 50 861 b 135 949 92 899 113 921 b 112 844 120 907 113 871 b 153 791 112 808 125 791 z m 22 875 b 14 886 16 875 14 878 b 22 921 14 895 16 907 b 76 1000 36 954 54 980 b 109 1014 87 1009 98 1014 b 125 991 120 1013 125 1006 b 123 967 125 983 125 975 b 77 913 109 949 93 930 b 22 875 53 888 35 876 z m 316 709 b 329 723 324 709 329 715 b 326 734 329 726 328 730 b 113 741 322 739 252 741 b -7 734 36 741 -4 739 b -11 723 -9 730 -11 727 b 2 709 -11 713 -7 709 b 88 711 27 710 56 711 b 236 709 142 711 192 710 z "},"«":{"ha":629,"x_min":0,"x_max":0,"o":"m 215 73 b 231 91 225 73 231 79 b 226 108 231 96 229 102 b 68 388 176 201 123 294 b 332 667 244 562 332 655 b 318 682 332 675 326 682 b 300 673 313 682 307 679 b 51 418 220 586 136 501 b 34 382 39 407 34 395 b 41 361 34 376 36 369 b 193 90 105 251 155 161 b 215 73 199 78 207 73 z m 477 73 b 493 91 488 73 493 79 b 488 108 493 96 492 102 b 331 388 439 201 386 294 b 595 667 507 562 595 655 b 581 682 595 675 589 682 b 563 673 575 682 569 679 b 313 418 482 586 399 501 b 296 382 302 407 296 395 b 303 361 296 376 298 369 b 455 90 368 251 418 161 b 477 73 462 78 469 73 z "},"¬":{"ha":490,"x_min":0,"x_max":0,"o":"m 356 193 b 378 216 368 193 375 201 b 454 536 402 326 428 433 b 456 549 456 541 456 545 b 441 562 456 562 449 562 l 338 562 b 40 553 146 562 47 559 b 34 542 36 550 34 546 b 56 525 34 530 41 525 b 340 529 144 528 239 529 l 414 528 b 342 223 387 425 363 323 l 341 214 b 356 193 341 200 346 193 z "},"®":{"ha":1049,"x_min":0,"x_max":0,"o":"m 428 -218 b 995 515 781 -218 995 180 b 956 743 995 600 982 675 b 833 909 928 813 887 869 b 621 972 776 951 705 972 b 54 241 269 972 54 576 b 94 13 54 157 67 80 b 216 -153 121 -58 162 -113 b 428 -218 273 -196 345 -218 z m 337 21 b 354 35 345 21 351 26 l 372 85 b 418 218 388 129 404 174 b 646 50 498 106 574 50 b 814 145 701 50 757 81 b 822 164 819 151 822 158 b 808 178 822 172 816 178 b 789 169 800 178 793 175 b 637 77 735 107 684 77 b 564 100 612 77 587 84 b 429 248 524 125 479 175 l 431 256 b 847 606 680 269 847 479 b 750 699 847 660 818 699 b 633 659 711 699 671 686 b 498 520 588 629 543 583 b 507 618 503 553 506 585 b 437 734 507 666 498 734 b 337 702 406 734 373 724 b 247 631 305 683 275 659 b 205 583 223 607 210 591 b 202 570 203 578 203 574 b 221 552 203 558 210 552 b 238 568 233 552 238 557 b 237 570 238 569 238 570 b 306 642 260 598 283 623 b 437 708 355 686 399 708 b 481 624 467 708 481 679 b 456 455 480 574 471 517 b 344 182 404 368 367 277 b 323 38 332 134 325 85 l 323 37 b 337 21 323 26 328 21 z m 364 148 b 393 256 372 184 381 220 l 397 248 b 364 148 387 214 376 181 z m 404 286 b 426 340 410 304 418 322 l 410 286 z m 441 287 b 486 454 458 342 473 397 b 750 673 539 541 639 673 b 821 608 798 673 821 646 b 441 287 819 500 663 307 z m 428 -190 b 82 241 188 -190 82 11 b 621 945 82 562 288 945 b 818 884 699 945 764 924 b 931 728 868 847 906 795 b 967 513 955 665 967 593 b 428 -190 967 193 763 -190 z "},"¯":{"ha":734,"x_min":0,"x_max":0,"o":"m 647 775 b 680 791 669 776 680 781 b 648 809 680 800 669 809 l 463 810 b 283 812 403 811 343 812 b 63 804 146 812 72 809 b 54 791 58 800 55 796 b 87 775 54 781 65 775 b 283 778 158 777 223 778 b 462 777 342 778 401 777 z "},"°":{"ha":456,"x_min":0,"x_max":0,"o":"m 88 451 b 224 515 124 451 169 473 b 360 660 276 557 321 605 b 422 814 401 720 422 771 b 340 907 422 861 395 892 b 364 922 349 913 357 918 b 391 956 382 930 391 942 b 373 972 391 967 385 972 b 283 914 352 972 322 953 l 267 914 b 152 901 227 914 188 909 b 123 872 133 896 123 886 b 148 851 123 861 132 851 b 163 853 153 851 157 852 b 241 869 182 859 208 864 b 34 511 172 791 34 606 b 88 451 34 473 55 451 z m 91 488 b 68 513 77 488 68 495 b 159 702 70 556 100 619 b 304 875 210 773 258 831 b 390 813 361 873 390 853 b 332 680 390 779 370 734 b 207 548 296 631 254 587 b 91 488 157 508 119 488 z "},"±":{"ha":815,"x_min":0,"x_max":0,"o":"m 427 422 b 511 723 453 523 481 623 b 513 738 513 727 513 732 b 494 755 513 749 507 755 b 475 734 486 755 479 748 b 388 422 444 631 415 527 l 316 422 b 66 414 157 422 73 420 b 60 402 62 411 60 407 b 80 386 60 394 67 386 l 83 386 b 313 390 172 389 249 390 b 380 389 335 390 357 390 b 309 84 354 288 330 186 b 307 74 308 81 307 77 b 322 54 307 60 312 54 b 344 77 334 54 340 61 b 418 389 366 182 391 286 b 505 388 447 389 475 389 b 736 386 568 387 646 386 b 761 404 753 386 761 395 b 738 420 761 414 753 419 b 508 421 648 420 572 420 b 427 422 481 422 454 422 z m 730 0 b 755 18 747 0 755 9 b 732 34 755 28 747 33 l 442 35 b 61 29 193 35 66 33 b 54 16 56 25 54 21 b 77 0 54 8 60 0 z "},"²":{"ha":644,"x_min":0,"x_max":0,"o":"m 49 226 b 105 250 61 226 80 234 b 209 326 134 267 169 293 b 300 337 239 334 269 337 b 430 317 342 337 386 330 b 543 270 469 305 507 290 b 561 264 550 267 556 264 b 575 276 570 264 575 269 b 556 298 575 285 569 292 b 311 358 475 336 393 357 l 304 358 b 243 355 283 358 263 357 b 352 454 277 382 313 415 b 472 585 395 495 435 539 b 570 727 513 634 545 682 b 610 861 596 777 610 822 b 583 934 610 891 601 916 b 469 972 557 960 519 972 b 212 786 355 972 212 899 b 218 749 212 774 214 762 b 237 732 222 737 229 732 b 250 749 245 732 250 738 b 248 762 250 753 249 758 b 243 790 245 772 243 781 b 468 953 245 888 369 953 b 548 930 501 953 528 945 b 581 861 570 914 581 891 b 436 578 581 788 533 694 b 311 444 399 534 357 489 b 199 346 272 408 235 375 b 117 316 174 340 146 330 b 42 261 80 299 55 281 b 34 239 37 252 34 245 b 49 226 34 231 39 226 z "},"³":{"ha":633,"x_min":0,"x_max":0,"o":"m 142 226 b 283 250 184 226 231 234 b 423 311 336 267 382 287 b 515 391 467 337 498 364 b 529 431 524 405 529 418 b 496 493 529 456 518 476 b 415 532 476 508 449 521 b 319 556 391 539 359 547 b 241 577 284 564 258 571 b 209 604 220 585 209 593 b 243 647 209 615 220 630 b 378 725 264 663 309 689 b 528 810 445 760 495 788 b 600 897 575 842 599 871 b 452 972 600 950 534 972 b 114 825 309 972 114 908 b 185 764 114 798 142 774 b 191 763 187 763 189 763 b 210 778 204 763 210 770 b 193 795 210 785 204 793 b 153 808 176 799 163 803 b 134 829 140 813 134 820 b 175 881 134 846 148 864 b 274 924 200 897 233 911 b 397 948 315 935 355 943 b 456 951 418 950 437 951 b 543 939 492 951 522 947 b 578 897 567 928 578 915 b 538 843 578 881 565 863 b 443 785 516 826 484 807 b 386 756 425 776 406 766 b 243 677 320 723 273 696 b 178 601 201 649 179 623 b 222 559 179 585 193 571 b 324 532 243 551 277 542 b 411 509 360 524 389 516 b 479 479 441 500 464 490 b 508 432 498 465 508 450 b 460 362 508 410 492 387 b 349 299 431 338 394 317 b 215 259 303 280 259 267 b 151 253 193 255 172 253 b 68 283 109 253 82 263 b 48 295 62 291 55 295 b 34 279 40 295 34 290 b 40 262 34 275 36 269 b 142 226 56 237 96 226 z "},"´":{"ha":190,"x_min":0,"x_max":0,"o":"m 48 359 b 61 364 52 359 56 361 l 149 446 b 156 463 153 451 156 456 b 144 489 156 472 152 481 b 115 504 135 499 125 504 b 97 493 107 504 102 500 l 37 382 b 34 372 35 379 34 376 b 46 359 34 364 38 359 z "},"µ":{"ha":539,"x_min":0,"x_max":0,"o":"m -87 -173 b -89 -183 -88 -176 -89 -180 b -74 -203 -89 -197 -84 -203 b -52 -180 -62 -203 -56 -196 l 14 71 b 63 51 24 58 41 51 b 159 96 90 51 121 66 b 290 231 192 123 236 168 b 241 -2 258 133 241 56 b 302 -99 241 -66 262 -99 b 398 -54 330 -99 362 -84 b 532 94 441 -18 486 31 b 566 138 553 122 565 137 b 570 149 568 142 570 145 b 551 165 570 157 562 165 b 539 159 546 165 543 163 b 428 20 492 97 456 51 b 341 -54 396 -14 368 -39 b 302 -65 327 -61 314 -65 b 276 -19 285 -65 276 -50 b 302 117 276 13 285 58 b 345 250 314 157 328 201 b 356 283 353 271 356 281 b 326 304 356 295 338 304 b 311 299 319 304 315 302 b 256 239 296 283 277 264 b 178 154 223 201 197 172 b 63 81 130 106 92 81 b 33 116 40 81 33 99 b 41 169 33 133 35 151 b 77 263 48 195 60 227 b 84 285 81 274 84 281 b 60 307 84 298 74 307 b 35 288 49 307 41 300 b 5 191 24 258 14 226 z "},"¶":{"ha":1013,"x_min":0,"x_max":0,"o":"m 562 -218 b 587 -195 575 -218 587 -210 l 587 -193 b 581 -13 583 -135 581 -75 b 617 387 581 106 591 246 b 865 935 656 599 734 805 l 865 936 b 955 935 893 935 923 935 b 979 954 971 935 979 945 b 956 969 979 962 970 969 l 789 970 b 601 972 726 972 663 972 b 34 496 249 972 34 715 b 102 310 34 424 56 361 b 313 205 150 255 220 220 b 294 -77 300 102 294 9 b 307 -212 294 -161 298 -206 b 322 -218 311 -216 317 -218 b 347 -193 339 -218 347 -210 b 340 -13 342 -135 340 -75 b 378 387 340 106 351 246 b 625 935 417 599 495 805 l 628 939 b 807 937 658 939 718 938 b 534 -77 610 688 534 229 b 538 -195 534 -119 536 -158 b 562 -218 540 -210 548 -218 z "},"·":{"ha":144,"x_min":0,"x_max":0,"o":"m 64 431 b 97 452 77 431 88 438 b 110 499 106 467 110 482 b 80 542 110 522 101 542 b 34 473 52 542 34 507 b 64 431 34 450 43 431 z "},"∙":{"ha":144,"x_min":0,"x_max":0,"o":"m 64 431 b 97 452 77 431 88 438 b 110 499 106 467 110 482 b 80 542 110 522 101 542 b 34 473 52 542 34 507 b 64 431 34 450 43 431 z "},"¸":{"ha":250,"x_min":0,"x_max":0,"o":"m 52 -458 b 216 -310 157 -436 215 -364 b 154 -256 216 -276 195 -258 b 117 -260 143 -256 131 -258 b 137 -204 130 -224 137 -206 b 120 -190 137 -196 130 -190 b 108 -199 115 -190 111 -193 b 77 -283 87 -253 77 -281 b 92 -298 77 -291 83 -298 l 98 -297 b 151 -286 120 -290 138 -286 b 186 -313 175 -286 186 -295 b 46 -429 186 -349 127 -411 b 34 -443 38 -431 34 -435 b 48 -458 34 -452 39 -458 z "},"¹":{"ha":366,"x_min":0,"x_max":0,"o":"m 93 226 b 109 255 101 226 109 231 b 136 408 109 301 117 352 b 200 568 151 455 172 509 b 237 647 212 595 224 621 b 303 796 267 711 290 762 b 332 917 323 846 332 886 b 283 972 332 954 316 972 b 186 944 258 972 227 963 b 45 858 140 922 92 893 b 34 840 38 852 34 846 b 50 823 34 829 41 823 b 66 841 58 823 63 829 b 170 909 98 865 133 888 b 279 951 218 937 254 951 b 309 916 299 951 309 940 b 279 792 309 884 299 843 b 209 640 267 762 243 711 b 136 483 178 580 154 528 b 85 327 111 425 94 374 b 78 245 81 302 78 275 b 93 226 79 233 85 226 z "},"º":{"ha":564,"x_min":0,"x_max":0,"o":"m 174 226 b 305 281 217 226 261 244 b 419 418 347 316 385 361 b 499 595 453 475 479 534 b 530 772 520 659 530 718 b 501 886 530 819 521 857 b 405 932 480 917 448 932 b 153 509 238 932 153 644 b 161 467 153 486 156 472 b 170 463 163 465 167 463 b 185 481 178 463 185 470 l 185 484 b 184 509 184 492 184 500 b 195 608 184 535 187 568 b 226 725 201 648 212 687 b 280 831 241 765 259 800 b 405 907 316 882 358 907 b 485 867 440 907 467 893 b 509 766 501 843 509 809 b 481 605 509 718 500 664 b 406 438 461 545 436 489 b 298 307 372 383 336 339 b 174 254 256 272 214 254 b 96 292 142 254 116 267 b 55 450 68 326 55 378 b 76 613 55 501 62 555 b 133 775 90 673 109 727 b 218 898 159 827 187 868 b 322 947 252 930 286 947 b 349 939 334 947 342 944 b 364 932 355 934 359 932 b 377 943 372 932 377 937 b 369 958 377 948 374 954 b 323 972 357 968 342 972 b 210 922 285 972 247 956 b 118 792 176 890 145 846 b 57 623 92 740 72 684 b 34 447 41 561 34 503 b 174 226 34 323 75 226 z "},"»":{"ha":629,"x_min":0,"x_max":0,"o":"m 151 682 b 136 663 141 681 136 675 b 140 646 136 659 137 652 b 298 366 190 553 243 460 b 34 87 122 192 34 99 b 48 73 34 79 40 73 b 66 81 54 73 60 75 b 315 336 146 168 230 253 b 332 372 327 347 332 359 b 326 393 332 378 330 385 b 174 665 261 503 211 593 b 151 682 167 676 159 682 z m 414 682 b 398 663 404 681 398 675 b 403 646 398 659 399 652 b 560 366 452 553 505 460 b 296 87 385 192 296 99 b 311 73 296 79 302 73 b 328 81 316 73 322 75 b 578 336 409 168 492 253 b 595 372 589 347 595 359 b 588 393 595 378 593 385 b 436 665 524 503 473 593 b 414 682 429 676 422 682 z "},"¼":{"ha":932,"x_min":0,"x_max":0,"o":"m 117 226 b 132 255 125 226 132 231 b 159 408 132 301 141 352 b 224 568 175 455 196 509 b 260 647 236 595 248 621 b 327 796 291 711 313 762 b 356 917 347 846 356 886 b 307 972 356 954 340 972 b 210 944 282 972 250 963 b 69 858 163 922 116 893 b 58 840 62 852 58 846 b 73 823 58 829 64 823 b 90 841 81 823 87 829 b 193 909 122 865 157 888 b 302 951 241 937 278 951 b 333 916 323 951 333 940 b 302 792 333 884 323 843 b 233 640 290 762 267 711 b 159 483 202 580 178 528 b 109 327 135 425 118 374 b 102 245 104 302 102 275 b 117 226 102 233 109 226 z m 41 -218 b 56 -205 47 -218 52 -214 b 753 947 363 344 595 728 b 760 964 758 954 760 959 b 751 972 760 970 758 972 b 734 960 746 972 740 968 b 37 -196 579 745 347 360 b 34 -208 35 -201 34 -205 b 41 -218 34 -214 36 -217 z m 762 -218 b 776 -200 770 -218 776 -212 l 776 -193 b 793 64 776 -100 781 -14 l 831 66 b 889 83 875 69 889 70 b 869 94 889 89 882 94 b 796 90 865 94 840 93 b 896 505 818 228 852 358 b 898 516 897 509 898 513 b 888 529 898 525 895 529 b 871 511 880 529 874 523 l 863 482 b 770 88 825 346 793 218 b 623 83 725 85 676 83 b 505 87 574 83 536 84 b 418 125 448 94 418 106 b 465 211 418 142 434 171 b 568 328 488 241 523 280 b 625 387 588 349 607 368 b 728 490 682 444 716 479 b 741 486 733 487 738 486 b 758 505 752 486 758 494 b 737 523 758 517 747 523 b 709 510 726 523 717 519 b 655 453 696 496 679 477 b 523 315 602 399 558 353 b 415 175 473 259 437 212 b 397 125 404 155 398 138 b 475 72 398 100 424 82 b 635 60 517 64 570 60 b 766 62 679 60 722 60 b 748 -189 754 -20 748 -104 l 748 -200 b 762 -218 748 -212 755 -218 z "},"½":{"ha":969,"x_min":0,"x_max":0,"o":"m 374 -218 b 431 -195 387 -218 406 -210 b 534 -117 460 -176 494 -151 b 625 -106 565 -110 595 -106 b 755 -127 668 -106 711 -113 b 869 -174 794 -138 832 -154 b 886 -180 876 -178 882 -180 b 901 -168 896 -180 901 -176 b 882 -146 901 -159 895 -152 b 636 -85 801 -107 719 -87 l 630 -85 b 569 -90 609 -85 589 -87 b 677 9 602 -62 638 -28 b 798 140 720 52 760 95 b 895 283 838 190 871 238 b 935 417 922 334 935 378 b 908 490 935 448 926 472 b 795 529 883 516 845 529 b 538 342 681 529 538 454 b 544 305 538 330 540 318 b 562 288 548 294 554 288 b 575 305 571 288 575 294 b 573 318 575 309 574 313 b 569 347 570 328 569 338 b 793 509 571 444 694 509 b 873 486 827 509 853 501 b 907 417 896 471 907 448 b 762 134 907 345 859 250 b 636 1 725 90 683 45 b 524 -98 597 -37 560 -69 b 443 -127 499 -104 472 -114 b 368 -182 406 -144 380 -163 b 359 -205 362 -191 359 -199 b 374 -218 359 -214 364 -218 z m 117 226 b 132 255 125 226 132 231 b 159 408 132 301 141 352 b 224 568 175 455 196 509 b 260 647 236 595 248 621 b 327 796 291 711 313 762 b 356 917 347 846 356 886 b 307 972 356 954 340 972 b 210 944 282 972 250 963 b 69 858 163 922 116 893 b 58 840 62 852 58 846 b 73 823 58 829 64 823 b 90 841 81 823 87 829 b 193 909 122 865 157 888 b 302 951 241 937 278 951 b 333 916 323 951 333 940 b 302 792 333 884 323 843 b 233 640 290 762 267 711 b 159 483 202 580 178 528 b 109 327 135 425 118 374 b 102 245 104 302 102 275 b 117 226 102 233 109 226 z m 41 -218 b 56 -205 47 -218 52 -214 b 753 947 363 344 595 728 b 760 964 758 954 760 959 b 751 972 760 970 758 972 b 734 960 746 972 740 968 b 37 -196 579 745 347 360 b 34 -208 35 -201 34 -205 b 41 -218 34 -214 36 -217 z "},"¾":{"ha":1223,"x_min":0,"x_max":0,"o":"m 142 226 b 283 250 184 226 231 234 b 423 311 336 267 382 287 b 515 391 467 337 498 364 b 529 431 524 405 529 418 b 496 493 529 456 518 476 b 415 532 476 508 449 521 b 319 556 391 539 359 547 b 241 577 284 564 258 571 b 209 604 220 585 209 593 b 243 647 209 615 220 630 b 378 725 264 663 309 689 b 528 810 445 760 495 788 b 600 897 575 842 599 871 b 452 972 600 950 534 972 b 114 825 309 972 114 908 b 185 764 114 798 142 774 b 191 763 187 763 189 763 b 210 778 204 763 210 770 b 193 795 210 785 204 793 b 153 808 176 799 163 803 b 134 829 140 813 134 820 b 175 881 134 846 148 864 b 274 924 200 897 233 911 b 397 948 315 935 355 943 b 456 951 418 950 437 951 b 543 939 492 951 522 947 b 578 897 567 928 578 915 b 538 843 578 881 565 863 b 443 785 516 826 484 807 b 386 756 425 776 406 766 b 243 677 320 723 273 696 b 178 601 201 649 179 623 b 222 559 179 585 193 571 b 324 532 243 551 277 542 b 411 509 360 524 389 516 b 479 479 441 500 464 490 b 508 432 498 465 508 450 b 460 362 508 410 492 387 b 349 299 431 338 394 317 b 215 259 303 280 259 267 b 151 253 193 255 172 253 b 68 283 109 253 82 263 b 48 295 62 291 55 295 b 34 279 40 295 34 290 b 40 262 34 275 36 269 b 142 226 56 237 96 226 z m 332 -218 b 347 -205 338 -218 343 -214 b 1045 947 654 344 887 728 b 1052 964 1050 954 1052 959 b 1043 972 1052 970 1049 972 b 1025 960 1038 972 1031 968 b 329 -196 871 745 639 360 b 326 -208 327 -201 326 -205 b 332 -218 326 -214 328 -217 z m 1054 -218 b 1067 -200 1061 -218 1067 -212 l 1067 -193 b 1084 64 1067 -100 1073 -14 l 1123 66 b 1181 83 1166 69 1181 70 b 1160 94 1181 89 1173 94 b 1088 90 1156 94 1132 93 b 1187 505 1109 228 1144 358 b 1190 516 1189 509 1190 513 b 1179 529 1190 525 1186 529 b 1162 511 1171 529 1166 523 l 1154 482 b 1062 88 1117 346 1084 218 b 914 83 1017 85 968 83 b 797 87 866 83 827 84 b 710 125 739 94 710 106 b 756 211 710 142 726 171 b 860 328 780 241 814 280 b 917 387 880 349 899 368 b 1019 490 974 444 1008 479 b 1033 486 1025 487 1029 486 b 1050 505 1044 486 1050 494 b 1029 523 1050 517 1038 523 b 1001 510 1018 523 1008 519 b 947 453 988 496 970 477 b 814 315 894 399 850 353 b 707 175 764 259 728 212 b 689 125 695 155 690 138 b 767 72 690 100 715 82 b 926 60 808 64 861 60 b 1058 62 970 60 1014 60 b 1040 -189 1046 -20 1040 -104 l 1040 -200 b 1054 -218 1040 -212 1046 -218 z "},"¿":{"ha":703,"x_min":0,"x_max":0,"o":"m 439 477 b 414 447 426 477 417 467 b 284 201 397 355 354 273 b 191 113 254 170 222 140 b 82 3 140 67 103 31 b 34 -125 50 -39 34 -81 b 99 -244 34 -177 56 -216 b 252 -282 139 -269 190 -282 b 479 -232 330 -282 405 -265 b 644 -89 557 -196 612 -149 b 669 17 661 -57 669 -22 b 660 73 669 35 666 54 b 631 100 653 91 644 100 b 610 73 617 100 610 91 b 613 52 610 66 611 60 b 619 7 617 37 619 22 b 497 -183 618 -74 570 -138 b 262 -251 425 -228 338 -251 b 94 -182 177 -251 121 -228 b 80 -127 85 -166 80 -149 b 129 -1 80 -85 96 -43 b 241 113 149 24 186 62 b 334 201 273 140 304 170 b 466 441 405 274 449 354 l 467 450 b 439 477 467 467 455 477 z m 474 650 b 435 625 458 650 445 642 b 420 569 425 608 420 589 b 455 519 420 542 431 519 b 494 545 471 519 484 528 b 509 600 505 562 509 580 b 474 650 509 627 498 650 z "},"×":{"ha":654,"x_min":0,"x_max":0,"o":"m 503 63 b 519 81 513 64 518 70 b 514 98 519 86 517 92 b 356 378 465 191 412 284 b 621 657 532 553 621 646 b 606 672 621 666 614 672 b 589 664 600 672 594 669 b 339 408 503 572 419 487 b 172 675 284 500 229 589 b 150 691 165 686 158 691 b 136 675 140 691 136 686 b 142 656 136 669 138 663 b 311 381 201 564 257 473 b 208 279 277 347 243 313 l 43 116 b 34 98 37 110 34 104 b 47 83 34 90 39 83 b 66 91 54 83 60 85 b 222 246 120 145 172 197 l 329 351 b 481 80 381 262 431 172 b 503 63 488 68 495 63 z "},"÷":{"ha":809,"x_min":0,"x_max":0,"o":"m 730 359 b 755 377 747 359 755 366 b 732 393 755 387 747 393 b 503 395 643 393 566 394 b 310 396 438 395 374 396 b 79 393 246 396 169 395 b 54 376 62 392 54 386 b 77 359 54 368 61 359 b 307 363 166 361 243 363 b 498 361 370 363 434 362 b 730 359 562 360 640 359 z m 413 430 b 452 456 429 430 442 439 b 467 511 463 473 467 492 b 432 562 467 538 456 562 b 393 536 416 562 403 553 b 378 480 382 519 378 500 b 413 430 378 454 389 430 z m 377 193 b 416 219 393 193 406 202 b 431 275 426 236 431 255 b 396 325 431 301 420 325 b 357 299 380 325 367 316 b 342 243 347 282 342 263 b 377 193 342 217 353 193 z "},"ȷ":{"ha":134,"x_min":0,"x_max":0,"o":"m -317 -639 b -248 -564 -300 -639 -277 -614 b -163 -390 -221 -518 -193 -460 b -50 -99 -127 -304 -89 -208 l -25 -31 b 12 30 -23 -24 -11 -3 b 26 64 22 44 26 56 b 14 81 26 73 22 79 b 44 167 16 86 26 115 b 79 289 56 203 68 243 l 80 292 b 58 309 80 302 68 309 b 39 297 48 309 42 305 b -45 20 9 186 -19 94 l -83 -47 b -242 -341 -140 -144 -193 -243 b -340 -610 -307 -473 -340 -563 b -317 -639 -340 -629 -332 -639 z m -312 -601 b -113 -171 -280 -490 -184 -294 b -172 -326 -128 -215 -149 -267 b -246 -490 -196 -384 -221 -439 b -312 -601 -271 -541 -293 -578 z "},"ʻ":{"ha":143,"x_min":0,"x_max":0,"o":"m 66 350 b 109 414 91 350 109 382 b 81 454 109 436 100 454 b 66 451 76 454 71 453 b 98 491 74 467 85 481 b 109 507 106 496 109 502 b 100 515 109 512 106 515 b 87 510 96 515 92 513 b 34 409 54 488 36 449 b 35 388 34 401 34 395 b 66 350 38 363 48 350 z "},"ʼ":{"ha":143,"x_min":0,"x_max":0,"o":"m 43 350 b 57 355 47 350 52 351 b 94 399 73 366 85 380 b 109 463 104 419 109 440 b 78 515 109 497 99 515 b 35 450 52 515 35 482 b 63 410 35 429 43 410 b 77 413 68 410 73 411 b 45 374 69 397 59 384 b 34 358 38 368 34 363 b 43 350 35 353 37 350 z "},"ˆ":{"ha":264,"x_min":0,"x_max":0,"o":"m 215 359 b 231 374 223 359 231 366 b 191 492 231 376 218 415 b 177 503 189 499 184 503 b 167 499 174 503 170 502 l 39 386 b 34 375 36 382 34 378 b 50 359 34 367 41 359 b 60 363 53 359 56 361 l 170 462 l 201 370 b 215 359 204 363 209 359 z "},"ˇ":{"ha":264,"x_min":0,"x_max":0,"o":"m 88 359 b 98 363 92 359 94 361 l 225 477 b 231 488 229 480 231 484 b 215 503 231 495 223 503 b 205 499 212 503 209 502 l 95 401 l 63 492 b 50 503 60 499 56 503 b 34 488 41 503 34 497 b 73 370 34 486 47 447 b 88 359 77 363 81 359 z "},"ˉ":{"ha":286,"x_min":0,"x_max":0,"o":"m 238 416 b 252 431 248 416 252 421 b 238 446 252 441 248 446 l 49 446 b 34 431 39 446 34 441 b 49 416 34 421 39 416 z "},"ˊ":{"ha":190,"x_min":0,"x_max":0,"o":"m 48 359 b 61 364 52 359 56 361 l 149 446 b 156 463 153 451 156 456 b 144 489 156 472 152 481 b 115 504 135 499 125 504 b 97 493 107 504 102 500 l 37 382 b 34 372 35 379 34 376 b 46 359 34 364 38 359 z "},"ˋ":{"ha":190,"x_min":0,"x_max":0,"o":"m 144 359 b 156 372 152 359 156 364 b 153 382 156 376 155 379 l 93 493 b 75 504 88 500 82 504 b 45 489 64 504 54 499 b 34 463 37 481 34 472 b 41 446 34 456 37 451 l 129 364 b 141 359 133 361 137 359 z "},"ˍ":{"ha":693,"x_min":0,"x_max":0,"o":"m 627 -308 b 659 -292 648 -307 659 -302 b 627 -274 659 -283 649 -274 l 442 -273 b 263 -271 382 -272 323 -271 b 43 -279 125 -271 52 -274 b 34 -292 37 -283 35 -287 b 66 -308 34 -302 45 -308 b 262 -305 138 -306 203 -305 b 441 -307 321 -305 381 -306 z "},"˘":{"ha":205,"x_min":0,"x_max":0,"o":"m 95 367 b 171 441 129 367 164 391 l 172 444 b 156 458 171 454 165 458 b 141 446 148 458 143 454 b 96 397 136 413 115 397 b 79 402 90 397 83 399 b 64 432 68 408 64 418 l 64 444 b 49 458 64 454 59 458 b 34 433 43 458 34 456 b 95 367 34 397 57 367 z "},"˙":{"ha":144,"x_min":0,"x_max":0,"o":"m 64 351 b 110 419 91 351 110 385 b 80 462 110 441 101 462 b 34 393 52 462 34 427 b 64 351 34 370 43 351 z "},"˚":{"ha":187,"x_min":0,"x_max":0,"o":"m 84 351 b 113 359 95 351 104 353 b 149 412 130 370 142 388 b 153 448 152 423 153 435 b 103 511 153 482 138 511 b 34 416 60 511 34 462 b 84 351 34 381 50 351 z m 84 380 b 64 415 71 380 64 395 b 103 481 64 444 79 481 b 123 447 117 481 123 467 b 84 380 123 418 109 380 z "},"˛":{"ha":255,"x_min":0,"x_max":0,"o":"m 111 -460 b 190 -441 133 -460 159 -454 b 199 -427 196 -438 199 -433 b 184 -412 199 -419 193 -412 b 178 -413 182 -412 180 -412 b 111 -430 151 -425 129 -430 b 63 -386 78 -430 63 -411 b 212 -213 63 -333 120 -251 b 221 -199 218 -210 221 -205 b 206 -184 221 -191 215 -184 b 200 -185 204 -184 202 -184 b 34 -385 91 -230 34 -319 b 66 -449 34 -415 45 -436 b 111 -460 78 -456 93 -460 z "},"˜":{"ha":335,"x_min":0,"x_max":0,"o":"m 220 375 b 287 428 248 376 271 393 b 301 473 296 448 301 463 b 286 487 301 481 294 487 b 262 447 270 487 271 469 b 220 405 251 420 237 406 b 180 439 203 406 192 420 b 115 487 165 463 148 487 b 49 435 87 486 65 469 b 34 389 39 414 34 399 b 50 375 34 380 39 375 b 64 387 56 375 62 379 b 115 457 69 410 87 456 b 155 423 132 456 144 441 b 220 375 170 400 186 375 z "},"˝":{"ha":311,"x_min":0,"x_max":0,"o":"m 48 359 b 61 364 53 359 57 361 l 149 446 b 156 463 153 451 156 456 b 144 489 156 472 152 481 b 115 504 136 499 125 504 b 97 493 107 504 102 500 l 37 382 b 34 372 35 379 34 376 b 46 359 34 364 38 359 z m 170 359 b 182 364 174 359 178 361 l 270 446 b 277 463 275 451 277 456 b 267 489 277 472 274 481 b 237 504 257 499 247 504 b 218 493 229 504 223 500 l 158 382 b 156 372 157 379 156 376 b 168 359 156 364 160 359 z "},"˷":{"ha":335,"x_min":0,"x_max":0,"o":"m 220 -384 b 287 -331 248 -383 271 -366 b 301 -286 296 -311 301 -296 b 286 -271 301 -277 294 -271 b 262 -311 270 -271 271 -290 b 220 -353 251 -339 237 -353 b 180 -319 203 -353 192 -338 b 115 -271 166 -297 148 -271 b 49 -324 87 -272 65 -290 b 34 -369 39 -345 34 -359 b 50 -383 34 -378 39 -383 b 64 -372 56 -383 62 -380 b 115 -301 69 -348 87 -302 b 155 -336 132 -302 144 -317 b 220 -384 170 -359 186 -382 z "},"̀":{"ha":190,"x_min":0,"x_max":0,"o":"m 144 359 b 156 372 152 359 156 364 b 153 382 156 376 155 379 l 93 493 b 75 504 88 500 82 504 b 45 489 64 504 54 499 b 34 463 37 481 34 472 b 41 446 34 456 37 451 l 129 364 b 141 359 133 361 137 359 z "},"́":{"ha":190,"x_min":0,"x_max":0,"o":"m 48 359 b 61 364 52 359 56 361 l 149 446 b 156 463 153 451 156 456 b 144 489 156 472 152 481 b 115 504 135 499 125 504 b 97 493 107 504 102 500 l 37 382 b 34 372 35 379 34 376 b 46 359 34 364 38 359 z "},"̂":{"ha":264,"x_min":0,"x_max":0,"o":"m 215 359 b 231 374 223 359 231 366 b 191 492 231 376 218 415 b 177 503 189 499 184 503 b 167 499 174 503 170 502 l 39 386 b 34 375 36 382 34 378 b 50 359 34 367 41 359 b 60 363 53 359 56 361 l 170 462 l 201 370 b 215 359 204 363 209 359 z "},"̃":{"ha":335,"x_min":0,"x_max":0,"o":"m 220 375 b 287 428 248 376 271 393 b 301 473 296 448 301 463 b 286 487 301 481 294 487 b 262 447 270 487 271 469 b 220 405 251 420 237 406 b 180 439 203 406 192 420 b 115 487 165 463 148 487 b 49 435 87 486 65 469 b 34 389 39 414 34 399 b 50 375 34 380 39 375 b 64 387 56 375 62 379 b 115 457 69 410 87 456 b 155 423 132 456 144 441 b 220 375 170 400 186 375 z "},"̄":{"ha":286,"x_min":0,"x_max":0,"o":"m 238 416 b 252 431 248 416 252 421 b 238 446 252 441 248 446 l 49 446 b 34 431 39 446 34 441 b 49 416 34 421 39 416 z "},"̅":{"ha":819,"x_min":0,"x_max":0,"o":"m 756 1038 b 785 1052 775 1038 785 1044 b 779 1063 785 1055 783 1059 b 308 1070 771 1067 614 1070 b 41 1063 139 1070 50 1067 b 34 1052 37 1059 34 1056 b 62 1038 34 1042 43 1038 b 253 1040 119 1039 183 1040 b 580 1038 373 1040 481 1039 z "},"̆":{"ha":205,"x_min":0,"x_max":0,"o":"m 95 367 b 171 441 129 367 164 391 l 172 444 b 156 458 171 454 165 458 b 141 446 148 458 143 454 b 96 397 136 413 115 397 b 79 402 90 397 83 399 b 64 432 68 408 64 418 l 64 444 b 49 458 64 454 59 458 b 34 433 43 458 34 456 b 95 367 34 397 57 367 z "},"̇":{"ha":157,"x_min":0,"x_max":0,"o":"m 69 366 b 109 391 85 366 98 374 b 123 446 119 408 123 427 b 88 496 123 474 113 496 b 49 471 72 496 59 488 b 34 416 39 454 34 435 b 69 366 34 389 45 366 z "},"̈":{"ha":235,"x_min":0,"x_max":0,"o":"m 64 376 b 97 397 77 376 88 383 b 110 444 106 412 110 427 b 80 487 110 467 101 487 b 34 418 52 487 34 452 b 64 376 34 395 43 376 z m 155 376 b 188 397 168 376 179 383 b 201 444 197 412 201 427 b 171 487 201 467 192 487 b 125 418 143 487 125 452 b 155 376 125 395 134 376 z "},"̊":{"ha":187,"x_min":0,"x_max":0,"o":"m 84 351 b 113 359 95 351 104 353 b 149 412 130 370 142 388 b 153 448 152 423 153 435 b 103 511 153 482 138 511 b 34 416 60 511 34 462 b 84 351 34 381 50 351 z m 84 380 b 64 415 71 380 64 395 b 103 481 64 444 79 481 b 123 447 117 481 123 467 b 84 380 123 418 109 380 z "},"̌":{"ha":264,"x_min":0,"x_max":0,"o":"m 88 359 b 98 363 92 359 94 361 l 225 477 b 231 488 229 480 231 484 b 215 503 231 495 223 503 b 205 499 212 503 209 502 l 95 401 l 63 492 b 50 503 60 499 56 503 b 34 488 41 503 34 497 b 73 370 34 486 47 447 b 88 359 77 363 81 359 z "},"̐":{"ha":205,"x_min":0,"x_max":0,"o":"m 95 367 b 171 441 129 367 164 391 l 172 444 b 156 458 171 454 165 458 b 141 446 148 458 143 454 b 96 397 136 413 115 397 b 79 402 90 397 83 399 b 64 432 68 408 64 418 l 64 444 b 49 458 64 454 59 458 b 34 433 43 458 34 456 b 95 367 34 397 57 367 z m 97 414 b 130 465 117 414 130 441 b 109 495 130 481 123 495 b 75 445 87 495 75 468 b 97 414 75 428 81 414 z "},"̕":{"ha":144,"x_min":0,"x_max":0,"o":"m 43 870 b 57 875 47 870 52 871 b 94 919 73 886 85 901 b 109 983 104 939 109 960 b 78 1035 109 1017 99 1035 b 35 970 52 1035 35 1002 b 63 930 35 949 43 930 b 77 933 68 930 73 931 b 45 894 69 917 59 904 b 34 878 38 888 34 883 b 43 870 35 873 37 870 z "},"̣":{"ha":144,"x_min":0,"x_max":0,"o":"m 64 -382 b 110 -313 91 -382 110 -348 b 80 -271 110 -290 101 -271 b 34 -340 52 -271 34 -307 b 64 -382 34 -363 43 -382 z "},"̤":{"ha":273,"x_min":0,"x_max":0,"o":"m 69 -402 b 109 -377 85 -402 98 -394 b 123 -321 119 -360 123 -341 b 88 -271 123 -295 113 -271 b 50 -297 73 -271 60 -280 b 34 -353 39 -314 34 -332 b 69 -402 34 -380 45 -402 z m 184 -402 b 224 -377 201 -402 214 -394 b 239 -321 234 -360 239 -341 b 203 -271 239 -295 228 -271 b 165 -297 188 -271 175 -280 b 149 -353 155 -314 149 -332 b 184 -402 149 -380 160 -402 z "},"̥":{"ha":187,"x_min":0,"x_max":0,"o":"m 84 -432 b 113 -423 95 -432 104 -429 b 149 -371 130 -412 142 -395 b 153 -335 152 -359 153 -348 b 103 -271 153 -300 138 -272 b 34 -366 60 -271 34 -321 b 84 -432 34 -401 50 -432 z m 84 -402 b 64 -368 71 -402 64 -387 b 103 -301 64 -338 79 -301 b 123 -336 117 -301 123 -316 b 84 -402 123 -365 109 -402 z "},"̦":{"ha":144,"x_min":0,"x_max":0,"o":"m 43 -436 b 57 -431 47 -436 52 -435 b 94 -387 73 -420 85 -406 b 109 -323 104 -367 109 -346 b 78 -271 109 -289 99 -271 b 35 -336 52 -271 35 -304 b 63 -376 35 -357 43 -376 b 77 -373 68 -376 73 -375 b 45 -412 69 -389 59 -402 b 34 -428 38 -418 34 -423 b 43 -436 35 -433 37 -436 z "},"̧":{"ha":250,"x_min":0,"x_max":0,"o":"m 52 -458 b 216 -310 157 -436 215 -364 b 154 -256 216 -276 195 -258 b 117 -260 143 -256 131 -258 b 137 -204 130 -224 137 -206 b 120 -190 137 -196 130 -190 b 108 -199 115 -190 111 -193 b 77 -283 87 -253 77 -281 b 92 -298 77 -291 83 -298 l 98 -297 b 151 -286 120 -290 138 -286 b 186 -313 175 -286 186 -295 b 46 -429 186 -349 127 -411 b 34 -443 38 -431 34 -435 b 48 -458 34 -452 39 -458 z "},"̱":{"ha":286,"x_min":0,"x_max":0,"o":"m 238 -301 b 252 -286 248 -301 252 -296 b 238 -271 252 -276 248 -271 l 49 -271 b 34 -286 39 -271 34 -276 b 49 -301 34 -296 39 -301 z "},"–":{"ha":709,"x_min":0,"x_max":0,"o":"m 632 309 b 655 323 648 309 655 315 b 650 334 655 326 653 330 b 273 341 644 338 518 341 b 60 334 138 341 67 338 b 54 323 56 330 54 327 b 77 309 54 313 62 309 b 230 311 123 310 174 311 b 491 309 326 311 413 310 z "},"—":{"ha":1311,"x_min":0,"x_max":0,"o":"m 1210 309 b 1257 323 1240 309 1257 315 b 1245 334 1257 326 1253 330 b 492 341 1234 338 983 341 b 66 334 222 341 81 338 b 54 323 58 330 54 327 b 100 309 54 313 69 309 b 405 311 191 310 292 311 b 928 309 597 311 771 310 z "},"‘":{"ha":162,"x_min":0,"x_max":0,"o":"m 73 766 b 113 792 90 766 102 775 b 127 847 123 809 127 827 b 92 897 127 874 117 897 b 75 893 86 897 80 896 b 114 943 84 913 97 930 b 128 962 123 949 128 956 b 117 972 127 969 124 972 b 100 966 112 972 106 970 b 34 841 60 939 36 890 b 35 814 34 831 35 823 b 73 766 39 782 52 766 z "},"’":{"ha":161,"x_min":0,"x_max":0,"o":"m 45 766 b 62 772 50 766 56 768 b 109 827 82 787 98 805 b 127 907 121 852 127 879 b 121 949 127 924 125 938 b 89 972 115 964 104 972 b 50 947 73 972 60 964 b 35 891 39 930 35 911 b 70 842 35 864 45 842 b 87 846 76 842 82 843 b 48 796 78 825 65 809 b 34 777 39 789 34 783 b 45 766 35 770 38 766 z "},"‚":{"ha":162,"x_min":0,"x_max":0,"o":"m 46 -75 b 62 -69 51 -75 56 -73 b 110 -14 83 -55 98 -37 b 128 65 122 11 128 37 b 121 107 128 81 126 94 b 89 131 115 123 104 131 b 50 104 73 131 60 122 b 35 50 39 88 35 70 b 70 0 35 22 45 0 b 87 4 76 0 82 1 b 48 -45 79 -16 65 -33 b 34 -65 39 -52 34 -59 b 46 -75 35 -72 39 -75 z "},"“":{"ha":274,"x_min":0,"x_max":0,"o":"m 73 766 b 113 792 90 766 102 775 b 127 847 123 809 127 827 b 92 897 127 874 117 897 b 75 893 86 897 80 896 b 114 943 84 913 97 930 b 128 962 123 949 128 956 b 117 972 127 969 124 972 b 100 966 112 972 106 970 b 34 841 60 939 36 890 b 35 814 34 831 35 823 b 73 766 39 782 52 766 z m 185 766 b 224 792 201 766 214 775 b 239 847 235 809 239 827 b 204 897 239 874 229 897 b 186 893 198 897 192 896 b 226 943 195 913 209 930 b 240 962 235 949 240 956 b 228 972 239 969 235 972 b 212 966 223 972 218 970 b 164 911 191 952 176 934 b 146 831 152 886 146 860 b 185 766 146 788 159 766 z "},"”":{"ha":273,"x_min":0,"x_max":0,"o":"m 45 766 b 62 772 50 766 56 768 b 109 827 82 787 98 805 b 127 907 121 852 127 879 b 121 949 127 924 125 938 b 89 972 115 964 104 972 b 50 947 73 972 60 964 b 35 891 39 930 35 911 b 70 842 35 864 45 842 b 87 846 76 842 82 843 b 48 796 78 825 65 809 b 34 777 39 789 34 783 b 45 766 35 770 38 766 z m 157 766 b 174 772 161 766 167 768 b 220 827 193 787 209 805 b 239 907 233 852 239 879 b 232 949 239 924 237 938 b 200 972 226 964 215 972 b 161 947 183 972 170 964 b 146 891 151 930 146 911 b 181 842 146 864 157 842 b 199 846 187 842 193 843 b 159 796 189 825 176 809 b 145 777 150 789 145 783 b 157 766 146 770 149 766 z "},"„":{"ha":273,"x_min":0,"x_max":0,"o":"m 45 -103 b 62 -97 50 -103 56 -101 b 109 -42 82 -83 98 -64 b 127 38 121 -17 127 9 b 121 79 127 55 125 68 b 89 103 115 95 104 103 b 50 77 73 103 60 94 b 35 22 39 60 35 41 b 70 -28 35 -5 45 -28 b 87 -24 76 -28 82 -26 b 48 -73 78 -44 65 -60 b 34 -93 39 -80 34 -87 b 45 -103 35 -100 38 -103 z m 157 -103 b 174 -97 161 -103 167 -101 b 220 -42 193 -83 209 -64 b 239 38 233 -17 239 9 b 232 79 239 55 237 68 b 200 103 226 95 215 103 b 161 77 183 103 170 94 b 146 22 151 60 146 41 b 181 -28 146 -5 157 -28 b 199 -24 187 -28 193 -26 b 159 -73 189 -44 176 -60 b 145 -93 150 -80 145 -87 b 157 -103 146 -100 149 -103 z "},"†":{"ha":602,"x_min":0,"x_max":0,"o":"m 189 -218 b 214 -195 202 -218 214 -210 l 214 -193 b 208 -13 210 -135 208 -75 b 235 329 208 100 216 214 b 329 681 254 457 286 574 l 338 680 b 545 677 376 680 445 678 b 568 696 561 678 568 688 b 546 711 568 706 561 711 b 344 714 449 712 381 713 b 492 935 385 805 435 878 b 498 951 496 940 498 945 b 477 972 498 962 489 972 b 455 961 469 972 462 968 b 307 715 398 897 349 814 l 265 715 b 58 711 223 715 154 714 b 34 694 42 711 34 706 b 56 677 34 686 41 677 b 254 682 141 681 207 682 l 294 682 b 161 -77 200 438 161 140 b 165 -195 161 -119 163 -158 b 189 -218 167 -210 175 -218 z "},"‡":{"ha":703,"x_min":0,"x_max":0,"o":"m 290 -218 b 315 -195 303 -218 315 -210 l 315 -193 b 309 -13 311 -135 309 -75 l 309 43 b 545 40 345 41 424 41 b 569 58 562 40 569 50 b 547 74 569 68 562 73 b 310 77 417 75 338 75 b 430 681 318 267 353 492 l 439 680 b 646 677 477 680 546 678 b 669 696 662 678 669 688 b 647 711 669 706 662 711 b 444 714 549 712 481 713 b 592 935 485 803 534 877 b 600 951 597 939 600 945 b 578 972 600 962 591 972 b 556 961 570 972 563 968 b 408 715 500 898 451 816 l 303 715 b 142 707 200 713 146 711 b 134 694 137 703 134 699 b 157 677 134 686 142 677 b 355 682 241 681 307 682 l 395 682 b 268 77 326 498 283 296 l 232 77 b 41 68 112 77 48 75 b 34 56 36 65 34 61 b 57 40 34 48 41 40 b 250 44 146 43 210 44 l 266 44 b 262 -77 264 1 262 -39 b 266 -195 262 -119 264 -158 b 290 -218 268 -210 276 -218 z "},"•":{"ha":246,"x_min":0,"x_max":0,"o":"m 104 356 b 182 407 136 356 162 373 b 212 517 201 440 212 477 b 142 616 212 571 191 616 b 64 566 110 616 83 600 b 34 456 44 532 34 496 b 104 356 34 401 56 356 z "},"…":{"ha":1084,"x_min":0,"x_max":0,"o":"m 69 0 b 109 26 85 0 98 9 b 123 81 119 43 123 61 b 88 131 123 107 113 131 b 50 106 73 131 60 123 b 34 50 39 89 34 70 b 69 0 34 22 45 0 z m 532 0 b 572 26 549 0 562 9 b 587 81 582 43 587 61 b 551 131 587 107 576 131 b 513 106 536 131 523 123 b 497 50 503 89 497 70 b 532 0 497 22 508 0 z m 996 0 b 1035 26 1012 0 1025 9 b 1050 81 1045 43 1050 61 b 1015 131 1050 107 1039 131 b 976 106 999 131 986 123 b 960 50 966 89 960 70 b 996 0 960 22 971 0 z "},"‹":{"ha":366,"x_min":0,"x_max":0,"o":"m 215 73 b 231 91 225 73 231 79 b 226 108 231 96 229 102 b 68 388 176 201 123 294 b 332 667 244 562 332 655 b 318 682 332 675 326 682 b 300 673 313 682 307 679 b 51 418 220 586 136 501 b 34 382 39 407 34 395 b 41 361 34 376 36 369 b 193 90 105 251 155 161 b 215 73 199 78 207 73 z "},"›":{"ha":366,"x_min":0,"x_max":0,"o":"m 151 682 b 136 663 141 681 136 675 b 140 646 136 659 137 652 b 298 366 190 553 243 460 b 34 87 122 192 34 99 b 48 73 34 79 40 73 b 66 81 54 73 60 75 b 315 336 146 168 230 253 b 332 372 327 347 332 359 b 326 393 332 378 330 385 b 174 665 261 503 211 593 b 151 682 167 676 159 682 z "},"⁄":{"ha":794,"x_min":0,"x_max":0,"o":"m 41 -218 b 56 -205 47 -218 52 -214 b 753 947 363 344 595 728 b 760 964 758 954 760 959 b 751 972 760 970 758 972 b 734 960 746 972 740 968 b 37 -196 579 745 347 360 b 34 -208 35 -201 34 -205 b 41 -218 34 -214 36 -217 z "},"∕":{"ha":794,"x_min":0,"x_max":0,"o":"m 41 -218 b 56 -205 47 -218 52 -214 b 753 947 363 344 595 728 b 760 964 758 954 760 959 b 751 972 760 970 758 972 b 734 960 746 972 740 968 b 37 -196 579 745 347 360 b 34 -208 35 -201 34 -205 b 41 -218 34 -214 36 -217 z "},"⁰":{"ha":564,"x_min":0,"x_max":0,"o":"m 174 226 b 305 281 217 226 261 244 b 419 418 347 316 385 361 b 499 595 453 475 479 534 b 530 772 520 659 530 718 b 501 886 530 819 521 857 b 405 932 480 917 448 932 b 153 509 238 932 153 644 b 161 467 153 486 156 472 b 170 463 163 465 167 463 b 185 481 178 463 185 470 l 185 484 b 184 509 184 492 184 500 b 195 608 184 535 187 568 b 226 725 201 648 212 687 b 280 831 241 765 259 800 b 405 907 316 882 358 907 b 485 867 440 907 467 893 b 509 766 501 843 509 809 b 481 605 509 718 500 664 b 406 438 461 545 436 489 b 298 307 372 383 336 339 b 174 254 256 272 214 254 b 96 292 142 254 116 267 b 55 450 68 326 55 378 b 76 613 55 501 62 555 b 133 775 90 673 109 727 b 218 898 159 827 187 868 b 322 947 252 930 286 947 b 349 939 334 947 342 944 b 364 932 355 934 359 932 b 377 943 372 932 377 937 b 369 958 377 948 374 954 b 323 972 357 968 342 972 b 210 922 285 972 247 956 b 118 792 176 890 145 846 b 57 623 92 740 72 684 b 34 447 41 561 34 503 b 174 226 34 323 75 226 z "},"⁴":{"ha":568,"x_min":0,"x_max":0,"o":"m 399 226 b 412 244 406 226 412 231 l 412 251 b 429 508 412 344 418 429 l 468 510 b 526 526 511 513 526 513 b 505 538 526 534 518 538 b 433 534 501 538 477 536 b 532 949 454 671 489 802 b 534 960 534 953 534 956 b 524 972 534 968 531 972 b 507 955 516 972 511 966 l 499 926 b 407 532 462 789 429 662 b 259 526 361 529 313 527 b 142 531 211 526 172 528 b 55 569 84 537 55 550 b 101 654 55 586 71 614 b 205 772 125 685 159 724 b 262 831 224 793 243 812 b 364 935 319 888 353 922 b 378 930 370 931 374 930 b 395 948 389 930 395 939 b 374 966 395 962 383 966 b 346 954 363 966 353 962 b 292 897 333 940 315 921 b 159 758 239 843 195 797 b 52 618 109 703 73 656 b 34 569 40 599 35 582 b 112 515 35 544 60 526 b 271 503 153 507 206 503 b 403 507 315 503 359 505 b 385 254 391 423 385 339 l 385 243 b 399 226 385 232 391 226 z "},"₣":{"ha":739,"x_min":0,"x_max":0,"o":"m 543 51 b 568 68 559 51 568 60 b 545 85 568 79 560 84 l 317 85 b 355 236 329 136 341 186 b 482 273 399 249 441 261 b 685 308 569 296 637 308 b 753 297 710 308 733 304 b 767 294 758 295 763 294 b 788 314 781 294 788 304 b 765 340 788 326 781 334 b 681 352 743 348 714 352 b 368 278 589 352 477 316 b 626 858 428 476 514 669 b 630 871 629 863 630 867 b 608 894 630 884 621 894 b 586 879 600 894 592 889 b 323 264 470 683 382 478 b 152 215 254 240 196 224 b 78 207 125 210 100 207 b 22 243 45 207 22 219 b 66 322 22 262 37 288 b 161 420 87 347 119 379 b 287 555 222 477 264 522 b 309 610 301 575 308 593 b 211 696 307 663 257 682 b 144 743 174 707 145 719 b 290 864 147 791 202 831 b 789 939 420 911 617 939 b 1146 824 983 939 1146 903 b 1133 798 1146 817 1142 808 b 1125 780 1128 792 1125 786 b 1126 772 1125 778 1126 775 b 1152 755 1131 761 1140 755 b 1189 790 1166 755 1179 766 b 1195 821 1193 800 1195 810 b 785 972 1195 924 1005 972 b 517 951 698 972 608 966 b 279 892 425 937 347 918 b 132 798 208 865 159 834 b 111 741 117 780 111 761 b 170 675 111 707 138 689 b 275 610 212 658 275 647 b 213 517 274 591 253 559 b 153 458 195 498 174 479 b 44 344 104 410 68 372 b -8 243 9 302 -8 269 b 78 177 -8 199 20 177 b 313 224 142 177 225 198 b 281 85 301 178 290 132 l 252 85 b 142 80 184 85 147 83 b 136 67 138 76 136 72 b 158 51 136 59 142 51 l 274 51 b 237 -193 259 -28 247 -110 l 237 -197 b 252 -218 237 -211 241 -218 b 271 -195 262 -218 269 -210 b 310 51 280 -111 293 -29 z "},"₤":{"ha":844,"x_min":0,"x_max":0,"o":"m 263 366 b 72 357 141 366 77 363 b 67 345 68 354 67 350 b 85 328 67 337 73 328 b 260 332 153 331 212 332 l 313 332 b 317 312 316 326 317 319 b 304 271 317 302 313 288 l 263 271 b 72 263 141 271 77 269 b 67 251 68 260 67 256 b 85 234 67 243 73 234 b 260 238 153 237 212 238 l 283 238 b 279 231 282 236 281 233 b 191 123 261 207 232 171 b 84 -11 142 66 106 22 b 34 -124 51 -58 34 -96 b 218 -218 34 -186 96 -218 b 515 -186 303 -218 401 -207 b 692 -143 608 -168 667 -154 b 730 -92 717 -132 729 -115 b 681 -53 728 -73 715 -53 b 626 -92 644 -53 626 -71 b 635 -117 626 -101 629 -109 b 220 -184 461 -162 323 -184 b 68 -124 119 -184 68 -164 b 113 -26 68 -101 83 -68 b 214 96 134 2 168 43 b 314 220 260 150 293 191 l 327 237 b 407 237 353 237 380 237 b 585 234 456 235 515 235 b 603 252 597 235 603 241 b 586 268 603 262 597 268 b 410 270 517 269 458 269 b 346 271 389 271 367 271 b 360 318 355 289 360 305 b 359 332 360 323 359 327 b 407 331 374 331 391 331 b 585 328 456 330 515 329 b 603 347 597 329 603 335 b 586 362 603 357 597 362 b 410 364 517 363 458 363 b 341 365 387 365 364 365 b 327 380 337 370 332 375 b 252 429 311 393 287 410 b 166 488 213 452 184 471 b 126 569 140 512 126 539 b 197 715 126 615 150 664 b 365 845 241 763 297 806 b 564 926 433 884 499 910 b 651 937 595 933 625 937 b 771 838 722 937 771 908 b 736 713 771 806 760 765 b 699 637 724 688 712 662 b 695 619 696 631 695 625 b 718 596 695 605 705 596 b 745 615 728 596 738 602 b 810 827 787 699 808 769 b 652 972 810 930 743 972 b 361 884 568 972 461 938 b 224 791 311 857 265 826 b 84 570 140 722 86 644 b 159 445 85 522 110 480 b 225 402 181 429 203 415 b 282 366 250 388 269 376 z "},"₧":{"ha":1614,"x_min":0,"x_max":0,"o":"m 237 -73 b 288 176 245 -3 262 79 b 383 468 313 272 345 370 b 349 317 373 417 361 367 l 345 319 b 324 296 334 318 324 309 b 337 269 324 287 328 278 b 237 -73 307 154 273 40 z m 1154 -87 b 1143 -77 1147 -87 1143 -83 b 1162 -40 1143 -66 1149 -54 b 1279 35 1185 -15 1223 10 b 1190 -68 1263 -1 1233 -36 b 1154 -87 1175 -81 1162 -87 z m 878 610 b 800 600 851 608 825 604 b 575 486 650 577 575 539 b 606 448 575 467 585 448 b 633 473 620 448 633 460 b 627 486 633 477 631 482 b 625 492 625 488 625 490 b 783 567 625 525 690 551 b 871 580 811 572 840 576 b 852 510 867 556 860 533 b 536 191 796 346 684 191 b 378 285 478 191 425 222 b 439 595 407 404 428 507 b 638 861 501 722 568 811 b 751 900 675 887 713 900 b 829 873 783 900 810 891 b 886 703 867 838 886 782 b 878 610 886 674 883 643 z m 902 583 b 993 589 932 586 962 588 b 885 262 950 482 914 373 b 836 -30 852 138 836 40 b 892 -142 836 -104 854 -142 b 998 -83 919 -142 954 -122 b 1112 37 1034 -52 1072 -12 b 1193 142 1158 92 1185 127 b 1207 135 1198 140 1202 137 b 1284 75 1242 118 1274 99 b 1139 -20 1219 45 1171 14 b 1104 -88 1116 -45 1104 -68 b 1140 -121 1105 -109 1118 -121 b 1255 -54 1172 -121 1211 -99 b 1321 54 1293 -15 1315 20 b 1466 103 1371 73 1419 90 b 1568 125 1512 116 1546 123 b 1580 142 1576 127 1580 132 b 1567 159 1580 153 1575 159 l 1565 159 b 1458 137 1539 157 1503 149 b 1317 89 1413 125 1366 109 b 1227 156 1301 119 1264 140 b 1161 210 1192 172 1161 188 b 1319 302 1161 258 1263 302 b 1357 279 1343 302 1357 295 b 1382 254 1357 262 1369 254 b 1408 286 1399 254 1408 264 b 1338 340 1408 327 1376 340 b 1228 313 1304 340 1267 331 b 1143 246 1189 294 1160 272 b 1129 206 1134 233 1129 220 b 1154 166 1129 192 1137 178 b 1164 159 1157 164 1160 161 l 1162 155 b 901 -111 1118 97 966 -111 b 867 -37 878 -111 867 -86 b 921 252 867 29 885 125 b 1037 591 956 376 995 488 l 1097 591 b 1352 563 1229 591 1314 582 b 1350 553 1350 559 1350 556 b 1369 535 1350 542 1358 535 b 1393 564 1381 535 1393 544 b 1360 599 1393 581 1382 592 b 1100 621 1310 614 1223 621 l 1049 621 b 1128 772 1079 690 1105 740 b 1139 768 1132 770 1135 768 b 1160 793 1152 768 1160 780 b 1133 821 1160 807 1152 821 b 1093 794 1117 821 1103 811 b 1005 619 1067 755 1038 697 b 907 613 972 618 939 616 b 915 705 912 644 914 675 b 753 934 915 836 867 931 b 449 677 642 932 537 829 b 451 751 450 701 451 725 b 324 972 451 899 409 972 b 216 924 290 972 253 956 b 47 675 160 874 104 791 b 16 597 26 631 16 605 b 35 572 16 581 24 572 b 61 595 45 572 54 579 b 141 762 90 662 117 718 b 258 913 180 833 218 883 b 324 939 279 930 302 938 b 419 760 387 939 419 879 b 406 600 419 712 415 659 b 293 326 362 513 325 422 b 218 47 261 229 236 136 b 191 -180 200 -42 191 -118 b 212 -218 191 -205 198 -218 b 238 -187 222 -218 231 -208 b 365 237 297 -2 340 140 b 532 159 418 185 474 159 b 660 194 578 159 621 171 b 845 414 734 237 796 311 b 902 583 871 471 890 527 z "},"€":{"ha":739,"x_min":0,"x_max":0,"o":"m 81 313 b 378 312 189 313 288 313 l 543 311 b 571 326 562 311 571 318 b 564 336 571 329 569 333 b 121 344 557 341 410 344 l 96 344 b 132 412 107 366 119 389 b 378 411 221 412 302 412 l 543 410 b 571 425 562 410 571 417 b 564 435 571 428 569 432 b 150 443 557 440 419 443 b 192 511 163 465 177 488 b 393 761 254 606 321 690 b 615 917 469 836 543 888 b 722 939 652 932 688 939 b 808 853 779 939 808 911 b 764 675 808 812 793 752 b 748 619 753 646 748 627 b 772 594 748 603 761 594 b 804 640 791 594 796 612 b 844 842 821 693 844 775 b 722 973 844 928 803 971 b 151 514 532 970 311 762 b 108 443 136 490 121 467 b -129 435 -42 443 -121 440 b -136 425 -134 432 -136 429 b -109 410 -136 415 -127 410 b 71 412 -56 412 4 412 l 91 412 b 56 344 78 390 66 367 b -129 336 -60 343 -122 340 b -136 326 -134 333 -136 330 b -109 311 -136 316 -127 311 b 41 313 -64 313 -14 313 b -22 143 15 254 -6 198 b -47 -18 -39 84 -47 30 b -2 -162 -47 -80 -32 -128 b 140 -218 30 -199 77 -218 b 735 139 279 -218 478 -99 b 745 159 742 146 745 153 b 720 183 745 170 732 183 b 702 174 714 183 708 180 b 558 43 652 125 604 81 b 140 -184 382 -109 242 -184 b 25 -137 88 -184 50 -168 b -11 -16 1 -108 -11 -68 b 46 231 -11 52 8 134 b 81 313 56 258 68 286 z "},"№":{"ha":1605,"x_min":0,"x_max":0,"o":"m 807 -218 b 835 -193 818 -218 830 -209 b 896 39 852 -121 873 -44 b 999 452 943 212 978 349 b 1033 709 1021 562 1033 647 b 915 896 1033 830 994 892 l 913 896 b 774 854 870 896 824 882 b 460 562 673 797 563 692 b 518 865 498 694 517 795 b 455 972 518 937 497 972 b 317 907 418 972 372 951 b 161 751 267 867 215 815 b 35 567 111 690 69 629 b -18 422 -1 505 -18 456 b 43 358 -18 388 -2 358 b 130 380 66 358 96 366 b 151 408 144 386 151 395 b 132 427 151 420 144 427 b 111 421 125 427 118 425 b 47 402 83 408 62 402 b 21 432 30 402 21 412 b 449 939 24 555 323 939 b 487 871 474 939 487 916 b 393 473 487 791 456 659 b 159 28 284 319 206 171 b 123 -176 136 -46 123 -114 b 147 -218 123 -208 136 -218 b 180 -188 161 -218 172 -208 b 429 459 283 49 366 264 b 669 744 508 577 589 672 b 904 861 758 822 836 861 b 999 712 967 861 999 811 b 965 471 999 653 987 572 b 863 93 945 379 911 253 b 785 -193 811 -84 785 -180 b 807 -218 785 -210 793 -218 z m 173 -108 b 336 309 191 8 245 146 b 173 -108 295 197 241 58 z m 1214 226 b 1345 281 1257 226 1301 244 b 1459 418 1387 316 1425 361 b 1539 595 1493 475 1520 534 b 1571 772 1560 659 1571 718 b 1541 886 1571 819 1561 857 b 1445 932 1520 917 1489 932 b 1194 509 1278 932 1194 644 b 1201 467 1194 486 1196 472 b 1211 463 1204 465 1207 463 b 1225 481 1218 463 1225 470 l 1225 484 b 1224 509 1225 492 1224 500 b 1235 608 1224 535 1227 568 b 1266 725 1242 648 1252 687 b 1320 831 1281 765 1299 800 b 1445 907 1356 882 1398 907 b 1525 867 1480 907 1507 893 b 1550 766 1541 843 1550 809 b 1521 605 1550 718 1540 664 b 1446 438 1501 545 1476 489 b 1338 307 1413 383 1377 339 b 1214 254 1296 272 1255 254 b 1137 292 1182 254 1156 267 b 1095 450 1109 326 1095 378 b 1116 613 1095 501 1102 555 b 1173 775 1131 673 1149 727 b 1258 898 1199 827 1227 868 b 1362 947 1292 930 1326 947 b 1390 939 1374 947 1383 944 b 1404 932 1395 934 1400 932 b 1417 943 1413 932 1417 937 b 1409 958 1417 948 1415 954 b 1364 972 1398 968 1383 972 b 1251 922 1325 972 1287 956 b 1158 792 1216 890 1185 846 b 1097 623 1133 740 1112 684 b 1074 447 1082 561 1074 503 b 1214 226 1074 323 1116 226 z m 1546 61 b 1571 79 1563 61 1571 71 b 1548 95 1571 89 1563 94 l 1462 96 b 1081 90 1213 96 1086 94 b 1074 77 1076 86 1074 82 b 1097 61 1074 69 1080 61 z "},"™":{"ha":1444,"x_min":0,"x_max":0,"o":"m 160 288 b 178 304 168 288 173 294 l 224 429 b 281 660 256 516 275 593 b 374 859 310 724 341 791 l 395 899 b 402 895 397 897 399 895 b 413 909 408 895 413 901 b 398 935 413 926 406 935 b 372 911 389 935 380 927 l 351 869 b 281 722 329 824 306 775 b 87 930 273 817 221 894 b 671 1007 245 981 490 1007 b 736 1006 694 1007 715 1006 b 758 1020 750 1006 758 1013 b 737 1034 758 1027 751 1034 b 694 1035 724 1035 709 1035 b 357 1010 589 1035 477 1027 b 45 940 229 993 124 969 b 34 927 37 937 34 932 b 47 917 34 922 38 919 b 215 830 124 901 180 871 b 262 688 246 793 262 745 l 262 681 b 147 309 192 528 153 404 b 160 288 147 295 151 288 z m 181 385 b 250 588 195 444 218 512 b 181 385 237 532 214 465 z m 1235 288 b 1251 309 1244 288 1251 295 b 1250 319 1251 312 1251 315 b 1246 353 1247 329 1246 340 b 1273 496 1246 389 1255 436 b 1333 667 1284 534 1304 591 b 1399 865 1366 757 1388 823 b 1411 943 1407 896 1411 922 b 1360 1004 1411 983 1394 1003 b 1151 755 1304 1003 1234 920 b 1062 564 1125 704 1095 641 b 1078 637 1065 580 1071 604 b 1102 825 1093 707 1101 769 b 1089 918 1102 865 1098 897 b 1038 957 1079 944 1061 957 b 890 842 990 957 937 910 b 899 943 896 880 899 914 b 848 1035 899 1004 882 1035 b 677 724 751 1035 677 836 b 688 673 677 696 681 680 b 697 670 691 671 694 670 b 712 688 705 670 712 676 b 711 696 712 690 711 693 b 707 738 708 707 707 722 b 848 1015 707 839 761 1013 b 880 951 869 1015 880 994 b 857 791 880 911 873 857 b 695 318 767 635 696 414 b 700 292 695 304 696 296 b 709 288 703 290 705 288 b 727 304 717 288 723 294 b 791 481 743 342 764 401 l 794 490 b 880 790 831 602 860 701 b 1034 936 935 887 986 936 b 1070 908 1051 936 1063 926 b 1080 843 1076 892 1080 870 b 1068 716 1080 806 1076 763 b 1019 493 1056 645 1040 571 b 1010 456 1013 471 1010 458 b 1025 442 1010 447 1017 442 b 1041 454 1032 442 1038 446 l 1068 515 b 1153 707 1101 592 1129 656 b 1360 982 1239 889 1308 981 b 1389 943 1379 981 1389 968 b 1365 833 1389 918 1381 881 b 1310 682 1356 805 1338 754 b 1243 496 1279 601 1257 538 b 1211 341 1222 431 1211 379 b 1223 293 1211 315 1215 299 b 1235 288 1227 290 1231 288 z m 726 361 b 835 700 734 422 776 568 b 769 486 812 621 791 549 b 726 361 755 443 740 401 z "},"⅓":{"ha":1079,"x_min":0,"x_max":0,"o":"m 93 226 b 109 255 101 226 109 231 b 136 408 109 301 117 352 b 200 568 151 455 172 509 b 237 647 212 595 224 621 b 303 796 267 711 290 762 b 332 917 323 846 332 886 b 283 972 332 954 316 972 b 186 944 258 972 227 963 b 45 858 140 922 92 893 b 34 840 38 852 34 846 b 50 823 34 829 41 823 b 66 841 58 823 63 829 b 170 909 98 865 133 888 b 279 951 218 937 254 951 b 309 916 299 951 309 940 b 279 792 309 884 299 843 b 209 640 267 762 243 711 b 136 483 178 580 154 528 b 85 327 111 425 94 374 b 78 245 81 302 78 275 b 93 226 79 233 85 226 z m 54 -218 b 69 -205 60 -218 65 -214 b 767 947 376 344 609 728 b 774 964 772 954 774 959 b 765 972 774 970 771 972 b 747 960 760 972 753 968 b 51 -196 593 745 361 360 b 47 -208 49 -201 47 -205 b 54 -218 47 -214 50 -217 z m 587 -218 b 729 -194 629 -218 677 -210 b 869 -133 781 -178 828 -157 b 961 -54 913 -106 944 -80 b 975 -12 970 -39 975 -26 b 941 50 975 12 964 33 b 861 87 922 64 895 77 b 765 112 836 96 804 104 b 687 133 730 120 704 127 b 654 159 665 141 654 150 b 688 203 654 172 666 186 b 823 281 709 219 755 245 b 974 366 890 315 941 344 b 1045 453 1021 398 1044 427 b 897 528 1045 506 980 528 b 559 381 754 528 559 464 b 631 320 559 354 587 330 b 637 319 633 319 635 319 b 656 334 650 319 656 326 b 638 352 656 341 650 349 b 598 363 621 355 608 359 b 580 385 586 369 580 376 b 621 437 580 403 593 420 b 720 479 646 453 679 467 b 842 505 760 492 801 500 b 901 508 863 507 883 508 b 989 494 938 508 967 503 b 1024 452 1013 485 1024 471 b 984 399 1024 437 1010 418 b 888 342 962 382 930 363 b 831 312 870 332 851 322 b 689 233 766 279 718 252 b 624 157 646 205 625 180 b 668 115 625 140 639 127 b 770 88 689 108 723 98 b 857 66 806 79 835 72 b 925 35 887 56 909 46 b 954 -12 944 22 954 6 b 906 -82 954 -33 938 -57 b 794 -145 877 -106 840 -127 b 661 -185 749 -163 705 -177 b 596 -191 639 -189 617 -191 b 513 -161 555 -191 528 -181 b 494 -149 507 -153 500 -149 b 479 -164 486 -149 479 -155 b 486 -181 479 -170 481 -175 b 587 -218 502 -208 542 -218 z "},"⅔":{"ha":1452,"x_min":0,"x_max":0,"o":"m 49 226 b 105 250 61 226 80 234 b 209 326 134 267 169 293 b 300 337 239 334 269 337 b 430 317 342 337 386 330 b 543 270 469 305 507 290 b 561 264 550 267 556 264 b 575 276 570 264 575 269 b 556 298 575 285 569 292 b 311 358 475 336 393 357 l 304 358 b 243 355 283 358 263 357 b 352 454 277 382 313 415 b 472 585 395 495 435 539 b 570 727 513 634 545 682 b 610 861 596 777 610 822 b 583 934 610 891 601 916 b 469 972 557 960 519 972 b 212 786 355 972 212 899 b 218 749 212 774 214 762 b 237 732 222 737 229 732 b 250 749 245 732 250 738 b 248 762 250 753 249 758 b 243 790 245 772 243 781 b 468 953 245 888 369 953 b 548 930 501 953 528 945 b 581 861 570 914 581 891 b 436 578 581 788 533 694 b 311 444 399 534 357 489 b 199 346 272 408 235 375 b 117 316 174 340 146 330 b 42 261 80 299 55 281 b 34 239 37 252 34 245 b 49 226 34 231 39 226 z m 427 -218 b 442 -205 433 -218 438 -214 b 1140 947 749 344 982 728 b 1147 964 1145 954 1147 959 b 1138 972 1147 970 1144 972 b 1120 960 1133 972 1126 968 b 424 -196 966 745 734 360 b 420 -208 422 -201 420 -205 b 427 -218 420 -214 422 -217 z m 960 -218 b 1102 -194 1002 -218 1050 -210 b 1242 -133 1154 -178 1201 -157 b 1334 -54 1286 -106 1317 -80 b 1348 -12 1343 -39 1348 -26 b 1314 50 1348 12 1337 33 b 1234 87 1295 64 1267 77 b 1138 112 1209 96 1177 104 b 1060 133 1103 120 1077 127 b 1027 159 1038 141 1027 150 b 1061 203 1027 172 1039 186 b 1196 281 1082 219 1128 245 b 1347 366 1263 315 1314 344 b 1418 453 1394 398 1417 427 b 1270 528 1418 506 1353 528 b 932 381 1127 528 932 464 b 1004 320 932 354 960 330 b 1010 319 1006 319 1008 319 b 1029 334 1023 319 1029 326 b 1011 352 1029 341 1023 349 b 971 363 994 355 981 359 b 953 385 959 369 953 376 b 994 437 953 403 966 420 b 1093 479 1019 453 1052 467 b 1215 505 1133 492 1174 500 b 1274 508 1236 507 1256 508 b 1362 494 1311 508 1340 503 b 1397 452 1385 485 1397 471 b 1357 399 1397 437 1383 418 b 1261 342 1335 382 1303 363 b 1204 312 1243 332 1224 322 b 1062 233 1139 279 1091 252 b 997 157 1019 205 998 180 b 1041 115 998 140 1012 127 b 1143 88 1062 108 1096 98 b 1230 66 1179 79 1208 72 b 1298 35 1260 56 1282 46 b 1326 -12 1317 22 1326 6 b 1279 -82 1326 -33 1311 -57 b 1167 -145 1250 -106 1213 -127 b 1034 -185 1122 -163 1078 -177 b 969 -191 1012 -189 990 -191 b 886 -161 928 -191 901 -181 b 867 -149 880 -153 873 -149 b 852 -164 859 -149 852 -155 b 859 -181 852 -170 854 -175 b 960 -218 875 -208 915 -218 z "},"−":{"ha":809,"x_min":0,"x_max":0,"o":"m 730 359 b 755 377 747 359 755 369 b 732 393 755 387 747 393 l 442 394 b 61 389 193 394 66 392 b 54 376 56 385 54 380 b 77 359 54 368 60 359 z "},"≈":{"ha":768,"x_min":0,"x_max":0,"o":"m 532 325 b 672 416 587 326 633 356 b 734 574 703 465 724 517 l 734 576 b 705 593 734 587 720 593 b 681 580 691 593 683 589 b 637 444 671 529 657 484 b 532 359 610 388 575 359 b 393 472 471 360 432 413 b 237 593 352 532 308 592 b 97 502 182 593 136 562 b 35 345 66 453 45 401 l 34 342 b 64 325 35 331 50 325 b 88 339 78 325 86 330 b 132 475 97 389 112 435 b 237 559 159 530 194 559 b 376 446 299 558 337 506 b 532 325 416 386 460 326 z m 532 56 b 672 148 587 57 633 87 b 734 305 703 197 724 249 l 734 307 b 705 325 734 318 720 325 b 681 311 691 325 683 320 b 637 175 671 260 657 215 b 532 90 610 119 575 91 b 393 203 471 92 432 144 b 237 325 352 264 308 323 b 97 233 182 324 136 294 b 35 76 66 184 45 132 l 34 73 b 64 56 35 62 50 56 b 88 70 78 56 86 61 b 132 206 97 121 112 166 b 237 291 159 262 194 290 b 376 178 299 290 337 237 b 532 56 416 117 460 58 z "},"≡":{"ha":809,"x_min":0,"x_max":0,"o":"m 730 207 b 755 224 747 207 755 216 b 732 241 755 235 747 240 l 442 241 b 61 236 193 241 66 239 b 54 223 56 232 54 228 b 77 207 54 215 60 207 z m 730 138 b 755 155 747 138 755 147 b 732 172 755 165 747 171 l 442 172 b 61 167 193 172 66 170 b 54 154 56 163 54 159 b 77 138 54 146 60 138 z m 730 68 b 755 86 747 68 755 78 b 732 102 755 96 747 102 l 442 103 b 61 98 193 103 66 101 b 54 85 56 94 54 90 b 77 68 54 77 60 68 z "},"≤":{"ha":768,"x_min":0,"x_max":0,"o":"m 670 52 b 696 72 686 52 696 61 b 668 98 696 85 686 93 b 583 113 652 101 624 106 b 217 189 418 142 296 168 b 68 260 118 215 68 239 b 352 414 68 288 163 338 b 567 496 408 436 479 463 b 711 551 638 522 686 541 b 734 580 727 559 734 570 b 711 599 733 591 725 599 b 688 593 705 599 697 597 b 566 544 664 583 623 566 b 375 467 490 514 427 488 b 182 379 298 435 234 406 b 34 259 83 328 34 288 b 245 143 34 221 104 182 b 587 67 326 120 440 95 b 660 53 621 61 644 56 z m 710 0 b 734 18 726 0 734 9 b 711 34 734 28 727 33 l 422 35 b 41 29 172 35 45 33 b 34 16 36 25 34 21 b 56 0 34 8 40 0 z "},"≥":{"ha":769,"x_min":0,"x_max":0,"o":"m 57 52 b 80 58 63 52 71 54 b 201 107 104 68 144 85 b 587 271 369 172 498 227 b 734 392 685 322 734 362 b 523 508 734 429 664 468 b 180 583 442 530 328 555 l 108 597 l 98 599 b 72 579 81 599 72 589 b 100 553 72 566 81 558 b 185 538 116 550 144 545 b 551 462 349 509 471 483 b 699 390 650 435 699 411 b 416 237 699 363 605 313 b 201 155 359 215 288 188 b 57 99 130 129 82 111 b 35 73 42 92 35 83 b 57 52 35 60 43 52 z m 711 0 b 735 18 727 0 735 9 b 712 34 735 28 728 33 l 422 35 b 41 29 173 35 46 33 b 35 16 37 25 35 21 b 57 0 35 5 42 0 z "},"":{"ha":1168,"x_min":0,"x_max":0,"o":"m 260 -105 b 408 -65 305 -105 355 -92 b 559 26 446 -47 496 -16 b 701 115 616 65 664 95 b 937 183 785 160 863 183 b 1101 65 1038 183 1092 144 b 1116 54 1101 58 1107 54 b 1135 68 1128 54 1135 58 b 1069 184 1128 120 1107 159 b 938 216 1036 205 991 216 b 612 100 817 216 709 161 b 268 -71 489 22 374 -71 b 197 10 221 -71 197 -44 b 263 246 197 61 219 140 b 275 279 271 266 275 277 b 252 297 275 290 263 297 b 236 288 245 297 239 294 l 211 250 b 157 309 203 289 186 309 b 69 262 129 309 100 293 b -1 159 41 233 18 199 b -29 53 -19 118 -28 83 b 12 0 -29 20 -18 0 b 193 165 51 0 111 55 b 162 7 173 105 163 52 b 167 -37 162 -9 163 -23 b 260 -105 177 -82 208 -105 z m 20 41 b 8 61 12 41 8 47 b 57 189 9 92 28 142 b 153 274 85 236 120 272 b 178 236 170 273 178 260 b 174 195 178 222 176 208 b 104 106 144 155 121 125 b 20 41 67 63 39 41 z "},"":{"ha":996,"x_min":0,"x_max":0,"o":"m 93 -97 b 239 -58 138 -97 186 -84 b 387 31 275 -40 325 -11 b 528 116 444 68 491 96 b 764 183 611 161 690 183 b 873 158 809 183 846 175 b 928 65 905 138 924 108 b 943 54 929 58 935 54 b 962 68 952 54 962 58 l 962 68 b 897 184 956 121 935 159 b 765 216 863 205 819 216 b 443 104 644 216 539 163 b 96 -63 323 29 208 -63 b 28 -35 66 -63 43 -54 b 9 36 16 -17 9 7 b 28 138 9 66 15 100 b 212 265 151 142 212 212 b 154 317 212 294 192 317 b -25 35 59 317 -23 157 b 93 -97 -25 -37 12 -97 z m 42 173 b 150 281 71 233 111 281 b 176 263 168 281 176 275 b 42 173 176 233 119 180 z "},"":{"ha":960,"x_min":0,"x_max":0,"o":"m -115 -638 b -41 -555 -98 -638 -73 -610 b 113 -208 0 -483 52 -367 b 132 -159 122 -185 128 -169 b 344 41 198 -79 269 -13 b 729 183 475 136 603 183 b 893 65 829 183 884 144 b 908 54 894 58 899 54 b 926 68 920 54 926 58 l 926 68 b 821 203 919 137 884 182 b 728 217 793 212 762 217 b 163 -73 517 216 318 92 b 282 289 222 90 261 210 l 283 293 b 261 309 282 302 275 308 b 243 299 253 309 247 306 b 211 250 236 284 218 261 b 157 309 204 289 186 309 b 70 262 129 309 100 293 b 0 159 41 232 18 197 b -29 53 -20 117 -29 81 b 12 0 -29 18 -16 0 b 89 44 32 0 58 15 b 213 193 122 75 163 124 b 100 -145 184 96 146 -16 b -81 -433 28 -234 -32 -330 b -137 -610 -119 -509 -137 -568 b -115 -638 -137 -629 -130 -638 z m -109 -600 b -3 -353 -87 -523 -52 -440 b 60 -254 16 -320 37 -287 b 12 -374 43 -298 26 -338 b -109 -600 -33 -484 -73 -559 z m 20 41 b 8 61 12 41 8 47 b 32 142 8 79 16 106 b 87 231 46 175 64 205 b 153 274 111 260 132 274 b 178 233 170 274 178 260 b 174 195 178 223 176 210 b 104 106 144 155 121 125 b 20 41 67 63 39 41 z "},"":{"ha":508,"x_min":0,"x_max":0,"o":"m 271 -98 b 366 -54 298 -98 330 -83 b 461 43 396 -31 428 2 b 539 149 513 106 539 142 b 522 166 539 158 530 165 b 509 159 517 166 512 164 b 354 -22 447 75 395 14 b 271 -64 321 -50 294 -64 b 245 -30 254 -64 245 -53 b 275 98 245 -6 255 36 b 309 257 297 172 309 225 b 259 313 309 288 296 313 b 172 275 233 313 204 300 b 26 113 124 238 76 184 b 140 456 54 213 92 327 b 373 739 243 518 321 612 b 410 892 397 797 410 848 b 397 941 410 915 406 930 b 374 950 391 947 383 950 b 214 736 332 950 279 879 b 147 573 194 691 172 637 l 112 479 b -87 429 50 446 -16 429 b -357 486 -168 429 -258 448 b -490 538 -401 502 -446 519 b -695 615 -574 573 -643 599 b -912 650 -771 639 -844 650 b -1181 523 -1035 650 -1124 608 b -1183 517 -1182 521 -1183 519 b -1158 496 -1183 507 -1169 496 b -1149 500 -1154 496 -1151 497 b -912 616 -1093 585 -1011 616 b -699 582 -846 616 -776 605 b -496 505 -654 568 -587 543 b -362 452 -452 487 -407 469 b -87 395 -264 415 -172 396 b 95 433 -21 396 40 408 b 22 228 83 407 59 338 b -33 32 -1 161 -19 95 l -33 26 b -13 5 -33 13 -24 5 b 13 21 -1 5 7 10 b 73 115 25 44 45 75 b 166 228 106 161 137 199 b 254 282 202 264 231 282 b 270 260 264 282 270 275 b 244 145 270 231 258 191 b 208 -23 222 68 210 13 b 271 -98 208 -68 223 -98 z m 159 510 b 231 688 172 543 198 612 b 281 797 247 726 264 762 b 374 916 316 866 349 916 b 376 890 376 907 376 899 b 358 795 376 865 370 833 b 266 616 336 729 306 669 b 159 510 235 574 199 539 z "},"":{"ha":475,"x_min":0,"x_max":0,"o":"m 237 -99 b 425 39 286 -99 349 -53 b 500 135 447 65 472 97 b 506 149 504 141 506 146 b 488 166 506 158 497 165 b 475 159 484 166 479 164 b 361 17 429 96 391 49 b 237 -65 310 -38 269 -65 b 137 62 199 -65 165 -23 b 113 146 130 85 121 114 l 110 159 b 184 176 132 162 157 168 b 265 213 217 186 244 198 b 302 273 290 231 302 250 b 258 313 302 295 287 313 b 182 283 235 313 210 303 b 87 191 152 261 120 231 b 71 174 77 189 71 184 l 71 173 b 26 113 53 149 38 130 b 140 456 52 205 90 319 b 373 739 243 517 321 612 b 410 892 397 796 410 847 b 374 950 410 931 398 950 b 214 736 332 950 279 879 b 123 507 187 676 157 600 l 112 479 b -87 429 52 446 -15 430 b -358 485 -169 430 -259 448 b -490 538 -402 502 -446 519 b -696 615 -575 574 -644 600 b -912 650 -772 639 -844 650 b -1181 523 -1034 650 -1123 608 b -1183 517 -1182 521 -1183 519 b -1158 496 -1183 507 -1168 496 b -1149 500 -1154 496 -1151 497 b -912 616 -1093 585 -1011 616 b -699 582 -846 616 -774 605 b -496 505 -648 566 -580 541 b -227 412 -385 458 -296 427 b -87 395 -182 401 -135 396 b 95 433 -21 396 40 408 b 22 229 64 351 40 282 b -33 32 -1 161 -19 95 l -33 26 b -13 5 -33 13 -24 5 b 13 21 -2 5 7 10 b 83 128 26 46 50 81 b 113 29 94 90 103 56 b 237 -99 145 -56 186 -99 z m 159 510 b 231 688 172 543 198 612 b 281 797 247 726 264 762 b 374 916 316 866 349 916 b 377 890 376 907 377 899 b 358 795 377 865 371 833 b 266 616 336 729 306 669 b 159 510 235 574 199 539 z m 140 200 b 193 252 157 220 175 237 b 253 283 217 273 237 283 b 269 270 264 283 269 279 b 225 227 269 255 254 241 b 140 200 201 216 174 208 z "},"":{"ha":339,"x_min":0,"x_max":0,"o":"m -146 -722 b -83 -655 -131 -722 -109 -699 b -8 -512 -59 -616 -35 -569 b 69 -327 16 -459 41 -397 b 294 -187 138 -260 214 -213 b 426 -168 336 -174 380 -168 b 616 -230 505 -168 569 -189 b 702 -450 673 -280 702 -353 b 699 -500 702 -466 701 -483 l 699 -500 b 723 -514 700 -509 708 -514 b 741 -503 733 -514 739 -511 b 743 -455 742 -487 743 -471 b 675 -241 743 -368 720 -297 b 433 -138 621 -172 540 -138 b 249 -172 370 -138 308 -149 b 95 -260 193 -193 142 -222 b 282 289 188 -13 250 170 b 261 309 282 302 275 309 b 243 300 253 309 247 306 b 211 251 235 285 217 260 b 156 309 204 290 186 309 b 69 262 128 309 99 293 b -1 159 42 235 19 200 b -29 49 -20 118 -29 81 b 12 0 -29 23 -18 0 b 88 44 32 0 58 15 b 212 193 122 76 163 125 b 37 -311 149 -4 91 -172 b -149 -600 -45 -393 -107 -489 b -170 -688 -161 -636 -169 -666 b -146 -722 -170 -711 -162 -722 z m -141 -684 b -2 -408 -113 -584 -66 -492 b -45 -510 -19 -450 -34 -484 b -141 -684 -82 -594 -114 -652 z m 20 41 b 7 62 12 41 7 48 b 31 142 8 83 16 109 b 86 232 47 177 65 207 b 153 274 110 260 132 274 b 178 233 170 274 178 260 b 174 196 178 222 176 210 b 104 106 150 163 127 132 b 20 41 68 64 40 42 z "},"":{"ha":607,"x_min":0,"x_max":0,"o":"m 40 -110 b 6 -37 18 -110 6 -85 b 25 109 6 -1 12 47 b 75 307 38 170 54 235 b 144 513 96 377 119 446 b 408 523 232 518 320 522 b 304 159 363 398 329 277 b 178 1 257 96 216 43 b 40 -110 114 -73 68 -110 z m 336 -141 b 555 37 382 -141 455 -81 b 635 139 585 74 612 108 b 639 149 637 142 639 146 b 621 166 638 158 630 165 b 608 159 616 166 612 164 b 576 116 607 158 597 144 b 483 1 544 73 513 35 b 344 -110 418 -73 372 -110 b 311 -37 321 -110 311 -85 b 330 111 311 -1 317 48 b 381 313 343 174 360 241 b 451 523 402 385 426 455 l 559 524 b 757 522 629 524 695 523 b 722 451 733 496 722 473 b 736 437 722 441 726 437 b 759 449 751 437 758 441 l 759 455 b 782 504 759 471 766 488 b 804 522 789 511 796 517 b 810 536 807 524 809 529 b 798 554 810 547 806 553 b 509 558 709 557 613 558 l 465 558 b 519 682 483 604 500 646 b 521 691 520 686 521 688 b 498 713 521 703 511 713 b 420 557 486 713 460 661 b 157 549 333 557 245 553 b 267 772 196 651 233 725 b 277 768 271 770 274 768 b 299 793 292 768 299 780 b 273 821 299 811 290 821 b 231 794 257 821 243 812 b 113 546 195 740 155 657 b -261 498 -28 537 -153 522 b -269 484 -267 496 -269 492 b -256 465 -269 471 -265 465 l -254 465 b 100 511 -154 487 -36 502 b -25 -29 31 317 -25 85 b 32 -141 -25 -104 -6 -141 b 133 -87 57 -141 91 -123 b 290 85 180 -45 233 12 b 279 -29 282 40 279 2 b 336 -141 279 -104 298 -141 z "}}}
